<ttFont>
<head>
    <!-- Most of this table will be recalculated by the compiler -->
    <tableVersion value="1.0"/>
    <fontRevision value="2.00100708008"/>
    <checkSumAdjustment value="0x87f4f90c"/>
    <magicNumber value="0x5f0f3cf5"/>
    <flags value="00000000 00011001"/>
    <unitsPerEm value="1000"/>
    <created value="Tue May 18 11:14:19 2004"/>
    <modified value="Wed Mar  8 14:52:41 2006"/>
    <xMin value="-164"/>
    <yMin value="-223"/>
    <xMax value="1031"/>
    <yMax value="950"/>
    <macStyle value="00000000 00000000"/>
    <lowestRecPPEM value="9"/>
    <fontDirectionHint value="2"/>
    <indexToLocFormat value="0"/>
    <glyphDataFormat value="0"/>
  </head>
    <TTGlyph name=".notdef" xMin="0" yMin="0" xMax="512" yMax="718">
      <contour>
        <pt x="222" y="117" on="1"/>
        <pt x="222" y="184" on="1"/>
        <pt x="278" y="184" on="1"/>
        <pt x="278" y="117" on="1"/>
      </contour>
      <contour>
        <pt x="225" y="234" on="1"/>
        <pt x="223" y="251" on="1"/>
        <pt x="223" y="307" on="0"/>
        <pt x="236" y="332" on="1"/>
        <pt x="243" y="345" on="0"/>
        <pt x="265" y="374" on="0"/>
        <pt x="282" y="391" on="1"/>
        <pt x="298" y="406" on="0"/>
        <pt x="318" y="429" on="0"/>
        <pt x="328" y="448" on="0"/>
        <pt x="332" y="465" on="0"/>
        <pt x="332" y="474" on="1"/>
        <pt x="332" y="510" on="0"/>
        <pt x="287" y="559" on="0"/>
        <pt x="256" y="559" on="1"/>
        <pt x="225" y="559" on="0"/>
        <pt x="180" y="515" on="0"/>
        <pt x="174" y="464" on="1"/>
        <pt x="124" y="472" on="1"/>
        <pt x="131" y="544" on="0"/>
        <pt x="205" y="609" on="0"/>
        <pt x="259" y="609" on="1"/>
        <pt x="313" y="609" on="0"/>
        <pt x="383" y="538" on="0"/>
        <pt x="383" y="478" on="1"/>
        <pt x="383" y="446" on="0"/>
        <pt x="358" y="393" on="0"/>
        <pt x="320" y="358" on="1"/>
        <pt x="283" y="325" on="0"/>
        <pt x="277" y="306" on="1"/>
        <pt x="271" y="286" on="0"/>
        <pt x="271" y="234" on="1"/>
      </contour>
      <contour>
        <pt x="462" y="50" on="1"/>
        <pt x="462" y="667" on="1"/>
        <pt x="50" y="667" on="1"/>
        <pt x="50" y="50" on="1"/>
      </contour>
      <contour>
        <pt x="512" y="718" on="1"/>
        <pt x="512" y="0" on="1"/>
        <pt x="0" y="0" on="1"/>
        <pt x="0" y="718" on="1"/>
      </contour>
    </TTGlyph>
    <TTGlyph name="A" xMin="-9" yMin="0" xMax="528" yMax="714">
      <contour>
        <pt x="194" y="714" on="1"/>
        <pt x="340" y="714" on="1"/>
        <pt x="528" y="0" on="1"/>
        <pt x="409" y="0" on="1"/>
        <pt x="365" y="175" on="1"/>
        <pt x="156" y="175" on="1"/>
        <pt x="110" y="0" on="1"/>
        <pt x="-9" y="0" on="1"/>
      </contour>
      <contour>
        <pt x="346" y="266" on="1"/>
        <pt x="264" y="618" on="1"/>
        <pt x="262" y="618" on="1"/>
        <pt x="177" y="266" on="1"/>
      </contour>
    </TTGlyph>
    <TTGlyph name="AE" xMin="-12" yMin="0" xMax="707" yMax="714">
      <contour>
        <pt x="261" y="714" on="1"/>
        <pt x="698" y="714" on="1"/>
        <pt x="698" y="618" on="1"/>
        <pt x="445" y="618" on="1"/>
        <pt x="445" y="420" on="1"/>
        <pt x="684" y="420" on="1"/>
        <pt x="684" y="324" on="1"/>
        <pt x="445" y="324" on="1"/>
        <pt x="445" y="96" on="1"/>
        <pt x="707" y="96" on="1"/>
        <pt x="707" y="0" on="1"/>
        <pt x="337" y="0" on="1"/>
        <pt x="337" y="175" on="1"/>
        <pt x="170" y="175" on="1"/>
        <pt x="107" y="0" on="1"/>
        <pt x="-12" y="0" on="1"/>
      </contour>
      <contour>
        <pt x="337" y="266" on="1"/>
        <pt x="337" y="623" on="1"/>
        <pt x="328" y="623" on="1"/>
        <pt x="200" y="266" on="1"/>
      </contour>
    </TTGlyph>
    <TTGlyph name="Aacute" xMin="-9" yMin="0" xMax="528" yMax="906">
      <component glyphName="A" x="0" y="0" flags="0x204"/>
      <component glyphName="acute" x="139" y="154" flags="0x4"/>
    </TTGlyph>
    <TTGlyph name="Abreve" xMin="-9" yMin="0" xMax="528" yMax="902">
      <component glyphName="A" x="0" y="0" flags="0x204"/>
      <component glyphName="breve" x="154" y="154" flags="0x4"/>
    </TTGlyph>
    <TTGlyph name="Acircumflex" xMin="-9" yMin="0" xMax="528" yMax="906">
      <component glyphName="A" x="0" y="0" flags="0x204"/>
      <component glyphName="circumflex" x="155" y="154" flags="0x4"/>
    </TTGlyph>
    <TTGlyph name="Adieresis" xMin="-9" yMin="0" xMax="528" yMax="888">
      <component glyphName="A" x="0" y="0" flags="0x204"/>
      <component glyphName="dieresis" x="152" y="154" flags="0x4"/>
    </TTGlyph>
    <TTGlyph name="Agrave" xMin="-9" yMin="0" xMax="528" yMax="906">
      <component glyphName="A" x="0" y="0" flags="0x204"/>
      <component glyphName="grave" x="167" y="154" flags="0x4"/>
    </TTGlyph>
    <TTGlyph name="Amacron" xMin="-9" yMin="0" xMax="528" yMax="865">
      <component glyphName="A" x="0" y="0" flags="0x204"/>
      <component glyphName="macron" x="152" y="154" flags="0x4"/>
    </TTGlyph>
    <TTGlyph name="Aogonek" xMin="-9" yMin="-223" xMax="528" yMax="714">
      <contour>
        <pt x="459" y="0" on="1"/>
        <pt x="420" y="-38" on="0"/>
        <pt x="391" y="-91" on="0"/>
        <pt x="391" y="-120" on="1"/>
        <pt x="391" y="-148" on="0"/>
        <pt x="422" y="-177" on="0"/>
        <pt x="448" y="-177" on="1"/>
        <pt x="457" y="-177" on="0"/>
        <pt x="482" y="-173" on="0"/>
        <pt x="492" y="-170" on="1"/>
        <pt x="498" y="-212" on="1"/>
        <pt x="481" y="-217" on="0"/>
        <pt x="439" y="-223" on="0"/>
        <pt x="420" y="-223" on="1"/>
        <pt x="372" y="-223" on="0"/>
        <pt x="311" y="-180" on="0"/>
        <pt x="311" y="-132" on="1"/>
        <pt x="311" y="-95" on="0"/>
        <pt x="367" y="-24" on="0"/>
        <pt x="409" y="0" on="1"/>
        <pt x="365" y="175" on="1"/>
        <pt x="156" y="175" on="1"/>
        <pt x="110" y="0" on="1"/>
        <pt x="-9" y="0" on="1"/>
        <pt x="194" y="714" on="1"/>
        <pt x="340" y="714" on="1"/>
        <pt x="528" y="0" on="1"/>
      </contour>
      <contour>
        <pt x="346" y="266" on="1"/>
        <pt x="264" y="618" on="1"/>
        <pt x="262" y="618" on="1"/>
        <pt x="177" y="266" on="1"/>
      </contour>
    </TTGlyph>
    <TTGlyph name="Aring" xMin="-9" yMin="0" xMax="528" yMax="950">
      <component glyphName="A" x="0" y="0" flags="0x204"/>
      <component glyphName="ring" x="153" y="150" flags="0x4"/>
    </TTGlyph>
    <TTGlyph name="Atilde" xMin="-9" yMin="0" xMax="528" yMax="896">
      <component glyphName="A" x="0" y="0" flags="0x204"/>
      <component glyphName="tilde" x="151" y="154" flags="0x4"/>
    </TTGlyph>
    <TTGlyph name="B" xMin="59" yMin="0" xMax="505" yMax="714">
      <contour>
        <pt x="59" y="714" on="1"/>
        <pt x="290" y="714" on="1"/>
        <pt x="330" y="714" on="0"/>
        <pt x="400" y="695" on="0"/>
        <pt x="452" y="654" on="0"/>
        <pt x="482" y="588" on="0"/>
        <pt x="482" y="541" on="1"/>
        <pt x="482" y="412" on="0"/>
        <pt x="377" y="379" on="1"/>
        <pt x="377" y="377" on="1"/>
        <pt x="406" y="372" on="0"/>
        <pt x="454" y="348" on="0"/>
        <pt x="487" y="305" on="0"/>
        <pt x="505" y="240" on="0"/>
        <pt x="505" y="195" on="1"/>
        <pt x="505" y="150" on="0"/>
        <pt x="474" y="78" on="0"/>
        <pt x="417" y="27" on="0"/>
        <pt x="335" y="0" on="0"/>
        <pt x="285" y="0" on="1"/>
        <pt x="59" y="0" on="1"/>
      </contour>
      <contour>
        <pt x="286" y="86" on="1"/>
        <pt x="337" y="86" on="0"/>
        <pt x="391" y="149" on="0"/>
        <pt x="391" y="212" on="1"/>
        <pt x="391" y="270" on="0"/>
        <pt x="330" y="333" on="0"/>
        <pt x="279" y="333" on="1"/>
        <pt x="173" y="333" on="1"/>
        <pt x="173" y="86" on="1"/>
      </contour>
      <contour>
        <pt x="263" y="413" on="1"/>
        <pt x="315" y="413" on="0"/>
        <pt x="368" y="475" on="0"/>
        <pt x="368" y="526" on="1"/>
        <pt x="368" y="558" on="0"/>
        <pt x="350" y="598" on="0"/>
        <pt x="319" y="620" on="0"/>
        <pt x="277" y="628" on="0"/>
        <pt x="253" y="628" on="1"/>
        <pt x="173" y="628" on="1"/>
        <pt x="173" y="413" on="1"/>
      </contour>
    </TTGlyph>
    <TTGlyph name="C" xMin="42" yMin="-14" xMax="498" yMax="728">
      <contour>
        <pt x="498" y="256" on="1"/>
        <pt x="498" y="241" on="1"/>
        <pt x="498" y="193" on="0"/>
        <pt x="476" y="101" on="0"/>
        <pt x="425" y="29" on="0"/>
        <pt x="341" y="-14" on="0"/>
        <pt x="278" y="-14" on="1"/>
        <pt x="210" y="-14" on="0"/>
        <pt x="120" y="30" on="0"/>
        <pt x="65" y="122" on="0"/>
        <pt x="42" y="261" on="0"/>
        <pt x="42" y="357" on="1"/>
        <pt x="42" y="453" on="0"/>
        <pt x="65" y="592" on="0"/>
        <pt x="120" y="684" on="0"/>
        <pt x="211" y="728" on="0"/>
        <pt x="279" y="728" on="1"/>
        <pt x="355" y="728" on="0"/>
        <pt x="441" y="679" on="0"/>
        <pt x="484" y="609" on="0"/>
        <pt x="494" y="532" on="0"/>
        <pt x="494" y="504" on="1"/>
        <pt x="494" y="491" on="1"/>
        <pt x="380" y="491" on="1"/>
        <pt x="380" y="503" on="1"/>
        <pt x="380" y="528" on="0"/>
        <pt x="371" y="579" on="0"/>
        <pt x="348" y="619" on="0"/>
        <pt x="309" y="643" on="0"/>
        <pt x="278" y="642" on="1"/>
        <pt x="246" y="642" on="0"/>
        <pt x="200" y="619" on="0"/>
        <pt x="170" y="556" on="0"/>
        <pt x="156" y="446" on="0"/>
        <pt x="156" y="360" on="1"/>
        <pt x="156" y="274" on="0"/>
        <pt x="170" y="162" on="0"/>
        <pt x="200" y="97" on="0"/>
        <pt x="246" y="72" on="0"/>
        <pt x="278" y="72" on="1"/>
        <pt x="314" y="72" on="0"/>
        <pt x="356" y="107" on="0"/>
        <pt x="378" y="159" on="0"/>
        <pt x="384" y="219" on="0"/>
        <pt x="384" y="244" on="1"/>
        <pt x="384" y="256" on="1"/>
      </contour>
    </TTGlyph>
    <TTGlyph name="Cacute" xMin="42" yMin="-14" xMax="498" yMax="906">
      <component glyphName="C" x="0" y="0" flags="0x204"/>
      <component glyphName="acute" x="186" y="154" flags="0x4"/>
    </TTGlyph>
    <TTGlyph name="Ccaron" xMin="42" yMin="-14" xMax="498" yMax="906">
      <component glyphName="C" x="0" y="0" flags="0x204"/>
      <component glyphName="caron" x="170" y="154" flags="0x4"/>
    </TTGlyph>
    <TTGlyph name="Ccedilla" xMin="42" yMin="-223" xMax="498" yMax="728">
      <contour>
        <pt x="498" y="256" on="1"/>
        <pt x="498" y="241" on="1"/>
        <pt x="498" y="204" on="0"/>
        <pt x="486" y="134" on="0"/>
        <pt x="458" y="73" on="0"/>
        <pt x="414" y="23" on="0"/>
        <pt x="383" y="7" on="1"/>
        <pt x="346" y="-11" on="0"/>
        <pt x="294" y="-14" on="1"/>
        <pt x="262" y="-60" on="1"/>
        <pt x="273" y="-57" on="0"/>
        <pt x="292" y="-55" on="0"/>
        <pt x="302" y="-55" on="1"/>
        <pt x="336" y="-55" on="0"/>
        <pt x="380" y="-99" on="0"/>
        <pt x="380" y="-129" on="1"/>
        <pt x="380" y="-171" on="0"/>
        <pt x="314" y="-221" on="0"/>
        <pt x="263" y="-223" on="1"/>
        <pt x="229" y="-223" on="0"/>
        <pt x="180" y="-213" on="0"/>
        <pt x="162" y="-206" on="1"/>
        <pt x="178" y="-166" on="1"/>
        <pt x="208" y="-179" on="0"/>
        <pt x="247" y="-179" on="1"/>
        <pt x="271" y="-179" on="0"/>
        <pt x="300" y="-160" on="0"/>
        <pt x="300" y="-137" on="1"/>
        <pt x="300" y="-120" on="0"/>
        <pt x="273" y="-99" on="0"/>
        <pt x="254" y="-99" on="1"/>
        <pt x="243" y="-99" on="0"/>
        <pt x="225" y="-103" on="0"/>
        <pt x="216" y="-107" on="1"/>
        <pt x="198" y="-90" on="1"/>
        <pt x="246" y="-13" on="1"/>
        <pt x="199" y="-9" on="0"/>
        <pt x="165" y="8" on="1"/>
        <pt x="96" y="42" on="0"/>
        <pt x="42" y="213" on="0"/>
        <pt x="42" y="357" on="1"/>
        <pt x="42" y="453" on="0"/>
        <pt x="65" y="592" on="0"/>
        <pt x="120" y="684" on="0"/>
        <pt x="211" y="728" on="0"/>
        <pt x="279" y="728" on="1"/>
        <pt x="355" y="728" on="0"/>
        <pt x="441" y="679" on="0"/>
        <pt x="484" y="609" on="0"/>
        <pt x="494" y="532" on="0"/>
        <pt x="494" y="504" on="1"/>
        <pt x="494" y="491" on="1"/>
        <pt x="380" y="491" on="1"/>
        <pt x="380" y="503" on="1"/>
        <pt x="380" y="528" on="0"/>
        <pt x="371" y="579" on="0"/>
        <pt x="348" y="619" on="0"/>
        <pt x="309" y="643" on="0"/>
        <pt x="278" y="642" on="1"/>
        <pt x="246" y="642" on="0"/>
        <pt x="200" y="619" on="0"/>
        <pt x="170" y="556" on="0"/>
        <pt x="156" y="446" on="0"/>
        <pt x="156" y="360" on="1"/>
        <pt x="156" y="274" on="0"/>
        <pt x="170" y="162" on="0"/>
        <pt x="200" y="97" on="0"/>
        <pt x="246" y="72" on="0"/>
        <pt x="278" y="72" on="1"/>
        <pt x="314" y="72" on="0"/>
        <pt x="356" y="107" on="0"/>
        <pt x="378" y="159" on="0"/>
        <pt x="384" y="219" on="0"/>
        <pt x="384" y="244" on="1"/>
        <pt x="384" y="256" on="1"/>
      </contour>
    </TTGlyph>
    <TTGlyph name="Ccircumflex" xMin="42" yMin="-14" xMax="498" yMax="906">
      <component glyphName="C" x="0" y="0" flags="0x204"/>
      <component glyphName="circumflex" x="170" y="154" flags="0x4"/>
    </TTGlyph>
    <TTGlyph name="Cdotaccent" xMin="42" yMin="-14" xMax="498" yMax="888">
      <component glyphName="C" x="0" y="0" flags="0x204"/>
      <component glyphName="dotaccent" x="169" y="154" flags="0x4"/>
    </TTGlyph>
    <TTGlyph name="D" xMin="59" yMin="0" xMax="514" yMax="714">
      <contour>
        <pt x="59" y="714" on="1"/>
        <pt x="262" y="714" on="1"/>
        <pt x="346" y="714" on="0"/>
        <pt x="446" y="662" on="0"/>
        <pt x="498" y="567" on="0"/>
        <pt x="514" y="436" on="0"/>
        <pt x="514" y="357" on="1"/>
        <pt x="514" y="278" on="0"/>
        <pt x="498" y="147" on="0"/>
        <pt x="446" y="52" on="0"/>
        <pt x="346" y="0" on="0"/>
        <pt x="262" y="0" on="1"/>
        <pt x="59" y="0" on="1"/>
      </contour>
      <contour>
        <pt x="173" y="86" on="1"/>
        <pt x="267" y="86" on="1"/>
        <pt x="302" y="86" on="0"/>
        <pt x="353" y="112" on="0"/>
        <pt x="385" y="174" on="0"/>
        <pt x="400" y="279" on="0"/>
        <pt x="400" y="357" on="1"/>
        <pt x="400" y="432" on="0"/>
        <pt x="386" y="536" on="0"/>
        <pt x="355" y="600" on="0"/>
        <pt x="304" y="628" on="0"/>
        <pt x="267" y="628" on="1"/>
        <pt x="173" y="628" on="1"/>
      </contour>
    </TTGlyph>
    <TTGlyph name="Dcaron" xMin="59" yMin="0" xMax="514" yMax="906">
      <component glyphName="D" x="0" y="0" flags="0x204"/>
      <component glyphName="caron" x="137" y="154" flags="0x4"/>
    </TTGlyph>
    <TTGlyph name="Dcroat" xMin="0" yMin="0" xMax="514" yMax="714">
      <contour>
        <pt x="267" y="86" on="1"/>
        <pt x="302" y="86" on="0"/>
        <pt x="353" y="112" on="0"/>
        <pt x="385" y="174" on="0"/>
        <pt x="400" y="279" on="0"/>
        <pt x="400" y="357" on="1"/>
        <pt x="400" y="432" on="0"/>
        <pt x="386" y="536" on="0"/>
        <pt x="355" y="600" on="0"/>
        <pt x="304" y="628" on="0"/>
        <pt x="267" y="628" on="1"/>
        <pt x="173" y="628" on="1"/>
        <pt x="173" y="413" on="1"/>
        <pt x="292" y="413" on="1"/>
        <pt x="292" y="333" on="1"/>
        <pt x="173" y="333" on="1"/>
        <pt x="173" y="86" on="1"/>
      </contour>
      <contour>
        <pt x="59" y="333" on="1"/>
        <pt x="0" y="333" on="1"/>
        <pt x="0" y="413" on="1"/>
        <pt x="59" y="413" on="1"/>
        <pt x="59" y="714" on="1"/>
        <pt x="262" y="714" on="1"/>
        <pt x="346" y="714" on="0"/>
        <pt x="446" y="662" on="0"/>
        <pt x="498" y="567" on="0"/>
        <pt x="514" y="436" on="0"/>
        <pt x="514" y="357" on="1"/>
        <pt x="514" y="278" on="0"/>
        <pt x="498" y="147" on="0"/>
        <pt x="446" y="52" on="0"/>
        <pt x="346" y="0" on="0"/>
        <pt x="262" y="0" on="1"/>
        <pt x="59" y="0" on="1"/>
      </contour>
    </TTGlyph>
    <TTGlyph name="Delta" xMin="10" yMin="0" xMax="672" yMax="712">
      <contour>
        <pt x="334" y="597" on="1"/>
        <pt x="147" y="93" on="1"/>
        <pt x="529" y="93" on="1"/>
      </contour>
      <contour>
        <pt x="10" y="0" on="1"/>
        <pt x="283" y="712" on="1"/>
        <pt x="387" y="712" on="1"/>
        <pt x="672" y="0" on="1"/>
      </contour>
    </TTGlyph>
    <TTGlyph name="E" xMin="59" yMin="0" xMax="453" yMax="714">
      <contour>
        <pt x="59" y="714" on="1"/>
        <pt x="445" y="714" on="1"/>
        <pt x="445" y="618" on="1"/>
        <pt x="173" y="618" on="1"/>
        <pt x="173" y="420" on="1"/>
        <pt x="429" y="420" on="1"/>
        <pt x="429" y="324" on="1"/>
        <pt x="173" y="324" on="1"/>
        <pt x="173" y="96" on="1"/>
        <pt x="453" y="96" on="1"/>
        <pt x="453" y="0" on="1"/>
        <pt x="59" y="0" on="1"/>
      </contour>
    </TTGlyph>
    <TTGlyph name="Eacute" xMin="59" yMin="0" xMax="453" yMax="906">
      <component glyphName="E" x="0" y="0" flags="0x204"/>
      <component glyphName="acute" x="153" y="154" flags="0x4"/>
    </TTGlyph>
    <TTGlyph name="Ebreve" xMin="59" yMin="0" xMax="453" yMax="902">
      <component glyphName="E" x="0" y="0" flags="0x204"/>
      <component glyphName="breve" x="140" y="154" flags="0x4"/>
    </TTGlyph>
    <TTGlyph name="Ecaron" xMin="59" yMin="0" xMax="453" yMax="906">
      <component glyphName="E" x="0" y="0" flags="0x204"/>
      <component glyphName="caron" x="143" y="154" flags="0x4"/>
    </TTGlyph>
    <TTGlyph name="Ecircumflex" xMin="59" yMin="0" xMax="453" yMax="906">
      <component glyphName="E" x="0" y="0" flags="0x204"/>
      <component glyphName="circumflex" x="143" y="154" flags="0x4"/>
    </TTGlyph>
    <TTGlyph name="Edieresis" xMin="59" yMin="0" xMax="453" yMax="888">
      <component glyphName="E" x="0" y="0" flags="0x204"/>
      <component glyphName="dieresis" x="143" y="154" flags="0x4"/>
    </TTGlyph>
    <TTGlyph name="Edotaccent" xMin="59" yMin="0" xMax="453" yMax="888">
      <component glyphName="E" x="0" y="0" flags="0x204"/>
      <component glyphName="dotaccent" x="144" y="154" flags="0x4"/>
    </TTGlyph>
    <TTGlyph name="Egrave" xMin="59" yMin="0" xMax="453" yMax="906">
      <component glyphName="E" x="0" y="0" flags="0x204"/>
      <component glyphName="grave" x="137" y="154" flags="0x4"/>
    </TTGlyph>
    <TTGlyph name="Emacron" xMin="59" yMin="0" xMax="453" yMax="865">
      <component glyphName="E" x="0" y="0" flags="0x204"/>
      <component glyphName="macron" x="141" y="154" flags="0x4"/>
    </TTGlyph>
    <TTGlyph name="Eogonek" xMin="59" yMin="-223" xMax="453" yMax="714">
      <contour>
        <pt x="414" y="0" on="1"/>
        <pt x="375" y="-38" on="0"/>
        <pt x="346" y="-91" on="0"/>
        <pt x="346" y="-120" on="1"/>
        <pt x="346" y="-148" on="0"/>
        <pt x="377" y="-177" on="0"/>
        <pt x="403" y="-177" on="1"/>
        <pt x="412" y="-177" on="0"/>
        <pt x="437" y="-173" on="0"/>
        <pt x="447" y="-170" on="1"/>
        <pt x="453" y="-212" on="1"/>
        <pt x="436" y="-217" on="0"/>
        <pt x="394" y="-223" on="0"/>
        <pt x="375" y="-223" on="1"/>
        <pt x="327" y="-223" on="0"/>
        <pt x="266" y="-180" on="0"/>
        <pt x="266" y="-132" on="1"/>
        <pt x="266" y="-95" on="0"/>
        <pt x="322" y="-24" on="0"/>
        <pt x="364" y="0" on="1"/>
        <pt x="59" y="0" on="1"/>
        <pt x="59" y="714" on="1"/>
        <pt x="445" y="714" on="1"/>
        <pt x="445" y="618" on="1"/>
        <pt x="173" y="618" on="1"/>
        <pt x="173" y="420" on="1"/>
        <pt x="429" y="420" on="1"/>
        <pt x="429" y="324" on="1"/>
        <pt x="173" y="324" on="1"/>
        <pt x="173" y="96" on="1"/>
        <pt x="453" y="96" on="1"/>
        <pt x="453" y="0" on="1"/>
      </contour>
    </TTGlyph>
    <TTGlyph name="Eth" xMin="0" yMin="0" xMax="514" yMax="714">
      <contour>
        <pt x="267" y="86" on="1"/>
        <pt x="302" y="86" on="0"/>
        <pt x="353" y="112" on="0"/>
        <pt x="385" y="174" on="0"/>
        <pt x="400" y="279" on="0"/>
        <pt x="400" y="357" on="1"/>
        <pt x="400" y="432" on="0"/>
        <pt x="386" y="536" on="0"/>
        <pt x="355" y="600" on="0"/>
        <pt x="304" y="628" on="0"/>
        <pt x="267" y="628" on="1"/>
        <pt x="173" y="628" on="1"/>
        <pt x="173" y="413" on="1"/>
        <pt x="292" y="413" on="1"/>
        <pt x="292" y="333" on="1"/>
        <pt x="173" y="333" on="1"/>
        <pt x="173" y="86" on="1"/>
      </contour>
      <contour>
        <pt x="59" y="333" on="1"/>
        <pt x="0" y="333" on="1"/>
        <pt x="0" y="413" on="1"/>
        <pt x="59" y="413" on="1"/>
        <pt x="59" y="714" on="1"/>
        <pt x="262" y="714" on="1"/>
        <pt x="346" y="714" on="0"/>
        <pt x="446" y="662" on="0"/>
        <pt x="498" y="567" on="0"/>
        <pt x="514" y="436" on="0"/>
        <pt x="514" y="357" on="1"/>
        <pt x="514" y="278" on="0"/>
        <pt x="498" y="147" on="0"/>
        <pt x="446" y="52" on="0"/>
        <pt x="346" y="0" on="0"/>
        <pt x="262" y="0" on="1"/>
        <pt x="59" y="0" on="1"/>
      </contour>
    </TTGlyph>
    <TTGlyph name="Euro" xMin="0" yMin="-14" xMax="480" yMax="708">
      <contour>
        <pt x="446" y="547" on="1"/>
        <pt x="439" y="561" on="0"/>
        <pt x="415" y="592" on="0"/>
        <pt x="394" y="606" on="1"/>
        <pt x="373" y="620" on="0"/>
        <pt x="335" y="628" on="0"/>
        <pt x="314" y="628" on="1"/>
        <pt x="290" y="628" on="0"/>
        <pt x="250" y="615" on="0"/>
        <pt x="233" y="595" on="1"/>
        <pt x="220" y="581" on="0"/>
        <pt x="204" y="543" on="0"/>
        <pt x="194" y="503" on="0"/>
        <pt x="190" y="466" on="0"/>
        <pt x="189" y="453" on="1"/>
        <pt x="413" y="453" on="1"/>
        <pt x="389" y="385" on="1"/>
        <pt x="185" y="385" on="1"/>
        <pt x="184" y="352" on="0"/>
        <pt x="185" y="315" on="1"/>
        <pt x="370" y="315" on="1"/>
        <pt x="346" y="247" on="1"/>
        <pt x="189" y="247" on="1"/>
        <pt x="189" y="236" on="0"/>
        <pt x="192" y="200" on="0"/>
        <pt x="202" y="158" on="0"/>
        <pt x="219" y="117" on="0"/>
        <pt x="233" y="101" on="1"/>
        <pt x="250" y="82" on="0"/>
        <pt x="290" y="66" on="0"/>
        <pt x="316" y="66" on="1"/>
        <pt x="336" y="66" on="0"/>
        <pt x="379" y="76" on="0"/>
        <pt x="401" y="87" on="1"/>
        <pt x="421" y="97" on="0"/>
        <pt x="451" y="124" on="0"/>
        <pt x="464" y="144" on="1"/>
        <pt x="464" y="34" on="1"/>
        <pt x="443" y="16" on="0"/>
        <pt x="418" y="6" on="1"/>
        <pt x="403" y="-1" on="0"/>
        <pt x="370" y="-9" on="0"/>
        <pt x="342" y="-13" on="0"/>
        <pt x="320" y="-14" on="0"/>
        <pt x="314" y="-14" on="1"/>
        <pt x="256" y="-14" on="0"/>
        <pt x="184" y="13" on="0"/>
        <pt x="164" y="29" on="1"/>
        <pt x="136" y="51" on="0"/>
        <pt x="102" y="112" on="0"/>
        <pt x="83" y="174" on="0"/>
        <pt x="76" y="230" on="0"/>
        <pt x="75" y="247" on="1"/>
        <pt x="0" y="247" on="1"/>
        <pt x="24" y="315" on="1"/>
        <pt x="71" y="315" on="1"/>
        <pt x="70" y="352" on="0"/>
        <pt x="71" y="385" on="1"/>
        <pt x="0" y="385" on="1"/>
        <pt x="24" y="453" on="1"/>
        <pt x="75" y="453" on="1"/>
        <pt x="81" y="541" on="0"/>
        <pt x="133" y="640" on="0"/>
        <pt x="164" y="665" on="1"/>
        <pt x="183" y="680" on="0"/>
        <pt x="223" y="697" on="0"/>
        <pt x="262" y="706" on="0"/>
        <pt x="297" y="708" on="0"/>
        <pt x="311" y="708" on="1"/>
        <pt x="335" y="708" on="0"/>
        <pt x="387" y="701" on="0"/>
        <pt x="415" y="689" on="1"/>
        <pt x="453" y="672" on="0"/>
        <pt x="480" y="639" on="1"/>
      </contour>
    </TTGlyph>
    <TTGlyph name="F" xMin="59" yMin="0" xMax="440" yMax="714">
      <contour>
        <pt x="59" y="714" on="1"/>
        <pt x="440" y="714" on="1"/>
        <pt x="440" y="618" on="1"/>
        <pt x="173" y="618" on="1"/>
        <pt x="173" y="420" on="1"/>
        <pt x="424" y="420" on="1"/>
        <pt x="424" y="324" on="1"/>
        <pt x="173" y="324" on="1"/>
        <pt x="173" y="0" on="1"/>
        <pt x="59" y="0" on="1"/>
      </contour>
    </TTGlyph>
    <TTGlyph name="G" xMin="42" yMin="-14" xMax="498" yMax="728">
      <contour>
        <pt x="412" y="83" on="1"/>
        <pt x="410" y="83" on="1"/>
        <pt x="387" y="32" on="0"/>
        <pt x="317" y="-14" on="0"/>
        <pt x="254" y="-14" on="1"/>
        <pt x="195" y="-14" on="0"/>
        <pt x="115" y="30" on="0"/>
        <pt x="64" y="122" on="0"/>
        <pt x="42" y="261" on="0"/>
        <pt x="42" y="357" on="1"/>
        <pt x="42" y="548" on="0"/>
        <pt x="155" y="728" on="0"/>
        <pt x="279" y="728" on="1"/>
        <pt x="346" y="728" on="0"/>
        <pt x="428" y="682" on="0"/>
        <pt x="473" y="617" on="0"/>
        <pt x="488" y="546" on="0"/>
        <pt x="488" y="522" on="1"/>
        <pt x="488" y="509" on="1"/>
        <pt x="380" y="509" on="1"/>
        <pt x="380" y="526" on="1"/>
        <pt x="380" y="546" on="0"/>
        <pt x="371" y="587" on="0"/>
        <pt x="348" y="621" on="0"/>
        <pt x="309" y="642" on="0"/>
        <pt x="280" y="642" on="1"/>
        <pt x="250" y="642" on="0"/>
        <pt x="203" y="618" on="0"/>
        <pt x="172" y="555" on="0"/>
        <pt x="156" y="445" on="0"/>
        <pt x="156" y="360" on="1"/>
        <pt x="156" y="274" on="0"/>
        <pt x="170" y="162" on="0"/>
        <pt x="199" y="97" on="0"/>
        <pt x="242" y="72" on="0"/>
        <pt x="271" y="72" on="1"/>
        <pt x="336" y="71" on="0"/>
        <pt x="390" y="173" on="0"/>
        <pt x="390" y="290" on="1"/>
        <pt x="270" y="290" on="1"/>
        <pt x="270" y="376" on="1"/>
        <pt x="498" y="376" on="1"/>
        <pt x="498" y="0" on="1"/>
        <pt x="412" y="0" on="1"/>
      </contour>
    </TTGlyph>
    <TTGlyph name="Gbreve" xMin="42" yMin="-14" xMax="498" yMax="902">
      <component glyphName="G" x="0" y="0" flags="0x204"/>
      <component glyphName="breve" x="173" y="154" flags="0x4"/>
    </TTGlyph>
    <TTGlyph name="Gcircumflex" xMin="42" yMin="-14" xMax="498" yMax="906">
      <component glyphName="G" x="0" y="0" flags="0x204"/>
      <component glyphName="circumflex" x="170" y="154" flags="0x4"/>
    </TTGlyph>
    <TTGlyph name="Gcommaaccent" xMin="42" yMin="-223" xMax="498" yMax="728">
      <component glyphName="G" x="0" y="0" flags="0x204"/>
      <component glyphName="commaaccent" x="147" y="0" flags="0x4"/>
    </TTGlyph>
    <TTGlyph name="Gdotaccent" xMin="42" yMin="-14" xMax="498" yMax="888">
      <component glyphName="G" x="0" y="0" flags="0x204"/>
      <component glyphName="dotaccent" x="171" y="154" flags="0x4"/>
    </TTGlyph>
    <TTGlyph name="H" xMin="59" yMin="0" xMax="497" yMax="714">
      <contour>
        <pt x="59" y="714" on="1"/>
        <pt x="173" y="714" on="1"/>
        <pt x="173" y="428" on="1"/>
        <pt x="383" y="428" on="1"/>
        <pt x="383" y="714" on="1"/>
        <pt x="497" y="714" on="1"/>
        <pt x="497" y="0" on="1"/>
        <pt x="383" y="0" on="1"/>
        <pt x="383" y="332" on="1"/>
        <pt x="173" y="332" on="1"/>
        <pt x="173" y="0" on="1"/>
        <pt x="59" y="0" on="1"/>
      </contour>
    </TTGlyph>
    <TTGlyph name="Hbar" xMin="59" yMin="0" xMax="497" yMax="714">
      <contour>
        <pt x="59" y="714" on="1"/>
        <pt x="173" y="714" on="1"/>
        <pt x="173" y="552" on="1"/>
        <pt x="383" y="552" on="1"/>
        <pt x="383" y="714" on="1"/>
        <pt x="497" y="714" on="1"/>
        <pt x="497" y="0" on="1"/>
        <pt x="383" y="0" on="1"/>
        <pt x="383" y="319" on="1"/>
        <pt x="173" y="319" on="1"/>
        <pt x="173" y="0" on="1"/>
        <pt x="59" y="0" on="1"/>
      </contour>
      <contour>
        <pt x="383" y="415" on="1"/>
        <pt x="383" y="500" on="1"/>
        <pt x="173" y="500" on="1"/>
        <pt x="173" y="415" on="1"/>
      </contour>
    </TTGlyph>
    <TTGlyph name="Hcircumflex" xMin="59" yMin="0" xMax="497" yMax="906">
      <component glyphName="H" x="0" y="0" flags="0x204"/>
      <component glyphName="circumflex" x="168" y="154" flags="0x4"/>
    </TTGlyph>
    <TTGlyph name="I" xMin="54" yMin="0" xMax="168" yMax="714">
      <contour>
        <pt x="54" y="714" on="1"/>
        <pt x="168" y="714" on="1"/>
        <pt x="168" y="0" on="1"/>
        <pt x="54" y="0" on="1"/>
      </contour>
    </TTGlyph>
    <TTGlyph name="IJ" xMin="54" yMin="-14" xMax="617" yMax="714">
      <component glyphName="I" x="0" y="0" flags="0x4"/>
      <component glyphName="J" x="227" y="0" flags="0x4"/>
    </TTGlyph>
    <TTGlyph name="Iacute" xMin="54" yMin="0" xMax="236" yMax="906">
      <component glyphName="I" x="0" y="0" flags="0x204"/>
      <component glyphName="acute" x="0" y="154" flags="0x4"/>
    </TTGlyph>
    <TTGlyph name="Icircumflex" xMin="-33" yMin="0" xMax="255" yMax="906">
      <component glyphName="I" x="0" y="0" flags="0x204"/>
      <component glyphName="circumflex" x="0" y="154" flags="0x4"/>
    </TTGlyph>
    <TTGlyph name="Idieresis" xMin="-20" yMin="0" xMax="242" yMax="888">
      <component glyphName="I" x="0" y="0" flags="0x204"/>
      <component glyphName="dieresis" x="0" y="154" flags="0x4"/>
    </TTGlyph>
    <TTGlyph name="Idotaccent" xMin="54" yMin="0" xMax="168" yMax="888">
      <component glyphName="I" x="0" y="0" flags="0x204"/>
      <component glyphName="dotaccent" x="1" y="154" flags="0x4"/>
    </TTGlyph>
    <TTGlyph name="Igrave" xMin="-12" yMin="0" xMax="168" yMax="906">
      <component glyphName="I" x="0" y="0" flags="0x204"/>
      <component glyphName="grave" x="2" y="154" flags="0x4"/>
    </TTGlyph>
    <TTGlyph name="Imacron" xMin="-30" yMin="0" xMax="252" yMax="865">
      <component glyphName="I" x="0" y="0" flags="0x204"/>
      <component glyphName="macron" x="0" y="154" flags="0x4"/>
    </TTGlyph>
    <TTGlyph name="Iogonek" xMin="20" yMin="-223" xMax="207" yMax="714">
      <contour>
        <pt x="168" y="0" on="1"/>
        <pt x="129" y="-38" on="0"/>
        <pt x="100" y="-91" on="0"/>
        <pt x="100" y="-120" on="1"/>
        <pt x="100" y="-148" on="0"/>
        <pt x="131" y="-177" on="0"/>
        <pt x="157" y="-177" on="1"/>
        <pt x="166" y="-177" on="0"/>
        <pt x="191" y="-173" on="0"/>
        <pt x="201" y="-170" on="1"/>
        <pt x="207" y="-212" on="1"/>
        <pt x="190" y="-217" on="0"/>
        <pt x="148" y="-223" on="0"/>
        <pt x="129" y="-223" on="1"/>
        <pt x="81" y="-223" on="0"/>
        <pt x="20" y="-180" on="0"/>
        <pt x="20" y="-132" on="1"/>
        <pt x="20" y="-95" on="0"/>
        <pt x="76" y="-24" on="0"/>
        <pt x="118" y="0" on="1"/>
        <pt x="54" y="0" on="1"/>
        <pt x="54" y="714" on="1"/>
        <pt x="168" y="714" on="1"/>
      </contour>
    </TTGlyph>
    <TTGlyph name="Itilde" xMin="-39" yMin="0" xMax="263" yMax="896">
      <component glyphName="I" x="0" y="0" flags="0x204"/>
      <component glyphName="tilde" x="1" y="154" flags="0x4"/>
    </TTGlyph>
    <TTGlyph name="J" xMin="16" yMin="-14" xMax="390" yMax="714">
      <contour>
        <pt x="124" y="215" on="1"/>
        <pt x="124" y="180" on="1"/>
        <pt x="124" y="158" on="0"/>
        <pt x="130" y="119" on="0"/>
        <pt x="146" y="89" on="0"/>
        <pt x="176" y="72" on="0"/>
        <pt x="200" y="72" on="1"/>
        <pt x="228" y="72" on="0"/>
        <pt x="259" y="96" on="0"/>
        <pt x="274" y="136" on="0"/>
        <pt x="276" y="187" on="0"/>
        <pt x="276" y="214" on="1"/>
        <pt x="276" y="714" on="1"/>
        <pt x="390" y="714" on="1"/>
        <pt x="390" y="197" on="1"/>
        <pt x="390" y="138" on="0"/>
        <pt x="362" y="57" on="0"/>
        <pt x="311" y="7" on="0"/>
        <pt x="241" y="-14" on="0"/>
        <pt x="198" y="-14" on="1"/>
        <pt x="143" y="-14" on="0"/>
        <pt x="73" y="17" on="0"/>
        <pt x="33" y="68" on="0"/>
        <pt x="17" y="134" on="0"/>
        <pt x="16" y="169" on="1"/>
        <pt x="16" y="215" on="1"/>
      </contour>
    </TTGlyph>
    <TTGlyph name="Jcircumflex" xMin="16" yMin="-14" xMax="477" yMax="906">
      <component glyphName="J" x="0" y="0" flags="0x204"/>
      <component glyphName="circumflex" x="222" y="154" flags="0x4"/>
    </TTGlyph>
    <TTGlyph name="K" xMin="59" yMin="0" xMax="538" yMax="714">
      <contour>
        <pt x="59" y="714" on="1"/>
        <pt x="173" y="714" on="1"/>
        <pt x="173" y="403" on="1"/>
        <pt x="175" y="403" on="1"/>
        <pt x="391" y="714" on="1"/>
        <pt x="516" y="714" on="1"/>
        <pt x="310" y="413" on="1"/>
        <pt x="538" y="0" on="1"/>
        <pt x="409" y="0" on="1"/>
        <pt x="236" y="321" on="1"/>
        <pt x="173" y="231" on="1"/>
        <pt x="173" y="0" on="1"/>
        <pt x="59" y="0" on="1"/>
      </contour>
    </TTGlyph>
    <TTGlyph name="Kcommaaccent" xMin="59" yMin="-223" xMax="538" yMax="714">
      <component glyphName="K" x="0" y="0" flags="0x204"/>
      <component glyphName="commaaccent" x="162" y="0" flags="0x4"/>
    </TTGlyph>
    <TTGlyph name="L" xMin="46" yMin="0" xMax="436" yMax="714">
      <contour>
        <pt x="46" y="714" on="1"/>
        <pt x="160" y="714" on="1"/>
        <pt x="160" y="96" on="1"/>
        <pt x="436" y="96" on="1"/>
        <pt x="436" y="0" on="1"/>
        <pt x="46" y="0" on="1"/>
      </contour>
    </TTGlyph>
    <TTGlyph name="Lacute" xMin="46" yMin="0" xMax="436" yMax="906">
      <component glyphName="L" x="0" y="0" flags="0x204"/>
      <component glyphName="acute" x="9" y="154" flags="0x4"/>
    </TTGlyph>
    <TTGlyph name="Lcaron" xMin="46" yMin="0" xMax="436" yMax="714">
      <component glyphName="L" x="0" y="0" flags="0x204"/>
      <component glyphName="caron.alt" x="152" y="0" flags="0x4"/>
    </TTGlyph>
    <TTGlyph name="Lcommaaccent" xMin="46" yMin="-223" xMax="436" yMax="714">
      <component glyphName="L" x="0" y="0" flags="0x204"/>
      <component glyphName="commaaccent" x="123" y="0" flags="0x4"/>
    </TTGlyph>
    <TTGlyph name="Ldot" xMin="46" yMin="0" xMax="436" yMax="714">
      <component glyphName="L" x="0" y="0" flags="0x204"/>
      <component glyphName="dotaccent" x="193" y="-195" flags="0x4"/>
    </TTGlyph>
    <TTGlyph name="Lslash" xMin="-10" yMin="0" xMax="436" yMax="714">
      <contour>
        <pt x="46" y="261" on="1"/>
        <pt x="-10" y="222" on="1"/>
        <pt x="-10" y="320" on="1"/>
        <pt x="46" y="359" on="1"/>
        <pt x="46" y="714" on="1"/>
        <pt x="160" y="714" on="1"/>
        <pt x="160" y="437" on="1"/>
        <pt x="306" y="538" on="1"/>
        <pt x="306" y="440" on="1"/>
        <pt x="160" y="339" on="1"/>
        <pt x="160" y="96" on="1"/>
        <pt x="436" y="96" on="1"/>
        <pt x="436" y="0" on="1"/>
        <pt x="46" y="0" on="1"/>
      </contour>
    </TTGlyph>
    <TTGlyph name="M" xMin="59" yMin="0" xMax="663" yMax="714">
      <contour>
        <pt x="59" y="714" on="1"/>
        <pt x="237" y="714" on="1"/>
        <pt x="363" y="185" on="1"/>
        <pt x="365" y="185" on="1"/>
        <pt x="489" y="714" on="1"/>
        <pt x="663" y="714" on="1"/>
        <pt x="663" y="0" on="1"/>
        <pt x="555" y="0" on="1"/>
        <pt x="555" y="594" on="1"/>
        <pt x="553" y="594" on="1"/>
        <pt x="409" y="0" on="1"/>
        <pt x="313" y="0" on="1"/>
        <pt x="169" y="594" on="1"/>
        <pt x="167" y="594" on="1"/>
        <pt x="167" y="0" on="1"/>
        <pt x="59" y="0" on="1"/>
      </contour>
    </TTGlyph>
    <TTGlyph name="N" xMin="59" yMin="0" xMax="515" yMax="714">
      <contour>
        <pt x="59" y="714" on="1"/>
        <pt x="198" y="714" on="1"/>
        <pt x="405" y="182" on="1"/>
        <pt x="407" y="182" on="1"/>
        <pt x="407" y="714" on="1"/>
        <pt x="515" y="714" on="1"/>
        <pt x="515" y="0" on="1"/>
        <pt x="376" y="0" on="1"/>
        <pt x="169" y="546" on="1"/>
        <pt x="167" y="546" on="1"/>
        <pt x="167" y="0" on="1"/>
        <pt x="59" y="0" on="1"/>
      </contour>
    </TTGlyph>
    <TTGlyph name="Nacute" xMin="59" yMin="0" xMax="515" yMax="906">
      <component glyphName="N" x="0" y="0" flags="0x204"/>
      <component glyphName="acute" x="187" y="154" flags="0x4"/>
    </TTGlyph>
    <TTGlyph name="Ncaron" xMin="59" yMin="0" xMax="515" yMax="906">
      <component glyphName="N" x="0" y="0" flags="0x204"/>
      <component glyphName="caron" x="176" y="154" flags="0x4"/>
    </TTGlyph>
    <TTGlyph name="Ncommaaccent" xMin="59" yMin="-223" xMax="515" yMax="714">
      <component glyphName="N" x="0" y="0" flags="0x204"/>
      <component glyphName="commaaccent" x="167" y="0" flags="0x4"/>
    </TTGlyph>
    <TTGlyph name="Ntilde" xMin="59" yMin="0" xMax="515" yMax="896">
      <component glyphName="N" x="0" y="0" flags="0x204"/>
      <component glyphName="tilde" x="178" y="154" flags="0x4"/>
    </TTGlyph>
    <TTGlyph name="O" xMin="42" yMin="-14" xMax="514" yMax="728">
      <contour>
        <pt x="278" y="72" on="1"/>
        <pt x="303" y="72" on="0"/>
        <pt x="348" y="93" on="0"/>
        <pt x="381" y="155" on="0"/>
        <pt x="400" y="268" on="0"/>
        <pt x="400" y="360" on="1"/>
        <pt x="400" y="450" on="0"/>
        <pt x="381" y="561" on="0"/>
        <pt x="348" y="621" on="0"/>
        <pt x="303" y="642" on="0"/>
        <pt x="278" y="642" on="1"/>
        <pt x="252" y="642" on="0"/>
        <pt x="208" y="621" on="0"/>
        <pt x="175" y="561" on="0"/>
        <pt x="156" y="450" on="0"/>
        <pt x="156" y="360" on="1"/>
        <pt x="156" y="268" on="0"/>
        <pt x="175" y="155" on="0"/>
        <pt x="208" y="93" on="0"/>
        <pt x="252" y="72" on="0"/>
      </contour>
      <contour>
        <pt x="278" y="-14" on="1"/>
        <pt x="155" y="-14" on="0"/>
        <pt x="42" y="166" on="0"/>
        <pt x="42" y="357" on="1"/>
        <pt x="42" y="548" on="0"/>
        <pt x="155" y="728" on="0"/>
        <pt x="278" y="728" on="1"/>
        <pt x="401" y="728" on="0"/>
        <pt x="514" y="548" on="0"/>
        <pt x="514" y="357" on="1"/>
        <pt x="514" y="166" on="0"/>
        <pt x="401" y="-14" on="0"/>
      </contour>
    </TTGlyph>
    <TTGlyph name="OE" xMin="42" yMin="-14" xMax="762" yMax="728">
      <contour>
        <pt x="392" y="478" on="1"/>
        <pt x="392" y="529" on="0"/>
        <pt x="375" y="593" on="0"/>
        <pt x="347" y="629" on="0"/>
        <pt x="308" y="642" on="0"/>
        <pt x="286" y="642" on="1"/>
        <pt x="257" y="642" on="0"/>
        <pt x="210" y="621" on="0"/>
        <pt x="175" y="561" on="0"/>
        <pt x="156" y="450" on="0"/>
        <pt x="156" y="360" on="1"/>
        <pt x="156" y="268" on="0"/>
        <pt x="175" y="155" on="0"/>
        <pt x="208" y="93" on="0"/>
        <pt x="252" y="72" on="0"/>
        <pt x="278" y="72" on="1"/>
        <pt x="303" y="72" on="0"/>
        <pt x="345" y="85" on="0"/>
        <pt x="375" y="121" on="0"/>
        <pt x="392" y="185" on="0"/>
        <pt x="392" y="236" on="1"/>
      </contour>
      <contour>
        <pt x="400" y="51" on="1"/>
        <pt x="398" y="51" on="1"/>
        <pt x="377" y="17" on="0"/>
        <pt x="302" y="-14" on="0"/>
        <pt x="260" y="-14" on="1"/>
        <pt x="149" y="-14" on="0"/>
        <pt x="42" y="163" on="0"/>
        <pt x="42" y="357" on="1"/>
        <pt x="42" y="549" on="0"/>
        <pt x="151" y="728" on="0"/>
        <pt x="264" y="728" on="1"/>
        <pt x="361" y="728" on="0"/>
        <pt x="398" y="670" on="1"/>
        <pt x="400" y="670" on="1"/>
        <pt x="400" y="714" on="1"/>
        <pt x="754" y="714" on="1"/>
        <pt x="754" y="618" on="1"/>
        <pt x="500" y="618" on="1"/>
        <pt x="500" y="420" on="1"/>
        <pt x="738" y="420" on="1"/>
        <pt x="738" y="324" on="1"/>
        <pt x="500" y="324" on="1"/>
        <pt x="500" y="96" on="1"/>
        <pt x="762" y="96" on="1"/>
        <pt x="762" y="0" on="1"/>
        <pt x="400" y="0" on="1"/>
      </contour>
    </TTGlyph>
    <TTGlyph name="Oacute" xMin="42" yMin="-14" xMax="514" yMax="906">
      <component glyphName="O" x="0" y="0" flags="0x204"/>
      <component glyphName="acute" x="178" y="154" flags="0x4"/>
    </TTGlyph>
    <TTGlyph name="Obreve" xMin="42" yMin="-14" xMax="514" yMax="902">
      <component glyphName="O" x="0" y="0" flags="0x204"/>
      <component glyphName="breve" x="166" y="154" flags="0x4"/>
    </TTGlyph>
    <TTGlyph name="Ocircumflex" xMin="42" yMin="-14" xMax="514" yMax="906">
      <component glyphName="O" x="0" y="0" flags="0x204"/>
      <component glyphName="circumflex" x="168" y="154" flags="0x4"/>
    </TTGlyph>
    <TTGlyph name="Odieresis" xMin="42" yMin="-14" xMax="514" yMax="888">
      <component glyphName="O" x="0" y="0" flags="0x204"/>
      <component glyphName="dieresis" x="167" y="154" flags="0x4"/>
    </TTGlyph>
    <TTGlyph name="Ograve" xMin="42" yMin="-14" xMax="514" yMax="906">
      <component glyphName="O" x="0" y="0" flags="0x204"/>
      <component glyphName="grave" x="154" y="154" flags="0x4"/>
    </TTGlyph>
    <TTGlyph name="Ohungarumlaut" xMin="42" yMin="-14" xMax="525" yMax="906">
      <component glyphName="O" x="0" y="0" flags="0x204"/>
      <component glyphName="hungarumlaut" x="209" y="154" flags="0x4"/>
    </TTGlyph>
    <TTGlyph name="Omacron" xMin="42" yMin="-14" xMax="514" yMax="865">
      <component glyphName="O" x="0" y="0" flags="0x204"/>
      <component glyphName="macron" x="167" y="154" flags="0x4"/>
    </TTGlyph>
    <TTGlyph name="Omega" xMin="46" yMin="0" xMax="697" yMax="721">
      <contour>
        <pt x="428" y="0" on="1"/>
        <pt x="428" y="187" on="1"/>
        <pt x="468" y="195" on="0"/>
        <pt x="529" y="234" on="0"/>
        <pt x="569" y="291" on="0"/>
        <pt x="590" y="362" on="0"/>
        <pt x="590" y="402" on="1"/>
        <pt x="590" y="449" on="0"/>
        <pt x="558" y="531" on="0"/>
        <pt x="501" y="592" on="0"/>
        <pt x="421" y="627" on="0"/>
        <pt x="373" y="627" on="1"/>
        <pt x="325" y="627" on="0"/>
        <pt x="244" y="592" on="0"/>
        <pt x="185" y="531" on="0"/>
        <pt x="153" y="449" on="0"/>
        <pt x="153" y="401" on="1"/>
        <pt x="153" y="320" on="0"/>
        <pt x="234" y="205" on="0"/>
        <pt x="315" y="187" on="1"/>
        <pt x="315" y="0" on="1"/>
        <pt x="46" y="0" on="1"/>
        <pt x="46" y="86" on="1"/>
        <pt x="232" y="86" on="1"/>
        <pt x="232" y="139" on="1"/>
        <pt x="186" y="152" on="0"/>
        <pt x="117" y="204" on="0"/>
        <pt x="70" y="275" on="0"/>
        <pt x="46" y="361" on="0"/>
        <pt x="46" y="407" on="1"/>
        <pt x="46" y="476" on="0"/>
        <pt x="98" y="591" on="0"/>
        <pt x="187" y="674" on="0"/>
        <pt x="305" y="721" on="0"/>
        <pt x="372" y="721" on="1"/>
        <pt x="439" y="721" on="0"/>
        <pt x="558" y="676" on="0"/>
        <pt x="646" y="593" on="0"/>
        <pt x="697" y="479" on="0"/>
        <pt x="697" y="410" on="1"/>
        <pt x="697" y="364" on="0"/>
        <pt x="673" y="277" on="0"/>
        <pt x="627" y="204" on="0"/>
        <pt x="557" y="151" on="0"/>
        <pt x="511" y="139" on="1"/>
        <pt x="511" y="86" on="1"/>
        <pt x="697" y="86" on="1"/>
        <pt x="697" y="0" on="1"/>
      </contour>
    </TTGlyph>
    <TTGlyph name="Oslash" xMin="42" yMin="-52" xMax="514" yMax="765">
      <contour>
        <pt x="85" y="-28" on="1"/>
        <pt x="118" y="50" on="1"/>
        <pt x="79" y="95" on="0"/>
        <pt x="42" y="245" on="0"/>
        <pt x="42" y="357" on="1"/>
        <pt x="42" y="548" on="0"/>
        <pt x="155" y="728" on="0"/>
        <pt x="278" y="728" on="1"/>
        <pt x="347" y="728" on="0"/>
        <pt x="393" y="700" on="1"/>
        <pt x="420" y="765" on="1"/>
        <pt x="471" y="741" on="1"/>
        <pt x="438" y="664" on="1"/>
        <pt x="477" y="619" on="0"/>
        <pt x="514" y="469" on="0"/>
        <pt x="514" y="357" on="1"/>
        <pt x="514" y="166" on="0"/>
        <pt x="401" y="-14" on="0"/>
        <pt x="278" y="-14" on="1"/>
        <pt x="210" y="-14" on="0"/>
        <pt x="164" y="14" on="1"/>
        <pt x="136" y="-52" on="1"/>
      </contour>
      <contour>
        <pt x="354" y="607" on="1"/>
        <pt x="338" y="628" on="0"/>
        <pt x="300" y="642" on="0"/>
        <pt x="278" y="642" on="1"/>
        <pt x="252" y="642" on="0"/>
        <pt x="208" y="621" on="0"/>
        <pt x="175" y="561" on="0"/>
        <pt x="156" y="450" on="0"/>
        <pt x="156" y="360" on="1"/>
        <pt x="156" y="240" on="0"/>
        <pt x="172" y="179" on="1"/>
        <pt x="174" y="179" on="1"/>
      </contour>
      <contour>
        <pt x="203" y="107" on="1"/>
        <pt x="218" y="86" on="0"/>
        <pt x="256" y="72" on="0"/>
        <pt x="278" y="72" on="1"/>
        <pt x="303" y="72" on="0"/>
        <pt x="348" y="93" on="0"/>
        <pt x="381" y="155" on="0"/>
        <pt x="400" y="268" on="0"/>
        <pt x="400" y="360" on="1"/>
        <pt x="400" y="420" on="0"/>
        <pt x="392" y="506" on="0"/>
        <pt x="385" y="535" on="1"/>
        <pt x="383" y="535" on="1"/>
      </contour>
    </TTGlyph>
    <TTGlyph name="Otilde" xMin="42" yMin="-14" xMax="514" yMax="896">
      <component glyphName="O" x="0" y="0" flags="0x204"/>
      <component glyphName="tilde" x="168" y="154" flags="0x4"/>
    </TTGlyph>
    <TTGlyph name="P" xMin="59" yMin="0" xMax="482" yMax="714">
      <contour>
        <pt x="59" y="714" on="1"/>
        <pt x="285" y="714" on="1"/>
        <pt x="336" y="714" on="0"/>
        <pt x="411" y="683" on="0"/>
        <pt x="459" y="628" on="0"/>
        <pt x="482" y="552" on="0"/>
        <pt x="482" y="506" on="1"/>
        <pt x="482" y="410" on="0"/>
        <pt x="373" y="295" on="0"/>
        <pt x="273" y="295" on="1"/>
        <pt x="173" y="295" on="1"/>
        <pt x="173" y="0" on="1"/>
        <pt x="59" y="0" on="1"/>
      </contour>
      <contour>
        <pt x="173" y="381" on="1"/>
        <pt x="254" y="381" on="1"/>
        <pt x="277" y="381" on="0"/>
        <pt x="318" y="394" on="0"/>
        <pt x="350" y="423" on="0"/>
        <pt x="368" y="470" on="0"/>
        <pt x="368" y="504" on="1"/>
        <pt x="368" y="562" on="0"/>
        <pt x="314" y="628" on="0"/>
        <pt x="246" y="628" on="1"/>
        <pt x="173" y="628" on="1"/>
      </contour>
    </TTGlyph>
    <TTGlyph name="Q" xMin="42" yMin="-64" xMax="531" yMax="728">
      <contour>
        <pt x="330" y="197" on="1"/>
        <pt x="377" y="150" on="1"/>
        <pt x="400" y="224" on="0"/>
        <pt x="400" y="360" on="1"/>
        <pt x="400" y="450" on="0"/>
        <pt x="381" y="561" on="0"/>
        <pt x="348" y="621" on="0"/>
        <pt x="303" y="642" on="0"/>
        <pt x="278" y="642" on="1"/>
        <pt x="252" y="642" on="0"/>
        <pt x="208" y="621" on="0"/>
        <pt x="175" y="561" on="0"/>
        <pt x="156" y="450" on="0"/>
        <pt x="156" y="360" on="1"/>
        <pt x="156" y="268" on="0"/>
        <pt x="175" y="155" on="0"/>
        <pt x="208" y="93" on="0"/>
        <pt x="252" y="72" on="0"/>
        <pt x="278" y="72" on="1"/>
        <pt x="306" y="72" on="0"/>
        <pt x="319" y="79" on="1"/>
        <pt x="265" y="132" on="1"/>
      </contour>
      <contour>
        <pt x="390" y="10" on="1"/>
        <pt x="368" y="-3" on="0"/>
        <pt x="312" y="-14" on="0"/>
        <pt x="278" y="-14" on="1"/>
        <pt x="155" y="-14" on="0"/>
        <pt x="42" y="166" on="0"/>
        <pt x="42" y="357" on="1"/>
        <pt x="42" y="548" on="0"/>
        <pt x="155" y="728" on="0"/>
        <pt x="278" y="728" on="1"/>
        <pt x="401" y="728" on="0"/>
        <pt x="514" y="548" on="0"/>
        <pt x="514" y="357" on="1"/>
        <pt x="514" y="257" on="0"/>
        <pt x="482" y="113" on="0"/>
        <pt x="458" y="74" on="1"/>
        <pt x="531" y="-3" on="1"/>
        <pt x="463" y="-64" on="1"/>
      </contour>
    </TTGlyph>
    <TTGlyph name="R" xMin="59" yMin="0" xMax="523" yMax="714">
      <contour>
        <pt x="264" y="396" on="1"/>
        <pt x="319" y="396" on="0"/>
        <pt x="378" y="458" on="0"/>
        <pt x="378" y="512" on="1"/>
        <pt x="378" y="569" on="0"/>
        <pt x="327" y="628" on="0"/>
        <pt x="270" y="628" on="1"/>
        <pt x="173" y="628" on="1"/>
        <pt x="173" y="396" on="1"/>
      </contour>
      <contour>
        <pt x="59" y="714" on="1"/>
        <pt x="311" y="714" on="1"/>
        <pt x="348" y="714" on="0"/>
        <pt x="414" y="694" on="0"/>
        <pt x="464" y="650" on="0"/>
        <pt x="492" y="580" on="0"/>
        <pt x="492" y="530" on="1"/>
        <pt x="492" y="461" on="0"/>
        <pt x="433" y="364" on="0"/>
        <pt x="373" y="355" on="1"/>
        <pt x="373" y="353" on="1"/>
        <pt x="427" y="348" on="0"/>
        <pt x="482" y="282" on="0"/>
        <pt x="485" y="207" on="1"/>
        <pt x="486" y="172" on="0"/>
        <pt x="487" y="94" on="0"/>
        <pt x="489" y="62" on="1"/>
        <pt x="491" y="36" on="0"/>
        <pt x="512" y="8" on="0"/>
        <pt x="523" y="0" on="1"/>
        <pt x="394" y="0" on="1"/>
        <pt x="386" y="10" on="0"/>
        <pt x="377" y="42" on="0"/>
        <pt x="375" y="63" on="1"/>
        <pt x="372" y="94" on="0"/>
        <pt x="372" y="127" on="1"/>
        <pt x="372" y="143" on="0"/>
        <pt x="371" y="178" on="0"/>
        <pt x="370" y="198" on="1"/>
        <pt x="368" y="258" on="0"/>
        <pt x="324" y="310" on="0"/>
        <pt x="266" y="310" on="1"/>
        <pt x="173" y="310" on="1"/>
        <pt x="173" y="0" on="1"/>
        <pt x="59" y="0" on="1"/>
      </contour>
    </TTGlyph>
    <TTGlyph name="Racute" xMin="59" yMin="0" xMax="523" yMax="906">
      <component glyphName="R" x="0" y="0" flags="0x204"/>
      <component glyphName="acute" x="147" y="154" flags="0x4"/>
    </TTGlyph>
    <TTGlyph name="Rcaron" xMin="59" yMin="0" xMax="523" yMax="906">
      <component glyphName="R" x="0" y="0" flags="0x204"/>
      <component glyphName="caron" x="143" y="154" flags="0x4"/>
    </TTGlyph>
    <TTGlyph name="Rcommaaccent" xMin="59" yMin="-223" xMax="523" yMax="714">
      <component glyphName="R" x="0" y="0" flags="0x204"/>
      <component glyphName="commaaccent" x="153" y="0" flags="0x4"/>
    </TTGlyph>
    <TTGlyph name="S" xMin="33" yMin="-14" xMax="486" yMax="728">
      <contour>
        <pt x="147" y="221" on="1"/>
        <pt x="147" y="203" on="1"/>
        <pt x="147" y="72" on="0"/>
        <pt x="264" y="72" on="1"/>
        <pt x="291" y="72" on="0"/>
        <pt x="331" y="90" on="0"/>
        <pt x="358" y="119" on="0"/>
        <pt x="372" y="156" on="0"/>
        <pt x="372" y="176" on="1"/>
        <pt x="372" y="232" on="0"/>
        <pt x="318" y="289" on="0"/>
        <pt x="270" y="303" on="1"/>
        <pt x="192" y="330" on="1"/>
        <pt x="153" y="345" on="0"/>
        <pt x="97" y="381" on="0"/>
        <pt x="60" y="428" on="0"/>
        <pt x="43" y="488" on="0"/>
        <pt x="43" y="526" on="1"/>
        <pt x="43" y="575" on="0"/>
        <pt x="75" y="650" on="0"/>
        <pt x="133" y="701" on="0"/>
        <pt x="215" y="728" on="0"/>
        <pt x="265" y="728" on="1"/>
        <pt x="334" y="728" on="0"/>
        <pt x="414" y="690" on="0"/>
        <pt x="455" y="633" on="0"/>
        <pt x="467" y="568" on="0"/>
        <pt x="467" y="540" on="1"/>
        <pt x="467" y="524" on="1"/>
        <pt x="353" y="524" on="1"/>
        <pt x="353" y="539" on="1"/>
        <pt x="353" y="588" on="0"/>
        <pt x="307" y="642" on="0"/>
        <pt x="253" y="642" on="1"/>
        <pt x="235" y="642" on="0"/>
        <pt x="200" y="631" on="0"/>
        <pt x="173" y="607" on="0"/>
        <pt x="157" y="567" on="0"/>
        <pt x="157" y="539" on="1"/>
        <pt x="157" y="493" on="0"/>
        <pt x="207" y="440" on="0"/>
        <pt x="264" y="418" on="1"/>
        <pt x="341" y="390" on="1"/>
        <pt x="417" y="363" on="0"/>
        <pt x="486" y="275" on="0"/>
        <pt x="486" y="201" on="1"/>
        <pt x="486" y="144" on="0"/>
        <pt x="453" y="63" on="0"/>
        <pt x="391" y="10" on="0"/>
        <pt x="304" y="-14" on="0"/>
        <pt x="250" y="-14" on="1"/>
        <pt x="184" y="-14" on="0"/>
        <pt x="99" y="26" on="0"/>
        <pt x="51" y="89" on="0"/>
        <pt x="33" y="166" on="0"/>
        <pt x="33" y="204" on="1"/>
        <pt x="33" y="221" on="1"/>
      </contour>
    </TTGlyph>
    <TTGlyph name="Sacute" xMin="33" yMin="-14" xMax="486" yMax="906">
      <component glyphName="S" x="0" y="0" flags="0x204"/>
      <component glyphName="acute" x="169" y="154" flags="0x4"/>
    </TTGlyph>
    <TTGlyph name="Scaron" xMin="33" yMin="-14" xMax="486" yMax="906">
      <component glyphName="S" x="0" y="0" flags="0x204"/>
      <component glyphName="caron" x="158" y="154" flags="0x4"/>
    </TTGlyph>
    <TTGlyph name="Scedilla" xMin="33" yMin="-223" xMax="486" yMax="728">
      <contour>
        <pt x="147" y="221" on="1"/>
        <pt x="147" y="203" on="1"/>
        <pt x="147" y="72" on="0"/>
        <pt x="264" y="72" on="1"/>
        <pt x="291" y="72" on="0"/>
        <pt x="331" y="90" on="0"/>
        <pt x="358" y="119" on="0"/>
        <pt x="372" y="156" on="0"/>
        <pt x="372" y="176" on="1"/>
        <pt x="372" y="232" on="0"/>
        <pt x="318" y="289" on="0"/>
        <pt x="270" y="303" on="1"/>
        <pt x="192" y="330" on="1"/>
        <pt x="153" y="345" on="0"/>
        <pt x="97" y="381" on="0"/>
        <pt x="60" y="428" on="0"/>
        <pt x="43" y="488" on="0"/>
        <pt x="43" y="526" on="1"/>
        <pt x="43" y="575" on="0"/>
        <pt x="75" y="650" on="0"/>
        <pt x="133" y="701" on="0"/>
        <pt x="215" y="728" on="0"/>
        <pt x="265" y="728" on="1"/>
        <pt x="334" y="728" on="0"/>
        <pt x="414" y="690" on="0"/>
        <pt x="455" y="633" on="0"/>
        <pt x="467" y="568" on="0"/>
        <pt x="467" y="540" on="1"/>
        <pt x="467" y="524" on="1"/>
        <pt x="353" y="524" on="1"/>
        <pt x="353" y="539" on="1"/>
        <pt x="353" y="588" on="0"/>
        <pt x="307" y="642" on="0"/>
        <pt x="253" y="642" on="1"/>
        <pt x="235" y="642" on="0"/>
        <pt x="200" y="631" on="0"/>
        <pt x="173" y="607" on="0"/>
        <pt x="157" y="567" on="0"/>
        <pt x="157" y="539" on="1"/>
        <pt x="157" y="493" on="0"/>
        <pt x="207" y="440" on="0"/>
        <pt x="264" y="418" on="1"/>
        <pt x="341" y="390" on="1"/>
        <pt x="417" y="363" on="0"/>
        <pt x="486" y="275" on="0"/>
        <pt x="486" y="201" on="1"/>
        <pt x="486" y="116" on="0"/>
        <pt x="413" y="16" on="0"/>
        <pt x="347" y="-2" on="1"/>
        <pt x="309" y="-13" on="0"/>
        <pt x="266" y="-14" on="1"/>
        <pt x="234" y="-60" on="1"/>
        <pt x="245" y="-57" on="0"/>
        <pt x="264" y="-55" on="0"/>
        <pt x="274" y="-55" on="1"/>
        <pt x="308" y="-55" on="0"/>
        <pt x="352" y="-99" on="0"/>
        <pt x="352" y="-129" on="1"/>
        <pt x="352" y="-171" on="0"/>
        <pt x="286" y="-221" on="0"/>
        <pt x="235" y="-223" on="1"/>
        <pt x="201" y="-223" on="0"/>
        <pt x="152" y="-213" on="0"/>
        <pt x="134" y="-206" on="1"/>
        <pt x="150" y="-166" on="1"/>
        <pt x="180" y="-179" on="0"/>
        <pt x="219" y="-179" on="1"/>
        <pt x="243" y="-179" on="0"/>
        <pt x="272" y="-160" on="0"/>
        <pt x="272" y="-137" on="1"/>
        <pt x="272" y="-120" on="0"/>
        <pt x="245" y="-99" on="0"/>
        <pt x="226" y="-99" on="1"/>
        <pt x="215" y="-99" on="0"/>
        <pt x="197" y="-103" on="0"/>
        <pt x="188" y="-107" on="1"/>
        <pt x="170" y="-90" on="1"/>
        <pt x="218" y="-12" on="1"/>
        <pt x="173" y="-9" on="0"/>
        <pt x="141" y="6" on="1"/>
        <pt x="109" y="21" on="0"/>
        <pt x="67" y="65" on="0"/>
        <pt x="43" y="117" on="0"/>
        <pt x="33" y="175" on="0"/>
        <pt x="33" y="204" on="1"/>
        <pt x="33" y="221" on="1"/>
      </contour>
    </TTGlyph>
    <TTGlyph name="Scircumflex" xMin="33" yMin="-14" xMax="486" yMax="906">
      <component glyphName="S" x="0" y="0" flags="0x204"/>
      <component glyphName="circumflex" x="157" y="154" flags="0x4"/>
    </TTGlyph>
    <TTGlyph name="Scommaaccent" xMin="33" yMin="-223" xMax="486" yMax="728">
      <component glyphName="S" x="0" y="0" flags="0x204"/>
      <component glyphName="commaaccent" x="139" y="0" flags="0x4"/>
    </TTGlyph>
    <TTGlyph name="T" xMin="6" yMin="0" xMax="457" yMax="714">
      <contour>
        <pt x="176" y="618" on="1"/>
        <pt x="6" y="618" on="1"/>
        <pt x="6" y="714" on="1"/>
        <pt x="457" y="714" on="1"/>
        <pt x="457" y="618" on="1"/>
        <pt x="290" y="618" on="1"/>
        <pt x="290" y="0" on="1"/>
        <pt x="176" y="0" on="1"/>
      </contour>
    </TTGlyph>
    <TTGlyph name="Tbar" xMin="6" yMin="0" xMax="457" yMax="714">
      <contour>
        <pt x="176" y="618" on="1"/>
        <pt x="6" y="618" on="1"/>
        <pt x="6" y="714" on="1"/>
        <pt x="457" y="714" on="1"/>
        <pt x="457" y="618" on="1"/>
        <pt x="290" y="618" on="1"/>
        <pt x="290" y="468" on="1"/>
        <pt x="420" y="468" on="1"/>
        <pt x="420" y="416" on="1"/>
        <pt x="290" y="416" on="1"/>
        <pt x="290" y="0" on="1"/>
        <pt x="176" y="0" on="1"/>
        <pt x="176" y="416" on="1"/>
        <pt x="45" y="416" on="1"/>
        <pt x="45" y="468" on="1"/>
        <pt x="176" y="468" on="1"/>
      </contour>
    </TTGlyph>
    <TTGlyph name="Tcaron" xMin="6" yMin="0" xMax="457" yMax="906">
      <component glyphName="T" x="0" y="0" flags="0x204"/>
      <component glyphName="caron" x="122" y="154" flags="0x4"/>
    </TTGlyph>
    <TTGlyph name="Tcommaaccent" xMin="6" yMin="-223" xMax="457" yMax="714">
      <component glyphName="T" x="0" y="0" flags="0x204"/>
      <component glyphName="commaaccent" x="113" y="0" flags="0x4"/>
    </TTGlyph>
    <TTGlyph name="Thorn" xMin="59" yMin="0" xMax="482" yMax="714">
      <contour>
        <pt x="59" y="714" on="1"/>
        <pt x="173" y="714" on="1"/>
        <pt x="173" y="578" on="1"/>
        <pt x="285" y="578" on="1"/>
        <pt x="336" y="578" on="0"/>
        <pt x="411" y="547" on="0"/>
        <pt x="459" y="492" on="0"/>
        <pt x="482" y="416" on="0"/>
        <pt x="482" y="370" on="1"/>
        <pt x="482" y="274" on="0"/>
        <pt x="373" y="159" on="0"/>
        <pt x="273" y="159" on="1"/>
        <pt x="173" y="159" on="1"/>
        <pt x="173" y="0" on="1"/>
        <pt x="59" y="0" on="1"/>
      </contour>
      <contour>
        <pt x="173" y="245" on="1"/>
        <pt x="254" y="245" on="1"/>
        <pt x="277" y="245" on="0"/>
        <pt x="318" y="258" on="0"/>
        <pt x="350" y="287" on="0"/>
        <pt x="368" y="334" on="0"/>
        <pt x="368" y="368" on="1"/>
        <pt x="368" y="426" on="0"/>
        <pt x="314" y="492" on="0"/>
        <pt x="246" y="492" on="1"/>
        <pt x="173" y="492" on="1"/>
      </contour>
    </TTGlyph>
    <TTGlyph name="U" xMin="50" yMin="-14" xMax="487" yMax="714">
      <contour>
        <pt x="164" y="714" on="1"/>
        <pt x="164" y="202" on="1"/>
        <pt x="164" y="133" on="0"/>
        <pt x="217" y="72" on="0"/>
        <pt x="269" y="72" on="1"/>
        <pt x="320" y="72" on="0"/>
        <pt x="373" y="133" on="0"/>
        <pt x="373" y="202" on="1"/>
        <pt x="373" y="714" on="1"/>
        <pt x="487" y="714" on="1"/>
        <pt x="487" y="211" on="1"/>
        <pt x="487" y="149" on="0"/>
        <pt x="457" y="63" on="0"/>
        <pt x="401" y="10" on="0"/>
        <pt x="320" y="-14" on="0"/>
        <pt x="269" y="-14" on="1"/>
        <pt x="218" y="-14" on="0"/>
        <pt x="136" y="10" on="0"/>
        <pt x="80" y="63" on="0"/>
        <pt x="50" y="149" on="0"/>
        <pt x="50" y="211" on="1"/>
        <pt x="50" y="714" on="1"/>
      </contour>
    </TTGlyph>
    <TTGlyph name="Uacute" xMin="50" yMin="-14" xMax="487" yMax="906">
      <component glyphName="U" x="0" y="0" flags="0x204"/>
      <component glyphName="acute" x="171" y="154" flags="0x4"/>
    </TTGlyph>
    <TTGlyph name="Ubreve" xMin="50" yMin="-14" xMax="487" yMax="902">
      <component glyphName="U" x="0" y="0" flags="0x204"/>
      <component glyphName="breve" x="158" y="154" flags="0x4"/>
    </TTGlyph>
    <TTGlyph name="Ucircumflex" xMin="50" yMin="-14" xMax="487" yMax="906">
      <component glyphName="U" x="0" y="0" flags="0x204"/>
      <component glyphName="circumflex" x="160" y="154" flags="0x4"/>
    </TTGlyph>
    <TTGlyph name="Udieresis" xMin="50" yMin="-14" xMax="487" yMax="888">
      <component glyphName="U" x="0" y="0" flags="0x204"/>
      <component glyphName="dieresis" x="158" y="154" flags="0x4"/>
    </TTGlyph>
    <TTGlyph name="Ugrave" xMin="50" yMin="-14" xMax="487" yMax="906">
      <component glyphName="U" x="0" y="0" flags="0x204"/>
      <component glyphName="grave" x="144" y="154" flags="0x4"/>
    </TTGlyph>
    <TTGlyph name="Uhungarumlaut" xMin="50" yMin="-14" xMax="509" yMax="906">
      <component glyphName="U" x="0" y="0" flags="0x204"/>
      <component glyphName="hungarumlaut" x="193" y="154" flags="0x4"/>
    </TTGlyph>
    <TTGlyph name="Umacron" xMin="50" yMin="-14" xMax="487" yMax="865">
      <component glyphName="U" x="0" y="0" flags="0x204"/>
      <component glyphName="macron" x="158" y="154" flags="0x4"/>
    </TTGlyph>
    <TTGlyph name="Uogonek" xMin="50" yMin="-223" xMax="487" yMax="714">
      <contour>
        <pt x="164" y="714" on="1"/>
        <pt x="164" y="202" on="1"/>
        <pt x="164" y="133" on="0"/>
        <pt x="217" y="72" on="0"/>
        <pt x="269" y="72" on="1"/>
        <pt x="320" y="72" on="0"/>
        <pt x="373" y="133" on="0"/>
        <pt x="373" y="202" on="1"/>
        <pt x="373" y="714" on="1"/>
        <pt x="487" y="714" on="1"/>
        <pt x="487" y="211" on="1"/>
        <pt x="487" y="117" on="0"/>
        <pt x="421" y="16" on="0"/>
        <pt x="360" y="-2" on="1"/>
        <pt x="346" y="-6" on="0"/>
        <pt x="318" y="-11" on="0"/>
        <pt x="302" y="-13" on="1"/>
        <pt x="271" y="-44" on="0"/>
        <pt x="261" y="-64" on="1"/>
        <pt x="247" y="-94" on="0"/>
        <pt x="247" y="-120" on="1"/>
        <pt x="247" y="-148" on="0"/>
        <pt x="278" y="-177" on="0"/>
        <pt x="304" y="-177" on="1"/>
        <pt x="313" y="-177" on="0"/>
        <pt x="338" y="-173" on="0"/>
        <pt x="348" y="-170" on="1"/>
        <pt x="354" y="-212" on="1"/>
        <pt x="337" y="-217" on="0"/>
        <pt x="295" y="-223" on="0"/>
        <pt x="276" y="-223" on="1"/>
        <pt x="228" y="-223" on="0"/>
        <pt x="167" y="-180" on="0"/>
        <pt x="167" y="-132" on="1"/>
        <pt x="167" y="-93" on="0"/>
        <pt x="195" y="-59" on="1"/>
        <pt x="215" y="-33" on="0"/>
        <pt x="244" y="-13" on="1"/>
        <pt x="226" y="-12" on="0"/>
        <pt x="193" y="-7" on="0"/>
        <pt x="177" y="-2" on="1"/>
        <pt x="116" y="16" on="0"/>
        <pt x="50" y="117" on="0"/>
        <pt x="50" y="211" on="1"/>
        <pt x="50" y="714" on="1"/>
      </contour>
    </TTGlyph>
    <TTGlyph name="Uring" xMin="50" yMin="-14" xMax="487" yMax="950">
      <component glyphName="U" x="0" y="0" flags="0x204"/>
      <component glyphName="ring" x="160" y="150" flags="0x4"/>
    </TTGlyph>
    <TTGlyph name="Utilde" xMin="50" yMin="-14" xMax="487" yMax="896">
      <component glyphName="U" x="0" y="0" flags="0x204"/>
      <component glyphName="tilde" x="159" y="154" flags="0x4"/>
    </TTGlyph>
    <TTGlyph name="V" xMin="-6" yMin="0" xMax="487" yMax="714">
      <contour>
        <pt x="-6" y="714" on="1"/>
        <pt x="115" y="714" on="1"/>
        <pt x="236" y="144" on="1"/>
        <pt x="238" y="144" on="1"/>
        <pt x="366" y="714" on="1"/>
        <pt x="487" y="714" on="1"/>
        <pt x="307" y="0" on="1"/>
        <pt x="162" y="0" on="1"/>
      </contour>
    </TTGlyph>
    <TTGlyph name="W" xMin="6" yMin="0" xMax="735" yMax="714">
      <contour>
        <pt x="6" y="714" on="1"/>
        <pt x="121" y="714" on="1"/>
        <pt x="215" y="159" on="1"/>
        <pt x="217" y="159" on="1"/>
        <pt x="311" y="714" on="1"/>
        <pt x="431" y="714" on="1"/>
        <pt x="527" y="156" on="1"/>
        <pt x="529" y="156" on="1"/>
        <pt x="622" y="714" on="1"/>
        <pt x="735" y="714" on="1"/>
        <pt x="593" y="0" on="1"/>
        <pt x="461" y="0" on="1"/>
        <pt x="369" y="538" on="1"/>
        <pt x="367" y="538" on="1"/>
        <pt x="276" y="0" on="1"/>
        <pt x="144" y="0" on="1"/>
      </contour>
    </TTGlyph>
    <TTGlyph name="Wcircumflex" xMin="6" yMin="0" xMax="735" yMax="906">
      <component glyphName="W" x="0" y="0" flags="0x204"/>
      <component glyphName="circumflex" x="258" y="154" flags="0x4"/>
    </TTGlyph>
    <TTGlyph name="X" xMin="0" yMin="0" xMax="500" yMax="714">
      <contour>
        <pt x="188" y="363" on="1"/>
        <pt x="16" y="714" on="1"/>
        <pt x="142" y="714" on="1"/>
        <pt x="256" y="477" on="1"/>
        <pt x="368" y="714" on="1"/>
        <pt x="491" y="714" on="1"/>
        <pt x="318" y="363" on="1"/>
        <pt x="500" y="0" on="1"/>
        <pt x="374" y="0" on="1"/>
        <pt x="250" y="258" on="1"/>
        <pt x="123" y="0" on="1"/>
        <pt x="0" y="0" on="1"/>
      </contour>
    </TTGlyph>
    <TTGlyph name="Y" xMin="-4" yMin="0" xMax="485" yMax="714">
      <contour>
        <pt x="180" y="279" on="1"/>
        <pt x="-4" y="714" on="1"/>
        <pt x="123" y="714" on="1"/>
        <pt x="243" y="406" on="1"/>
        <pt x="366" y="714" on="1"/>
        <pt x="485" y="714" on="1"/>
        <pt x="294" y="279" on="1"/>
        <pt x="294" y="0" on="1"/>
        <pt x="180" y="0" on="1"/>
      </contour>
    </TTGlyph>
    <TTGlyph name="Yacute" xMin="-4" yMin="0" xMax="485" yMax="906">
      <component glyphName="Y" x="0" y="0" flags="0x204"/>
      <component glyphName="acute" x="148" y="154" flags="0x4"/>
    </TTGlyph>
    <TTGlyph name="Ycircumflex" xMin="-4" yMin="0" xMax="485" yMax="906">
      <component glyphName="Y" x="0" y="0" flags="0x204"/>
      <component glyphName="circumflex" x="135" y="154" flags="0x4"/>
    </TTGlyph>
    <TTGlyph name="Ydieresis" xMin="-4" yMin="0" xMax="485" yMax="888">
      <component glyphName="Y" x="0" y="0" flags="0x204"/>
      <component glyphName="dieresis" x="134" y="154" flags="0x4"/>
    </TTGlyph>
    <TTGlyph name="Z" xMin="18" yMin="0" xMax="445" yMax="714">
      <contour>
        <pt x="18" y="90" on="1"/>
        <pt x="317" y="618" on="1"/>
        <pt x="36" y="618" on="1"/>
        <pt x="36" y="714" on="1"/>
        <pt x="442" y="714" on="1"/>
        <pt x="442" y="618" on="1"/>
        <pt x="143" y="96" on="1"/>
        <pt x="445" y="96" on="1"/>
        <pt x="445" y="0" on="1"/>
        <pt x="18" y="0" on="1"/>
      </contour>
    </TTGlyph>
    <TTGlyph name="Zacute" xMin="18" yMin="0" xMax="445" yMax="906">
      <component glyphName="Z" x="0" y="0" flags="0x204"/>
      <component glyphName="acute" x="135" y="154" flags="0x4"/>
    </TTGlyph>
    <TTGlyph name="Zcaron" xMin="18" yMin="0" xMax="445" yMax="906">
      <component glyphName="Z" x="0" y="0" flags="0x204"/>
      <component glyphName="caron" x="130" y="154" flags="0x4"/>
    </TTGlyph>
    <TTGlyph name="Zdotaccent" xMin="18" yMin="0" xMax="445" yMax="888">
      <component glyphName="Z" x="0" y="0" flags="0x204"/>
      <component glyphName="dotaccent" x="128" y="154" flags="0x4"/>
    </TTGlyph>
    <TTGlyph name="a" xMin="31" yMin="-14" xMax="451" yMax="552">
      <contour>
        <pt x="303" y="284" on="1"/>
        <pt x="292" y="276" on="0"/>
        <pt x="261" y="263" on="0"/>
        <pt x="228" y="251" on="0"/>
        <pt x="195" y="240" on="0"/>
        <pt x="183" y="234" on="1"/>
        <pt x="160" y="223" on="0"/>
        <pt x="139" y="177" on="0"/>
        <pt x="139" y="147" on="1"/>
        <pt x="139" y="113" on="0"/>
        <pt x="172" y="66" on="0"/>
        <pt x="206" y="66" on="1"/>
        <pt x="255" y="66" on="0"/>
        <pt x="303" y="134" on="0"/>
        <pt x="303" y="194" on="1"/>
      </contour>
      <contour>
        <pt x="405" y="112" on="1"/>
        <pt x="405" y="97" on="0"/>
        <pt x="421" y="74" on="0"/>
        <pt x="433" y="74" on="1"/>
        <pt x="445" y="74" on="0"/>
        <pt x="451" y="77" on="1"/>
        <pt x="451" y="7" on="1"/>
        <pt x="441" y="2" on="0"/>
        <pt x="414" y="-6" on="0"/>
        <pt x="398" y="-6" on="1"/>
        <pt x="362" y="-6" on="0"/>
        <pt x="309" y="26" on="0"/>
        <pt x="307" y="65" on="1"/>
        <pt x="305" y="65" on="1"/>
        <pt x="283" y="25" on="0"/>
        <pt x="219" y="-14" on="0"/>
        <pt x="171" y="-14" on="1"/>
        <pt x="105" y="-14" on="0"/>
        <pt x="31" y="59" on="0"/>
        <pt x="31" y="137" on="1"/>
        <pt x="31" y="182" on="0"/>
        <pt x="50" y="239" on="0"/>
        <pt x="83" y="276" on="0"/>
        <pt x="129" y="297" on="0"/>
        <pt x="156" y="306" on="1"/>
        <pt x="240" y="329" on="1"/>
        <pt x="269" y="337" on="0"/>
        <pt x="303" y="363" on="0"/>
        <pt x="303" y="398" on="1"/>
        <pt x="303" y="435" on="0"/>
        <pt x="272" y="478" on="0"/>
        <pt x="229" y="478" on="1"/>
        <pt x="202" y="478" on="0"/>
        <pt x="170" y="460" on="0"/>
        <pt x="152" y="432" on="0"/>
        <pt x="147" y="394" on="0"/>
        <pt x="147" y="375" on="1"/>
        <pt x="45" y="375" on="1"/>
        <pt x="45" y="418" on="0"/>
        <pt x="64" y="484" on="0"/>
        <pt x="108" y="529" on="0"/>
        <pt x="181" y="552" on="0"/>
        <pt x="234" y="552" on="1"/>
        <pt x="270" y="552" on="0"/>
        <pt x="332" y="537" on="0"/>
        <pt x="378" y="506" on="0"/>
        <pt x="405" y="456" on="0"/>
        <pt x="405" y="420" on="1"/>
      </contour>
    </TTGlyph>
    <TTGlyph name="aacute" xMin="31" yMin="-14" xMax="451" yMax="752">
      <component glyphName="a" x="0" y="0" flags="0x204"/>
      <component glyphName="acute" x="131" y="0" flags="0x4"/>
    </TTGlyph>
    <TTGlyph name="abreve" xMin="31" yMin="-14" xMax="451" yMax="748">
      <component glyphName="a" x="0" y="0" flags="0x204"/>
      <component glyphName="breve" x="119" y="0" flags="0x4"/>
    </TTGlyph>
    <TTGlyph name="acircumflex" xMin="31" yMin="-14" xMax="451" yMax="752">
      <component glyphName="a" x="0" y="0" flags="0x204"/>
      <component glyphName="circumflex" x="120" y="0" flags="0x4"/>
    </TTGlyph>
    <TTGlyph name="acute" xMin="56" yMin="608" xMax="236" yMax="752">
      <contour>
        <pt x="116" y="752" on="1"/>
        <pt x="236" y="752" on="1"/>
        <pt x="130" y="608" on="1"/>
        <pt x="56" y="608" on="1"/>
      </contour>
    </TTGlyph>
    <TTGlyph name="acute.cap" xMin="56" yMin="608" xMax="236" yMax="752">
      <contour>
        <pt x="116" y="752" on="1"/>
        <pt x="236" y="752" on="1"/>
        <pt x="130" y="608" on="1"/>
        <pt x="56" y="608" on="1"/>
      </contour>
    </TTGlyph>
    <TTGlyph name="adieresis" xMin="31" yMin="-14" xMax="451" yMax="734">
      <component glyphName="a" x="0" y="0" flags="0x204"/>
      <component glyphName="dieresis" x="118" y="0" flags="0x4"/>
    </TTGlyph>
    <TTGlyph name="ae" xMin="31" yMin="-14" xMax="667" yMax="552">
      <contour>
        <pt x="296" y="276" on="1"/>
        <pt x="292" y="271" on="0"/>
        <pt x="274" y="262" on="0"/>
        <pt x="252" y="254" on="0"/>
        <pt x="228" y="247" on="0"/>
        <pt x="218" y="244" on="1"/>
        <pt x="191" y="236" on="0"/>
        <pt x="159" y="215" on="0"/>
        <pt x="143" y="189" on="0"/>
        <pt x="139" y="159" on="0"/>
        <pt x="139" y="141" on="1"/>
        <pt x="139" y="112" on="0"/>
        <pt x="172" y="66" on="0"/>
        <pt x="202" y="66" on="1"/>
        <pt x="251" y="66" on="0"/>
        <pt x="296" y="128" on="0"/>
        <pt x="296" y="191" on="1"/>
      </contour>
      <contour>
        <pt x="398" y="255" on="1"/>
        <pt x="398" y="217" on="1"/>
        <pt x="398" y="187" on="0"/>
        <pt x="405" y="132" on="0"/>
        <pt x="422" y="88" on="0"/>
        <pt x="453" y="61" on="0"/>
        <pt x="477" y="60" on="1"/>
        <pt x="506" y="60" on="0"/>
        <pt x="540" y="88" on="0"/>
        <pt x="558" y="127" on="0"/>
        <pt x="563" y="168" on="0"/>
        <pt x="563" y="180" on="1"/>
        <pt x="665" y="180" on="1"/>
        <pt x="665" y="89" on="0"/>
        <pt x="564" y="-14" on="0"/>
        <pt x="476" y="-14" on="1"/>
        <pt x="436" y="-13" on="0"/>
        <pt x="384" y="9" on="0"/>
        <pt x="351" y="39" on="0"/>
        <pt x="334" y="72" on="0"/>
        <pt x="329" y="84" on="1"/>
        <pt x="309" y="36" on="0"/>
        <pt x="232" y="-14" on="0"/>
        <pt x="184" y="-14" on="1"/>
        <pt x="154" y="-14" on="0"/>
        <pt x="99" y="3" on="0"/>
        <pt x="56" y="40" on="0"/>
        <pt x="31" y="97" on="0"/>
        <pt x="31" y="137" on="1"/>
        <pt x="31" y="180" on="0"/>
        <pt x="51" y="236" on="0"/>
        <pt x="87" y="273" on="0"/>
        <pt x="135" y="294" on="0"/>
        <pt x="164" y="302" on="1"/>
        <pt x="249" y="324" on="1"/>
        <pt x="275" y="331" on="0"/>
        <pt x="295" y="359" on="0"/>
        <pt x="295" y="398" on="1"/>
        <pt x="295" y="435" on="0"/>
        <pt x="266" y="478" on="0"/>
        <pt x="229" y="478" on="1"/>
        <pt x="202" y="478" on="0"/>
        <pt x="170" y="460" on="0"/>
        <pt x="152" y="432" on="0"/>
        <pt x="147" y="394" on="0"/>
        <pt x="147" y="375" on="1"/>
        <pt x="45" y="375" on="1"/>
        <pt x="45" y="418" on="0"/>
        <pt x="64" y="484" on="0"/>
        <pt x="108" y="529" on="0"/>
        <pt x="181" y="552" on="0"/>
        <pt x="234" y="552" on="1"/>
        <pt x="267" y="552" on="0"/>
        <pt x="313" y="536" on="0"/>
        <pt x="342" y="514" on="0"/>
        <pt x="357" y="490" on="0"/>
        <pt x="360" y="483" on="1"/>
        <pt x="380" y="516" on="0"/>
        <pt x="449" y="551" on="0"/>
        <pt x="492" y="552" on="1"/>
        <pt x="543" y="552" on="0"/>
        <pt x="610" y="519" on="0"/>
        <pt x="650" y="457" on="0"/>
        <pt x="667" y="368" on="0"/>
        <pt x="667" y="312" on="1"/>
        <pt x="667" y="255" on="1"/>
      </contour>
      <contour>
        <pt x="559" y="329" on="1"/>
        <pt x="559" y="358" on="1"/>
        <pt x="559" y="409" on="0"/>
        <pt x="524" y="478" on="0"/>
        <pt x="481" y="478" on="1"/>
        <pt x="457" y="478" on="0"/>
        <pt x="425" y="451" on="0"/>
        <pt x="406" y="412" on="0"/>
        <pt x="399" y="368" on="0"/>
        <pt x="399" y="352" on="1"/>
        <pt x="399" y="329" on="1"/>
      </contour>
    </TTGlyph>
    <TTGlyph name="afii61289" xMin="45" yMin="-14" xMax="434" yMax="721">
      <contour>
        <pt x="434" y="46" on="1"/>
        <pt x="366" y="-14" on="0"/>
        <pt x="285" y="-14" on="1"/>
        <pt x="219" y="-14" on="0"/>
        <pt x="141" y="59" on="0"/>
        <pt x="141" y="123" on="1"/>
        <pt x="141" y="203" on="1"/>
        <pt x="84" y="148" on="1"/>
        <pt x="82" y="148" on="1"/>
        <pt x="45" y="202" on="1"/>
        <pt x="140" y="287" on="1"/>
        <pt x="140" y="536" on="1"/>
        <pt x="140" y="578" on="0"/>
        <pt x="163" y="646" on="0"/>
        <pt x="204" y="694" on="0"/>
        <pt x="260" y="721" on="0"/>
        <pt x="293" y="721" on="1"/>
        <pt x="351" y="721" on="0"/>
        <pt x="421" y="647" on="0"/>
        <pt x="421" y="583" on="1"/>
        <pt x="421" y="508" on="0"/>
        <pt x="332" y="355" on="0"/>
        <pt x="241" y="270" on="1"/>
        <pt x="241" y="139" on="1"/>
        <pt x="241" y="116" on="0"/>
        <pt x="253" y="86" on="0"/>
        <pt x="273" y="68" on="0"/>
        <pt x="297" y="61" on="0"/>
        <pt x="309" y="61" on="1"/>
        <pt x="329" y="61" on="0"/>
        <pt x="374" y="79" on="0"/>
        <pt x="397" y="99" on="1"/>
        <pt x="399" y="99" on="1"/>
      </contour>
      <contour>
        <pt x="339" y="576" on="1"/>
        <pt x="339" y="609" on="0"/>
        <pt x="312" y="653" on="0"/>
        <pt x="292" y="653" on="1"/>
        <pt x="272" y="653" on="0"/>
        <pt x="241" y="603" on="0"/>
        <pt x="241" y="554" on="1"/>
        <pt x="241" y="357" on="1"/>
        <pt x="290" y="412" on="0"/>
        <pt x="339" y="525" on="0"/>
      </contour>
    </TTGlyph>
    <TTGlyph name="agrave" xMin="31" yMin="-14" xMax="451" yMax="752">
      <component glyphName="a" x="0" y="0" flags="0x204"/>
      <component glyphName="grave" x="126" y="0" flags="0x4"/>
    </TTGlyph>
    <TTGlyph name="amacron" xMin="31" yMin="-14" xMax="451" yMax="711">
      <component glyphName="a" x="0" y="0" flags="0x204"/>
      <component glyphName="macron" x="123" y="0" flags="0x4"/>
    </TTGlyph>
    <TTGlyph name="ampersand" xMin="21" yMin="-14" xMax="575" yMax="714">
      <contour>
        <pt x="195" y="318" on="1"/>
        <pt x="164" y="293" on="0"/>
        <pt x="129" y="231" on="0"/>
        <pt x="129" y="191" on="1"/>
        <pt x="129" y="167" on="0"/>
        <pt x="148" y="125" on="0"/>
        <pt x="181" y="95" on="0"/>
        <pt x="225" y="77" on="0"/>
        <pt x="250" y="77" on="1"/>
        <pt x="286" y="77" on="0"/>
        <pt x="341" y="110" on="0"/>
        <pt x="361" y="132" on="1"/>
        <pt x="216" y="336" on="1"/>
      </contour>
      <contour>
        <pt x="272" y="481" on="1"/>
        <pt x="291" y="499" on="0"/>
        <pt x="324" y="544" on="0"/>
        <pt x="324" y="573" on="1"/>
        <pt x="324" y="605" on="0"/>
        <pt x="288" y="640" on="0"/>
        <pt x="256" y="640" on="1"/>
        <pt x="245" y="640" on="0"/>
        <pt x="221" y="634" on="0"/>
        <pt x="202" y="619" on="0"/>
        <pt x="189" y="596" on="0"/>
        <pt x="189" y="578" on="1"/>
        <pt x="189" y="551" on="0"/>
        <pt x="216" y="499" on="0"/>
        <pt x="231" y="479" on="1"/>
        <pt x="247" y="458" on="1"/>
      </contour>
      <contour>
        <pt x="421" y="216" on="1"/>
        <pt x="434" y="237" on="0"/>
        <pt x="449" y="296" on="0"/>
        <pt x="449" y="325" on="1"/>
        <pt x="449" y="339" on="1"/>
        <pt x="539" y="339" on="1"/>
        <pt x="539" y="330" on="1"/>
        <pt x="539" y="315" on="0"/>
        <pt x="533" y="270" on="0"/>
        <pt x="520" y="218" on="0"/>
        <pt x="496" y="162" on="0"/>
        <pt x="478" y="136" on="1"/>
        <pt x="575" y="0" on="1"/>
        <pt x="454" y="0" on="1"/>
        <pt x="411" y="61" on="1"/>
        <pt x="376" y="29" on="0"/>
        <pt x="292" y="-14" on="0"/>
        <pt x="231" y="-14" on="1"/>
        <pt x="169" y="-14" on="0"/>
        <pt x="88" y="26" on="0"/>
        <pt x="40" y="86" on="0"/>
        <pt x="21" y="154" on="0"/>
        <pt x="21" y="183" on="1"/>
        <pt x="21" y="243" on="0"/>
        <pt x="75" y="335" on="0"/>
        <pt x="121" y="370" on="1"/>
        <pt x="166" y="404" on="1"/>
        <pt x="139" y="444" on="1"/>
        <pt x="120" y="473" on="0"/>
        <pt x="93" y="532" on="0"/>
        <pt x="93" y="561" on="1"/>
        <pt x="93" y="599" on="0"/>
        <pt x="119" y="657" on="0"/>
        <pt x="165" y="695" on="0"/>
        <pt x="227" y="714" on="0"/>
        <pt x="263" y="714" on="1"/>
        <pt x="283" y="714" on="0"/>
        <pt x="337" y="702" on="0"/>
        <pt x="386" y="670" on="0"/>
        <pt x="420" y="614" on="0"/>
        <pt x="420" y="569" on="1"/>
        <pt x="420" y="518" on="0"/>
        <pt x="371" y="448" on="0"/>
        <pt x="333" y="419" on="1"/>
        <pt x="296" y="392" on="1"/>
      </contour>
    </TTGlyph>
    <TTGlyph name="aogonek" xMin="31" yMin="-223" xMax="451" yMax="552">
      <contour>
        <pt x="405" y="112" on="1"/>
        <pt x="405" y="97" on="0"/>
        <pt x="421" y="74" on="0"/>
        <pt x="433" y="74" on="1"/>
        <pt x="445" y="74" on="0"/>
        <pt x="451" y="77" on="1"/>
        <pt x="451" y="7" on="1"/>
        <pt x="440" y="2" on="0"/>
        <pt x="427" y="-2" on="1"/>
        <pt x="423" y="-3" on="0"/>
        <pt x="412" y="-5" on="0"/>
        <pt x="405" y="-6" on="1"/>
        <pt x="369" y="-44" on="0"/>
        <pt x="358" y="-64" on="1"/>
        <pt x="344" y="-94" on="0"/>
        <pt x="344" y="-120" on="1"/>
        <pt x="344" y="-148" on="0"/>
        <pt x="375" y="-177" on="0"/>
        <pt x="401" y="-177" on="1"/>
        <pt x="410" y="-177" on="0"/>
        <pt x="435" y="-173" on="0"/>
        <pt x="445" y="-170" on="1"/>
        <pt x="451" y="-212" on="1"/>
        <pt x="434" y="-217" on="0"/>
        <pt x="392" y="-223" on="0"/>
        <pt x="373" y="-223" on="1"/>
        <pt x="325" y="-223" on="0"/>
        <pt x="264" y="-180" on="0"/>
        <pt x="264" y="-132" on="1"/>
        <pt x="264" y="-93" on="0"/>
        <pt x="292" y="-59" on="1"/>
        <pt x="321" y="-23" on="0"/>
        <pt x="360" y="-1" on="1"/>
        <pt x="353" y="1" on="0"/>
        <pt x="341" y="6" on="0"/>
        <pt x="335" y="10" on="1"/>
        <pt x="309" y="26" on="0"/>
        <pt x="307" y="65" on="1"/>
        <pt x="305" y="65" on="1"/>
        <pt x="283" y="25" on="0"/>
        <pt x="219" y="-14" on="0"/>
        <pt x="171" y="-14" on="1"/>
        <pt x="105" y="-14" on="0"/>
        <pt x="31" y="59" on="0"/>
        <pt x="31" y="137" on="1"/>
        <pt x="31" y="182" on="0"/>
        <pt x="50" y="239" on="0"/>
        <pt x="83" y="276" on="0"/>
        <pt x="129" y="297" on="0"/>
        <pt x="156" y="306" on="1"/>
        <pt x="240" y="329" on="1"/>
        <pt x="269" y="337" on="0"/>
        <pt x="303" y="363" on="0"/>
        <pt x="303" y="398" on="1"/>
        <pt x="303" y="435" on="0"/>
        <pt x="272" y="478" on="0"/>
        <pt x="229" y="478" on="1"/>
        <pt x="202" y="478" on="0"/>
        <pt x="170" y="460" on="0"/>
        <pt x="152" y="432" on="0"/>
        <pt x="147" y="394" on="0"/>
        <pt x="147" y="375" on="1"/>
        <pt x="45" y="375" on="1"/>
        <pt x="45" y="418" on="0"/>
        <pt x="64" y="484" on="0"/>
        <pt x="108" y="529" on="0"/>
        <pt x="181" y="552" on="0"/>
        <pt x="234" y="552" on="1"/>
        <pt x="270" y="552" on="0"/>
        <pt x="332" y="537" on="0"/>
        <pt x="378" y="506" on="0"/>
        <pt x="405" y="456" on="0"/>
        <pt x="405" y="420" on="1"/>
      </contour>
      <contour>
        <pt x="303" y="284" on="1"/>
        <pt x="292" y="276" on="0"/>
        <pt x="261" y="263" on="0"/>
        <pt x="228" y="251" on="0"/>
        <pt x="195" y="240" on="0"/>
        <pt x="183" y="234" on="1"/>
        <pt x="160" y="223" on="0"/>
        <pt x="139" y="177" on="0"/>
        <pt x="139" y="147" on="1"/>
        <pt x="139" y="113" on="0"/>
        <pt x="172" y="66" on="0"/>
        <pt x="206" y="66" on="1"/>
        <pt x="255" y="66" on="0"/>
        <pt x="303" y="134" on="0"/>
        <pt x="303" y="194" on="1"/>
      </contour>
    </TTGlyph>
    <TTGlyph name="approxequal" xMin="28" yMin="76" xMax="564" yMax="438">
      <contour>
        <pt x="563" y="240" on="1"/>
        <pt x="560" y="209" on="0"/>
        <pt x="541" y="150" on="0"/>
        <pt x="507" y="105" on="0"/>
        <pt x="456" y="77" on="0"/>
        <pt x="420" y="77" on="1"/>
        <pt x="390" y="77" on="0"/>
        <pt x="318" y="99" on="0"/>
        <pt x="247" y="124" on="0"/>
        <pt x="183" y="146" on="0"/>
        <pt x="160" y="146" on="1"/>
        <pt x="131" y="146" on="0"/>
        <pt x="97" y="102" on="0"/>
        <pt x="93" y="76" on="1"/>
        <pt x="28" y="76" on="1"/>
        <pt x="31" y="106" on="0"/>
        <pt x="50" y="165" on="0"/>
        <pt x="84" y="211" on="0"/>
        <pt x="134" y="240" on="0"/>
        <pt x="169" y="240" on="1"/>
        <pt x="200" y="240" on="0"/>
        <pt x="268" y="219" on="0"/>
        <pt x="337" y="193" on="0"/>
        <pt x="403" y="172" on="0"/>
        <pt x="432" y="172" on="1"/>
        <pt x="463" y="172" on="0"/>
        <pt x="493" y="213" on="0"/>
        <pt x="498" y="240" on="1"/>
      </contour>
      <contour>
        <pt x="564" y="438" on="1"/>
        <pt x="561" y="407" on="0"/>
        <pt x="542" y="348" on="0"/>
        <pt x="508" y="303" on="0"/>
        <pt x="457" y="275" on="0"/>
        <pt x="422" y="275" on="1"/>
        <pt x="392" y="275" on="0"/>
        <pt x="319" y="297" on="0"/>
        <pt x="248" y="323" on="0"/>
        <pt x="184" y="345" on="0"/>
        <pt x="162" y="345" on="1"/>
        <pt x="133" y="345" on="0"/>
        <pt x="99" y="300" on="0"/>
        <pt x="95" y="274" on="1"/>
        <pt x="30" y="274" on="1"/>
        <pt x="33" y="304" on="0"/>
        <pt x="51" y="363" on="0"/>
        <pt x="85" y="409" on="0"/>
        <pt x="135" y="438" on="0"/>
        <pt x="170" y="438" on="1"/>
        <pt x="202" y="438" on="0"/>
        <pt x="270" y="417" on="0"/>
        <pt x="338" y="392" on="0"/>
        <pt x="404" y="371" on="0"/>
        <pt x="434" y="371" on="1"/>
        <pt x="464" y="371" on="0"/>
        <pt x="495" y="411" on="0"/>
        <pt x="500" y="438" on="1"/>
      </contour>
    </TTGlyph>
    <TTGlyph name="aring" xMin="31" yMin="-14" xMax="451" yMax="800">
      <component glyphName="a" x="0" y="0" flags="0x204"/>
      <component glyphName="ring" x="118" y="0" flags="0x4"/>
    </TTGlyph>
    <TTGlyph name="asciicircum" xMin="57" yMin="280" xMax="543" yMax="694">
      <contour>
        <pt x="300" y="608" on="1"/>
        <pt x="143" y="280" on="1"/>
        <pt x="57" y="280" on="1"/>
        <pt x="261" y="694" on="1"/>
        <pt x="337" y="694" on="1"/>
        <pt x="543" y="280" on="1"/>
        <pt x="457" y="280" on="1"/>
      </contour>
    </TTGlyph>
    <TTGlyph name="asciitilde" xMin="69" yMin="169" xMax="531" yMax="337">
      <contour>
        <pt x="69" y="245" on="1"/>
        <pt x="91" y="288" on="0"/>
        <pt x="158" y="332" on="0"/>
        <pt x="194" y="332" on="1"/>
        <pt x="223" y="332" on="0"/>
        <pt x="282" y="309" on="0"/>
        <pt x="310" y="295" on="1"/>
        <pt x="339" y="281" on="0"/>
        <pt x="389" y="260" on="0"/>
        <pt x="407" y="260" on="1"/>
        <pt x="451" y="260" on="0"/>
        <pt x="495" y="337" on="1"/>
        <pt x="531" y="261" on="1"/>
        <pt x="508" y="221" on="0"/>
        <pt x="442" y="174" on="0"/>
        <pt x="406" y="174" on="1"/>
        <pt x="377" y="174" on="0"/>
        <pt x="318" y="197" on="0"/>
        <pt x="290" y="211" on="1"/>
        <pt x="261" y="225" on="0"/>
        <pt x="211" y="246" on="0"/>
        <pt x="193" y="246" on="1"/>
        <pt x="149" y="246" on="0"/>
        <pt x="105" y="169" on="1"/>
      </contour>
    </TTGlyph>
    <TTGlyph name="asterisk" xMin="16" yMin="388" xMax="354" yMax="714">
      <contour>
        <pt x="220" y="714" on="1"/>
        <pt x="220" y="590" on="1"/>
        <pt x="331" y="633" on="1"/>
        <pt x="354" y="567" on="1"/>
        <pt x="240" y="534" on="1"/>
        <pt x="318" y="431" on="1"/>
        <pt x="262" y="388" on="1"/>
        <pt x="186" y="493" on="1"/>
        <pt x="112" y="388" on="1"/>
        <pt x="56" y="431" on="1"/>
        <pt x="132" y="534" on="1"/>
        <pt x="16" y="567" on="1"/>
        <pt x="39" y="633" on="1"/>
        <pt x="152" y="589" on="1"/>
        <pt x="152" y="714" on="1"/>
      </contour>
    </TTGlyph>
    <TTGlyph name="at" xMin="29" yMin="-14" xMax="771" yMax="728">
      <contour>
        <pt x="610" y="549" on="1"/>
        <pt x="535" y="279" on="1"/>
        <pt x="532" y="267" on="0"/>
        <pt x="524" y="241" on="0"/>
        <pt x="524" y="230" on="1"/>
        <pt x="524" y="219" on="0"/>
        <pt x="537" y="208" on="0"/>
        <pt x="557" y="208" on="1"/>
        <pt x="578" y="208" on="0"/>
        <pt x="622" y="240" on="0"/>
        <pt x="657" y="295" on="0"/>
        <pt x="680" y="368" on="0"/>
        <pt x="680" y="410" on="1"/>
        <pt x="680" y="463" on="0"/>
        <pt x="637" y="551" on="0"/>
        <pt x="564" y="614" on="0"/>
        <pt x="468" y="648" on="0"/>
        <pt x="416" y="648" on="1"/>
        <pt x="351" y="648" on="0"/>
        <pt x="242" y="600" on="0"/>
        <pt x="164" y="519" on="0"/>
        <pt x="120" y="412" on="0"/>
        <pt x="120" y="354" on="1"/>
        <pt x="120" y="288" on="0"/>
        <pt x="167" y="182" on="0"/>
        <pt x="246" y="107" on="0"/>
        <pt x="351" y="66" on="0"/>
        <pt x="408" y="66" on="1"/>
        <pt x="489" y="66" on="0"/>
        <pt x="613" y="112" on="0"/>
        <pt x="655" y="154" on="1"/>
        <pt x="739" y="154" on="1"/>
        <pt x="719" y="118" on="0"/>
        <pt x="656" y="56" on="0"/>
        <pt x="573" y="11" on="0"/>
        <pt x="469" y="-14" on="0"/>
        <pt x="408" y="-14" on="1"/>
        <pt x="328" y="-14" on="0"/>
        <pt x="190" y="36" on="0"/>
        <pt x="88" y="132" on="0"/>
        <pt x="29" y="270" on="0"/>
        <pt x="29" y="358" on="1"/>
        <pt x="29" y="436" on="0"/>
        <pt x="85" y="571" on="0"/>
        <pt x="186" y="671" on="0"/>
        <pt x="329" y="728" on="0"/>
        <pt x="416" y="728" on="1"/>
        <pt x="492" y="728" on="0"/>
        <pt x="622" y="684" on="0"/>
        <pt x="717" y="603" on="0"/>
        <pt x="771" y="491" on="0"/>
        <pt x="771" y="423" on="1"/>
        <pt x="771" y="348" on="0"/>
        <pt x="719" y="240" on="0"/>
        <pt x="642" y="170" on="0"/>
        <pt x="553" y="137" on="0"/>
        <pt x="517" y="137" on="1"/>
        <pt x="479" y="137" on="0"/>
        <pt x="446" y="170" on="0"/>
        <pt x="447" y="196" on="1"/>
        <pt x="445" y="196" on="1"/>
        <pt x="424" y="173" on="0"/>
        <pt x="361" y="137" on="0"/>
        <pt x="321" y="137" on="1"/>
        <pt x="292" y="137" on="0"/>
        <pt x="241" y="160" on="0"/>
        <pt x="204" y="202" on="0"/>
        <pt x="182" y="262" on="0"/>
        <pt x="182" y="299" on="1"/>
        <pt x="182" y="352" on="0"/>
        <pt x="219" y="449" on="0"/>
        <pt x="281" y="523" on="0"/>
        <pt x="361" y="567" on="0"/>
        <pt x="405" y="567" on="1"/>
        <pt x="442" y="567" on="0"/>
        <pt x="500" y="530" on="0"/>
        <pt x="520" y="490" on="1"/>
        <pt x="539" y="549" on="1"/>
      </contour>
      <contour>
        <pt x="490" y="397" on="1"/>
        <pt x="490" y="448" on="0"/>
        <pt x="447" y="493" on="0"/>
        <pt x="409" y="493" on="1"/>
        <pt x="378" y="493" on="0"/>
        <pt x="326" y="459" on="0"/>
        <pt x="289" y="406" on="0"/>
        <pt x="268" y="342" on="0"/>
        <pt x="268" y="312" on="1"/>
        <pt x="268" y="266" on="0"/>
        <pt x="313" y="211" on="0"/>
        <pt x="361" y="211" on="1"/>
        <pt x="387" y="211" on="0"/>
        <pt x="434" y="249" on="0"/>
        <pt x="469" y="305" on="0"/>
        <pt x="490" y="370" on="0"/>
      </contour>
    </TTGlyph>
    <TTGlyph name="atilde" xMin="31" yMin="-14" xMax="451" yMax="742">
      <component glyphName="a" x="0" y="0" flags="0x204"/>
      <component glyphName="tilde" x="118" y="0" flags="0x4"/>
    </TTGlyph>
    <TTGlyph name="b" xMin="52" yMin="-14" xMax="450" yMax="714">
      <contour>
        <pt x="154" y="263" on="1"/>
        <pt x="154" y="219" on="0"/>
        <pt x="162" y="149" on="0"/>
        <pt x="182" y="99" on="0"/>
        <pt x="217" y="72" on="0"/>
        <pt x="245" y="72" on="1"/>
        <pt x="273" y="72" on="0"/>
        <pt x="309" y="100" on="0"/>
        <pt x="329" y="152" on="0"/>
        <pt x="336" y="225" on="0"/>
        <pt x="336" y="271" on="1"/>
        <pt x="336" y="325" on="0"/>
        <pt x="327" y="400" on="0"/>
        <pt x="307" y="446" on="0"/>
        <pt x="275" y="466" on="0"/>
        <pt x="252" y="466" on="1"/>
        <pt x="220" y="466" on="0"/>
        <pt x="182" y="439" on="0"/>
        <pt x="161" y="387" on="0"/>
        <pt x="154" y="311" on="0"/>
      </contour>
      <contour>
        <pt x="52" y="714" on="1"/>
        <pt x="160" y="714" on="1"/>
        <pt x="160" y="475" on="1"/>
        <pt x="162" y="475" on="1"/>
        <pt x="177" y="511" on="0"/>
        <pt x="239" y="552" on="0"/>
        <pt x="284" y="552" on="1"/>
        <pt x="315" y="552" on="0"/>
        <pt x="374" y="533" on="0"/>
        <pt x="421" y="474" on="0"/>
        <pt x="450" y="366" on="0"/>
        <pt x="450" y="276" on="1"/>
        <pt x="450" y="137" on="0"/>
        <pt x="368" y="-14" on="0"/>
        <pt x="274" y="-14" on="1"/>
        <pt x="245" y="-14" on="0"/>
        <pt x="205" y="1" on="0"/>
        <pt x="178" y="25" on="0"/>
        <pt x="161" y="53" on="0"/>
        <pt x="156" y="66" on="1"/>
        <pt x="154" y="66" on="1"/>
        <pt x="154" y="0" on="1"/>
        <pt x="52" y="0" on="1"/>
      </contour>
    </TTGlyph>
    <TTGlyph name="backslash" xMin="-10" yMin="-14" xMax="306" yMax="728">
      <contour>
        <pt x="-10" y="728" on="1"/>
        <pt x="79" y="728" on="1"/>
        <pt x="306" y="-14" on="1"/>
        <pt x="217" y="-14" on="1"/>
      </contour>
    </TTGlyph>
    <TTGlyph name="bar" xMin="68" yMin="-14" xMax="154" yMax="728">
      <contour>
        <pt x="68" y="728" on="1"/>
        <pt x="154" y="728" on="1"/>
        <pt x="154" y="-14" on="1"/>
        <pt x="68" y="-14" on="1"/>
      </contour>
    </TTGlyph>
    <TTGlyph name="braceleft" xMin="7" yMin="-184" xMax="271" yMax="714">
      <contour>
        <pt x="7" y="298" on="1"/>
        <pt x="23" y="299" on="0"/>
        <pt x="52" y="316" on="0"/>
        <pt x="75" y="344" on="0"/>
        <pt x="88" y="380" on="0"/>
        <pt x="88" y="400" on="1"/>
        <pt x="88" y="583" on="1"/>
        <pt x="88" y="615" on="0"/>
        <pt x="107" y="664" on="0"/>
        <pt x="138" y="697" on="0"/>
        <pt x="178" y="714" on="0"/>
        <pt x="199" y="714" on="1"/>
        <pt x="271" y="714" on="1"/>
        <pt x="271" y="652" on="1"/>
        <pt x="238" y="652" on="1"/>
        <pt x="209" y="652" on="0"/>
        <pt x="190" y="614" on="0"/>
        <pt x="190" y="583" on="1"/>
        <pt x="190" y="400" on="1"/>
        <pt x="190" y="365" on="0"/>
        <pt x="168" y="316" on="0"/>
        <pt x="138" y="284" on="0"/>
        <pt x="107" y="268" on="0"/>
        <pt x="98" y="266" on="1"/>
        <pt x="98" y="264" on="1"/>
        <pt x="107" y="262" on="0"/>
        <pt x="138" y="246" on="0"/>
        <pt x="168" y="214" on="0"/>
        <pt x="190" y="165" on="0"/>
        <pt x="190" y="130" on="1"/>
        <pt x="190" y="-53" on="1"/>
        <pt x="190" y="-84" on="0"/>
        <pt x="209" y="-122" on="0"/>
        <pt x="238" y="-122" on="1"/>
        <pt x="271" y="-122" on="1"/>
        <pt x="271" y="-184" on="1"/>
        <pt x="199" y="-184" on="1"/>
        <pt x="178" y="-184" on="0"/>
        <pt x="138" y="-167" on="0"/>
        <pt x="107" y="-134" on="0"/>
        <pt x="88" y="-85" on="0"/>
        <pt x="88" y="-53" on="1"/>
        <pt x="88" y="130" on="1"/>
        <pt x="88" y="150" on="0"/>
        <pt x="75" y="186" on="0"/>
        <pt x="52" y="214" on="0"/>
        <pt x="23" y="231" on="0"/>
        <pt x="7" y="232" on="1"/>
      </contour>
    </TTGlyph>
    <TTGlyph name="braceright" xMin="7" yMin="-184" xMax="271" yMax="714">
      <contour>
        <pt x="271" y="232" on="1"/>
        <pt x="255" y="231" on="0"/>
        <pt x="226" y="214" on="0"/>
        <pt x="203" y="186" on="0"/>
        <pt x="190" y="150" on="0"/>
        <pt x="190" y="130" on="1"/>
        <pt x="190" y="-53" on="1"/>
        <pt x="190" y="-85" on="0"/>
        <pt x="171" y="-134" on="0"/>
        <pt x="140" y="-167" on="0"/>
        <pt x="100" y="-184" on="0"/>
        <pt x="79" y="-184" on="1"/>
        <pt x="7" y="-184" on="1"/>
        <pt x="7" y="-122" on="1"/>
        <pt x="40" y="-122" on="1"/>
        <pt x="69" y="-122" on="0"/>
        <pt x="88" y="-84" on="0"/>
        <pt x="88" y="-53" on="1"/>
        <pt x="88" y="130" on="1"/>
        <pt x="88" y="165" on="0"/>
        <pt x="110" y="214" on="0"/>
        <pt x="140" y="246" on="0"/>
        <pt x="171" y="262" on="0"/>
        <pt x="180" y="264" on="1"/>
        <pt x="180" y="266" on="1"/>
        <pt x="171" y="268" on="0"/>
        <pt x="140" y="284" on="0"/>
        <pt x="110" y="316" on="0"/>
        <pt x="88" y="365" on="0"/>
        <pt x="88" y="400" on="1"/>
        <pt x="88" y="583" on="1"/>
        <pt x="88" y="614" on="0"/>
        <pt x="69" y="652" on="0"/>
        <pt x="40" y="652" on="1"/>
        <pt x="7" y="652" on="1"/>
        <pt x="7" y="714" on="1"/>
        <pt x="79" y="714" on="1"/>
        <pt x="100" y="714" on="0"/>
        <pt x="140" y="697" on="0"/>
        <pt x="171" y="664" on="0"/>
        <pt x="190" y="615" on="0"/>
        <pt x="190" y="583" on="1"/>
        <pt x="190" y="400" on="1"/>
        <pt x="190" y="380" on="0"/>
        <pt x="203" y="344" on="0"/>
        <pt x="226" y="316" on="0"/>
        <pt x="255" y="299" on="0"/>
        <pt x="271" y="298" on="1"/>
      </contour>
    </TTGlyph>
    <TTGlyph name="bracketleft" xMin="77" yMin="-184" xMax="280" yMax="714">
      <contour>
        <pt x="77" y="714" on="1"/>
        <pt x="280" y="714" on="1"/>
        <pt x="280" y="634" on="1"/>
        <pt x="179" y="634" on="1"/>
        <pt x="179" y="-104" on="1"/>
        <pt x="280" y="-104" on="1"/>
        <pt x="280" y="-184" on="1"/>
        <pt x="77" y="-184" on="1"/>
      </contour>
    </TTGlyph>
    <TTGlyph name="bracketright" xMin="-2" yMin="-184" xMax="201" yMax="714">
      <contour>
        <pt x="-2" y="-104" on="1"/>
        <pt x="99" y="-104" on="1"/>
        <pt x="99" y="634" on="1"/>
        <pt x="-2" y="634" on="1"/>
        <pt x="-2" y="714" on="1"/>
        <pt x="201" y="714" on="1"/>
        <pt x="201" y="-184" on="1"/>
        <pt x="-2" y="-184" on="1"/>
      </contour>
    </TTGlyph>
    <TTGlyph name="breve" xMin="-22" yMin="613" xMax="244" yMax="748">
      <contour>
        <pt x="40" y="748" on="1"/>
        <pt x="40" y="739" on="0"/>
        <pt x="49" y="716" on="0"/>
        <pt x="67" y="695" on="0"/>
        <pt x="93" y="681" on="0"/>
        <pt x="111" y="681" on="1"/>
        <pt x="129" y="681" on="0"/>
        <pt x="155" y="695" on="0"/>
        <pt x="173" y="716" on="0"/>
        <pt x="182" y="739" on="0"/>
        <pt x="182" y="748" on="1"/>
        <pt x="244" y="748" on="1"/>
        <pt x="244" y="720" on="0"/>
        <pt x="226" y="671" on="0"/>
        <pt x="192" y="634" on="0"/>
        <pt x="142" y="613" on="0"/>
        <pt x="111" y="613" on="1"/>
        <pt x="79" y="613" on="0"/>
        <pt x="30" y="634" on="0"/>
        <pt x="-4" y="671" on="0"/>
        <pt x="-22" y="720" on="0"/>
        <pt x="-22" y="748" on="1"/>
      </contour>
    </TTGlyph>
    <TTGlyph name="breve.cap" xMin="-22" yMin="613" xMax="244" yMax="748">
      <contour>
        <pt x="40" y="748" on="1"/>
        <pt x="40" y="739" on="0"/>
        <pt x="49" y="716" on="0"/>
        <pt x="67" y="695" on="0"/>
        <pt x="93" y="681" on="0"/>
        <pt x="111" y="681" on="1"/>
        <pt x="129" y="681" on="0"/>
        <pt x="155" y="695" on="0"/>
        <pt x="173" y="716" on="0"/>
        <pt x="182" y="739" on="0"/>
        <pt x="182" y="748" on="1"/>
        <pt x="244" y="748" on="1"/>
        <pt x="244" y="720" on="0"/>
        <pt x="226" y="671" on="0"/>
        <pt x="192" y="634" on="0"/>
        <pt x="142" y="613" on="0"/>
        <pt x="111" y="613" on="1"/>
        <pt x="79" y="613" on="0"/>
        <pt x="30" y="634" on="0"/>
        <pt x="-4" y="671" on="0"/>
        <pt x="-22" y="720" on="0"/>
        <pt x="-22" y="748" on="1"/>
      </contour>
    </TTGlyph>
    <TTGlyph name="brokenbar" xMin="68" yMin="-14" xMax="154" yMax="728">
      <contour>
        <pt x="68" y="728" on="1"/>
        <pt x="154" y="728" on="1"/>
        <pt x="154" y="451" on="1"/>
        <pt x="68" y="451" on="1"/>
      </contour>
      <contour>
        <pt x="68" y="263" on="1"/>
        <pt x="154" y="263" on="1"/>
        <pt x="154" y="-14" on="1"/>
        <pt x="68" y="-14" on="1"/>
      </contour>
    </TTGlyph>
    <TTGlyph name="bullet" xMin="72" yMin="179" xMax="428" yMax="535">
      <contour>
        <pt x="72" y="357" on="1"/>
        <pt x="72" y="394" on="0"/>
        <pt x="100" y="459" on="0"/>
        <pt x="148" y="507" on="0"/>
        <pt x="213" y="535" on="0"/>
        <pt x="250" y="535" on="1"/>
        <pt x="287" y="535" on="0"/>
        <pt x="352" y="507" on="0"/>
        <pt x="400" y="459" on="0"/>
        <pt x="428" y="394" on="0"/>
        <pt x="428" y="357" on="1"/>
        <pt x="428" y="320" on="0"/>
        <pt x="400" y="255" on="0"/>
        <pt x="352" y="207" on="0"/>
        <pt x="287" y="179" on="0"/>
        <pt x="250" y="179" on="1"/>
        <pt x="213" y="179" on="0"/>
        <pt x="148" y="207" on="0"/>
        <pt x="100" y="255" on="0"/>
        <pt x="72" y="320" on="0"/>
      </contour>
    </TTGlyph>
    <TTGlyph name="c" xMin="31" yMin="-14" xMax="416" yMax="553">
      <contour>
        <pt x="415" y="196" on="1"/>
        <pt x="412" y="148" on="0"/>
        <pt x="391" y="70" on="0"/>
        <pt x="349" y="15" on="0"/>
        <pt x="281" y="-14" on="0"/>
        <pt x="231" y="-14" on="1"/>
        <pt x="172" y="-14" on="0"/>
        <pt x="95" y="27" on="0"/>
        <pt x="50" y="102" on="0"/>
        <pt x="31" y="206" on="0"/>
        <pt x="31" y="269" on="1"/>
        <pt x="31" y="332" on="0"/>
        <pt x="50" y="436" on="0"/>
        <pt x="95" y="511" on="0"/>
        <pt x="172" y="552" on="0"/>
        <pt x="231" y="552" on="1"/>
        <pt x="291" y="553" on="0"/>
        <pt x="364" y="512" on="0"/>
        <pt x="403" y="452" on="0"/>
        <pt x="416" y="384" on="0"/>
        <pt x="416" y="359" on="1"/>
        <pt x="308" y="359" on="1"/>
        <pt x="308" y="378" on="0"/>
        <pt x="302" y="419" on="0"/>
        <pt x="285" y="452" on="0"/>
        <pt x="255" y="473" on="0"/>
        <pt x="231" y="472" on="1"/>
        <pt x="202" y="472" on="0"/>
        <pt x="166" y="442" on="0"/>
        <pt x="146" y="388" on="0"/>
        <pt x="139" y="314" on="0"/>
        <pt x="139" y="269" on="1"/>
        <pt x="139" y="224" on="0"/>
        <pt x="146" y="150" on="0"/>
        <pt x="166" y="96" on="0"/>
        <pt x="202" y="66" on="0"/>
        <pt x="231" y="66" on="1"/>
        <pt x="276" y="65" on="0"/>
        <pt x="313" y="135" on="0"/>
        <pt x="313" y="196" on="1"/>
      </contour>
    </TTGlyph>
    <TTGlyph name="cacute" xMin="31" yMin="-14" xMax="416" yMax="752">
      <component glyphName="c" x="0" y="0" flags="0x204"/>
      <component glyphName="acute" x="133" y="0" flags="0x4"/>
    </TTGlyph>
    <TTGlyph name="caron" xMin="-33" yMin="608" xMax="255" yMax="752">
      <contour>
        <pt x="-33" y="752" on="1"/>
        <pt x="58" y="752" on="1"/>
        <pt x="112" y="664" on="1"/>
        <pt x="169" y="752" on="1"/>
        <pt x="255" y="752" on="1"/>
        <pt x="164" y="608" on="1"/>
        <pt x="56" y="608" on="1"/>
      </contour>
    </TTGlyph>
    <TTGlyph name="caron.alt" xMin="56" yMin="570" xMax="189" yMax="714">
      <contour>
        <pt x="84" y="714" on="1"/>
        <pt x="189" y="714" on="1"/>
        <pt x="126" y="570" on="1"/>
        <pt x="56" y="570" on="1"/>
      </contour>
    </TTGlyph>
    <TTGlyph name="caron.cap" xMin="-33" yMin="608" xMax="255" yMax="752">
      <contour>
        <pt x="-33" y="752" on="1"/>
        <pt x="58" y="752" on="1"/>
        <pt x="112" y="664" on="1"/>
        <pt x="169" y="752" on="1"/>
        <pt x="255" y="752" on="1"/>
        <pt x="164" y="608" on="1"/>
        <pt x="56" y="608" on="1"/>
      </contour>
    </TTGlyph>
    <TTGlyph name="ccaron" xMin="31" yMin="-14" xMax="416" yMax="752">
      <component glyphName="c" x="0" y="0" flags="0x204"/>
      <component glyphName="caron" x="121" y="0" flags="0x4"/>
    </TTGlyph>
    <TTGlyph name="ccedilla" xMin="31" yMin="-223" xMax="416" yMax="553">
      <contour>
        <pt x="415" y="196" on="1"/>
        <pt x="410" y="123" on="0"/>
        <pt x="368" y="23" on="0"/>
        <pt x="315" y="0" on="1"/>
        <pt x="283" y="-11" on="0"/>
        <pt x="246" y="-14" on="1"/>
        <pt x="214" y="-60" on="1"/>
        <pt x="225" y="-57" on="0"/>
        <pt x="244" y="-55" on="0"/>
        <pt x="254" y="-55" on="1"/>
        <pt x="288" y="-55" on="0"/>
        <pt x="332" y="-99" on="0"/>
        <pt x="332" y="-129" on="1"/>
        <pt x="332" y="-171" on="0"/>
        <pt x="266" y="-221" on="0"/>
        <pt x="215" y="-223" on="1"/>
        <pt x="181" y="-223" on="0"/>
        <pt x="132" y="-213" on="0"/>
        <pt x="114" y="-206" on="1"/>
        <pt x="130" y="-166" on="1"/>
        <pt x="160" y="-179" on="0"/>
        <pt x="199" y="-179" on="1"/>
        <pt x="223" y="-179" on="0"/>
        <pt x="252" y="-160" on="0"/>
        <pt x="252" y="-137" on="1"/>
        <pt x="252" y="-120" on="0"/>
        <pt x="225" y="-99" on="0"/>
        <pt x="206" y="-99" on="1"/>
        <pt x="195" y="-99" on="0"/>
        <pt x="177" y="-103" on="0"/>
        <pt x="168" y="-107" on="1"/>
        <pt x="150" y="-90" on="1"/>
        <pt x="198" y="-12" on="1"/>
        <pt x="161" y="-7" on="0"/>
        <pt x="133" y="6" on="1"/>
        <pt x="76" y="38" on="0"/>
        <pt x="31" y="172" on="0"/>
        <pt x="31" y="269" on="1"/>
        <pt x="31" y="332" on="0"/>
        <pt x="50" y="436" on="0"/>
        <pt x="95" y="511" on="0"/>
        <pt x="172" y="552" on="0"/>
        <pt x="231" y="552" on="1"/>
        <pt x="291" y="553" on="0"/>
        <pt x="364" y="512" on="0"/>
        <pt x="403" y="452" on="0"/>
        <pt x="416" y="384" on="0"/>
        <pt x="416" y="359" on="1"/>
        <pt x="308" y="359" on="1"/>
        <pt x="308" y="378" on="0"/>
        <pt x="302" y="419" on="0"/>
        <pt x="285" y="452" on="0"/>
        <pt x="255" y="473" on="0"/>
        <pt x="231" y="472" on="1"/>
        <pt x="202" y="472" on="0"/>
        <pt x="166" y="442" on="0"/>
        <pt x="146" y="388" on="0"/>
        <pt x="139" y="314" on="0"/>
        <pt x="139" y="269" on="1"/>
        <pt x="139" y="224" on="0"/>
        <pt x="146" y="150" on="0"/>
        <pt x="166" y="96" on="0"/>
        <pt x="202" y="66" on="0"/>
        <pt x="231" y="66" on="1"/>
        <pt x="276" y="65" on="0"/>
        <pt x="313" y="135" on="0"/>
        <pt x="313" y="196" on="1"/>
      </contour>
    </TTGlyph>
    <TTGlyph name="ccircumflex" xMin="31" yMin="-14" xMax="416" yMax="752">
      <component glyphName="c" x="0" y="0" flags="0x204"/>
      <component glyphName="circumflex" x="121" y="0" flags="0x4"/>
    </TTGlyph>
    <TTGlyph name="cdotaccent" xMin="31" yMin="-14" xMax="416" yMax="734">
      <component glyphName="c" x="0" y="0" flags="0x204"/>
      <component glyphName="dotaccent" x="120" y="0" flags="0x4"/>
    </TTGlyph>
    <TTGlyph name="cedilla" xMin="4" yMin="-223" xMax="222" yMax="0">
      <contour>
        <pt x="146" y="0" on="1"/>
        <pt x="104" y="-60" on="1"/>
        <pt x="115" y="-57" on="0"/>
        <pt x="134" y="-55" on="0"/>
        <pt x="144" y="-55" on="1"/>
        <pt x="178" y="-55" on="0"/>
        <pt x="222" y="-99" on="0"/>
        <pt x="222" y="-129" on="1"/>
        <pt x="222" y="-171" on="0"/>
        <pt x="156" y="-221" on="0"/>
        <pt x="105" y="-223" on="1"/>
        <pt x="71" y="-223" on="0"/>
        <pt x="22" y="-213" on="0"/>
        <pt x="4" y="-206" on="1"/>
        <pt x="20" y="-166" on="1"/>
        <pt x="50" y="-179" on="0"/>
        <pt x="89" y="-179" on="1"/>
        <pt x="113" y="-179" on="0"/>
        <pt x="142" y="-160" on="0"/>
        <pt x="142" y="-137" on="1"/>
        <pt x="142" y="-120" on="0"/>
        <pt x="115" y="-99" on="0"/>
        <pt x="96" y="-99" on="1"/>
        <pt x="85" y="-99" on="0"/>
        <pt x="67" y="-103" on="0"/>
        <pt x="58" y="-107" on="1"/>
        <pt x="40" y="-90" on="1"/>
        <pt x="96" y="0" on="1"/>
      </contour>
    </TTGlyph>
    <TTGlyph name="cent" xMin="48" yMin="-102" xMax="432" yMax="627">
      <contour>
        <pt x="224" y="-14" on="1"/>
        <pt x="173" y="-10" on="0"/>
        <pt x="105" y="35" on="0"/>
        <pt x="64" y="110" on="0"/>
        <pt x="48" y="210" on="0"/>
        <pt x="48" y="269" on="1"/>
        <pt x="48" y="328" on="0"/>
        <pt x="64" y="428" on="0"/>
        <pt x="105" y="503" on="0"/>
        <pt x="173" y="548" on="0"/>
        <pt x="224" y="552" on="1"/>
        <pt x="224" y="627" on="1"/>
        <pt x="268" y="627" on="1"/>
        <pt x="268" y="552" on="1"/>
        <pt x="322" y="549" on="0"/>
        <pt x="386" y="506" on="0"/>
        <pt x="421" y="447" on="0"/>
        <pt x="432" y="383" on="0"/>
        <pt x="432" y="359" on="1"/>
        <pt x="324" y="359" on="1"/>
        <pt x="324" y="375" on="0"/>
        <pt x="319" y="412" on="0"/>
        <pt x="307" y="444" on="0"/>
        <pt x="285" y="468" on="0"/>
        <pt x="268" y="472" on="1"/>
        <pt x="268" y="66" on="1"/>
        <pt x="303" y="76" on="0"/>
        <pt x="330" y="142" on="0"/>
        <pt x="330" y="196" on="1"/>
        <pt x="432" y="196" on="1"/>
        <pt x="429" y="151" on="0"/>
        <pt x="410" y="76" on="0"/>
        <pt x="373" y="21" on="0"/>
        <pt x="313" y="-11" on="0"/>
        <pt x="268" y="-14" on="1"/>
        <pt x="268" y="-102" on="1"/>
        <pt x="224" y="-102" on="1"/>
      </contour>
      <contour>
        <pt x="224" y="472" on="1"/>
        <pt x="203" y="466" on="0"/>
        <pt x="176" y="430" on="0"/>
        <pt x="161" y="377" on="0"/>
        <pt x="156" y="308" on="0"/>
        <pt x="156" y="269" on="1"/>
        <pt x="156" y="230" on="0"/>
        <pt x="161" y="162" on="0"/>
        <pt x="176" y="109" on="0"/>
        <pt x="203" y="73" on="0"/>
        <pt x="224" y="66" on="1"/>
      </contour>
    </TTGlyph>
    <TTGlyph name="circumflex" xMin="-33" yMin="608" xMax="255" yMax="752">
      <contour>
        <pt x="58" y="752" on="1"/>
        <pt x="166" y="752" on="1"/>
        <pt x="255" y="608" on="1"/>
        <pt x="164" y="608" on="1"/>
        <pt x="110" y="696" on="1"/>
        <pt x="53" y="608" on="1"/>
        <pt x="-33" y="608" on="1"/>
      </contour>
    </TTGlyph>
    <TTGlyph name="circumflex.cap" xMin="-33" yMin="608" xMax="255" yMax="752">
      <contour>
        <pt x="58" y="752" on="1"/>
        <pt x="166" y="752" on="1"/>
        <pt x="255" y="608" on="1"/>
        <pt x="164" y="608" on="1"/>
        <pt x="110" y="696" on="1"/>
        <pt x="53" y="608" on="1"/>
        <pt x="-33" y="608" on="1"/>
      </contour>
    </TTGlyph>
    <TTGlyph name="colon" xMin="63" yMin="0" xMax="177" yMax="512">
      <contour>
        <pt x="63" y="132" on="1"/>
        <pt x="177" y="132" on="1"/>
        <pt x="177" y="0" on="1"/>
        <pt x="63" y="0" on="1"/>
      </contour>
      <contour>
        <pt x="63" y="512" on="1"/>
        <pt x="177" y="512" on="1"/>
        <pt x="177" y="380" on="1"/>
        <pt x="63" y="380" on="1"/>
      </contour>
    </TTGlyph>
    <TTGlyph name="comma" xMin="63" yMin="-154" xMax="177" yMax="132">
      <contour>
        <pt x="63" y="132" on="1"/>
        <pt x="177" y="132" on="1"/>
        <pt x="177" y="0" on="1"/>
        <pt x="177" y="-60" on="0"/>
        <pt x="129" y="-141" on="0"/>
        <pt x="63" y="-154" on="1"/>
        <pt x="63" y="-96" on="1"/>
        <pt x="86" y="-90" on="0"/>
        <pt x="113" y="-48" on="0"/>
        <pt x="113" y="-15" on="1"/>
        <pt x="113" y="0" on="1"/>
        <pt x="63" y="0" on="1"/>
      </contour>
    </TTGlyph>
    <TTGlyph name="commaaccent" xMin="72" yMin="-223" xMax="168" yMax="-50">
      <contour>
        <pt x="72" y="-50" on="1"/>
        <pt x="168" y="-50" on="1"/>
        <pt x="168" y="-136" on="1"/>
        <pt x="168" y="-181" on="0"/>
        <pt x="122" y="-218" on="0"/>
        <pt x="82" y="-223" on="1"/>
        <pt x="82" y="-190" on="1"/>
        <pt x="97" y="-186" on="0"/>
        <pt x="115" y="-169" on="0"/>
        <pt x="117" y="-149" on="1"/>
        <pt x="72" y="-149" on="1"/>
      </contour>
    </TTGlyph>
    <TTGlyph name="commaaccent.alt" xMin="74" yMin="615" xMax="170" yMax="788">
      <contour>
        <pt x="170" y="615" on="1"/>
        <pt x="74" y="615" on="1"/>
        <pt x="74" y="701" on="1"/>
        <pt x="74" y="746" on="0"/>
        <pt x="120" y="783" on="0"/>
        <pt x="160" y="788" on="1"/>
        <pt x="160" y="755" on="1"/>
        <pt x="145" y="751" on="0"/>
        <pt x="127" y="734" on="0"/>
        <pt x="125" y="714" on="1"/>
        <pt x="170" y="714" on="1"/>
      </contour>
    </TTGlyph>
    <TTGlyph name="copyright" xMin="29" yMin="-14" xMax="771" yMax="728">
      <contour>
        <pt x="29" y="357" on="1"/>
        <pt x="29" y="434" on="0"/>
        <pt x="87" y="569" on="0"/>
        <pt x="188" y="670" on="0"/>
        <pt x="323" y="728" on="0"/>
        <pt x="400" y="728" on="1"/>
        <pt x="477" y="728" on="0"/>
        <pt x="612" y="670" on="0"/>
        <pt x="713" y="569" on="0"/>
        <pt x="771" y="434" on="0"/>
        <pt x="771" y="357" on="1"/>
        <pt x="771" y="280" on="0"/>
        <pt x="713" y="145" on="0"/>
        <pt x="612" y="44" on="0"/>
        <pt x="477" y="-14" on="0"/>
        <pt x="400" y="-14" on="1"/>
        <pt x="323" y="-14" on="0"/>
        <pt x="188" y="44" on="0"/>
        <pt x="87" y="145" on="0"/>
        <pt x="29" y="280" on="0"/>
      </contour>
      <contour>
        <pt x="400" y="66" on="1"/>
        <pt x="458" y="66" on="0"/>
        <pt x="560" y="112" on="0"/>
        <pt x="636" y="191" on="0"/>
        <pt x="680" y="297" on="0"/>
        <pt x="680" y="357" on="1"/>
        <pt x="680" y="417" on="0"/>
        <pt x="636" y="523" on="0"/>
        <pt x="560" y="602" on="0"/>
        <pt x="458" y="648" on="0"/>
        <pt x="400" y="648" on="1"/>
        <pt x="342" y="648" on="0"/>
        <pt x="240" y="602" on="0"/>
        <pt x="164" y="523" on="0"/>
        <pt x="120" y="417" on="0"/>
        <pt x="120" y="357" on="1"/>
        <pt x="120" y="297" on="0"/>
        <pt x="164" y="191" on="0"/>
        <pt x="240" y="112" on="0"/>
        <pt x="342" y="66" on="0"/>
      </contour>
      <contour>
        <pt x="593" y="292" on="1"/>
        <pt x="580" y="217" on="0"/>
        <pt x="479" y="134" on="0"/>
        <pt x="404" y="134" on="1"/>
        <pt x="359" y="134" on="0"/>
        <pt x="284" y="165" on="0"/>
        <pt x="231" y="224" on="0"/>
        <pt x="202" y="307" on="0"/>
        <pt x="202" y="358" on="1"/>
        <pt x="202" y="409" on="0"/>
        <pt x="232" y="492" on="0"/>
        <pt x="286" y="550" on="0"/>
        <pt x="363" y="581" on="0"/>
        <pt x="411" y="581" on="1"/>
        <pt x="480" y="581" on="0"/>
        <pt x="579" y="503" on="0"/>
        <pt x="590" y="428" on="1"/>
        <pt x="510" y="428" on="1"/>
        <pt x="502" y="463" on="0"/>
        <pt x="451" y="509" on="0"/>
        <pt x="409" y="507" on="1"/>
        <pt x="380" y="507" on="0"/>
        <pt x="335" y="484" on="0"/>
        <pt x="304" y="443" on="0"/>
        <pt x="288" y="389" on="0"/>
        <pt x="288" y="358" on="1"/>
        <pt x="288" y="326" on="0"/>
        <pt x="304" y="271" on="0"/>
        <pt x="336" y="231" on="0"/>
        <pt x="383" y="208" on="0"/>
        <pt x="413" y="208" on="1"/>
        <pt x="451" y="208" on="0"/>
        <pt x="505" y="253" on="0"/>
        <pt x="510" y="292" on="1"/>
      </contour>
    </TTGlyph>
    <TTGlyph name="currency" xMin="6" yMin="112" xMax="474" yMax="582">
      <contour>
        <pt x="240" y="191" on="1"/>
        <pt x="271" y="191" on="0"/>
        <pt x="326" y="215" on="0"/>
        <pt x="367" y="257" on="0"/>
        <pt x="390" y="314" on="0"/>
        <pt x="390" y="347" on="1"/>
        <pt x="390" y="380" on="0"/>
        <pt x="367" y="437" on="0"/>
        <pt x="326" y="479" on="0"/>
        <pt x="271" y="503" on="0"/>
        <pt x="240" y="503" on="1"/>
        <pt x="208" y="503" on="0"/>
        <pt x="154" y="479" on="0"/>
        <pt x="113" y="437" on="0"/>
        <pt x="90" y="380" on="0"/>
        <pt x="90" y="347" on="1"/>
        <pt x="90" y="314" on="0"/>
        <pt x="113" y="257" on="0"/>
        <pt x="154" y="215" on="0"/>
        <pt x="208" y="191" on="0"/>
      </contour>
      <contour>
        <pt x="57" y="208" on="1"/>
        <pt x="35" y="237" on="0"/>
        <pt x="10" y="308" on="0"/>
        <pt x="10" y="347" on="1"/>
        <pt x="10" y="387" on="0"/>
        <pt x="35" y="458" on="0"/>
        <pt x="57" y="486" on="1"/>
        <pt x="6" y="537" on="1"/>
        <pt x="51" y="582" on="1"/>
        <pt x="102" y="531" on="1"/>
        <pt x="131" y="552" on="0"/>
        <pt x="201" y="577" on="0"/>
        <pt x="240" y="577" on="1"/>
        <pt x="279" y="577" on="0"/>
        <pt x="349" y="552" on="0"/>
        <pt x="378" y="531" on="1"/>
        <pt x="429" y="582" on="1"/>
        <pt x="474" y="537" on="1"/>
        <pt x="423" y="485" on="1"/>
        <pt x="445" y="456" on="0"/>
        <pt x="470" y="386" on="0"/>
        <pt x="470" y="347" on="1"/>
        <pt x="470" y="308" on="0"/>
        <pt x="445" y="238" on="0"/>
        <pt x="423" y="209" on="1"/>
        <pt x="474" y="157" on="1"/>
        <pt x="429" y="112" on="1"/>
        <pt x="377" y="164" on="1"/>
        <pt x="318" y="117" on="0"/>
        <pt x="240" y="117" on="1"/>
        <pt x="201" y="117" on="0"/>
        <pt x="131" y="142" on="0"/>
        <pt x="102" y="164" on="1"/>
        <pt x="51" y="112" on="1"/>
        <pt x="6" y="157" on="1"/>
      </contour>
    </TTGlyph>
    <TTGlyph name="d" xMin="31" yMin="-14" xMax="429" yMax="714">
      <contour>
        <pt x="327" y="263" on="1"/>
        <pt x="327" y="311" on="0"/>
        <pt x="320" y="387" on="0"/>
        <pt x="299" y="439" on="0"/>
        <pt x="260" y="466" on="0"/>
        <pt x="229" y="466" on="1"/>
        <pt x="206" y="466" on="0"/>
        <pt x="174" y="446" on="0"/>
        <pt x="154" y="400" on="0"/>
        <pt x="145" y="325" on="0"/>
        <pt x="145" y="271" on="1"/>
        <pt x="145" y="225" on="0"/>
        <pt x="152" y="152" on="0"/>
        <pt x="172" y="100" on="0"/>
        <pt x="207" y="72" on="0"/>
        <pt x="236" y="72" on="1"/>
        <pt x="264" y="72" on="0"/>
        <pt x="299" y="99" on="0"/>
        <pt x="319" y="149" on="0"/>
        <pt x="327" y="219" on="0"/>
      </contour>
      <contour>
        <pt x="327" y="66" on="1"/>
        <pt x="325" y="66" on="1"/>
        <pt x="320" y="53" on="0"/>
        <pt x="303" y="25" on="0"/>
        <pt x="276" y="1" on="0"/>
        <pt x="235" y="-14" on="0"/>
        <pt x="207" y="-14" on="1"/>
        <pt x="113" y="-14" on="0"/>
        <pt x="31" y="138" on="0"/>
        <pt x="31" y="276" on="1"/>
        <pt x="31" y="366" on="0"/>
        <pt x="60" y="474" on="0"/>
        <pt x="107" y="533" on="0"/>
        <pt x="166" y="552" on="0"/>
        <pt x="197" y="552" on="1"/>
        <pt x="242" y="552" on="0"/>
        <pt x="304" y="511" on="0"/>
        <pt x="319" y="475" on="1"/>
        <pt x="321" y="475" on="1"/>
        <pt x="321" y="714" on="1"/>
        <pt x="429" y="714" on="1"/>
        <pt x="429" y="0" on="1"/>
        <pt x="327" y="0" on="1"/>
      </contour>
    </TTGlyph>
    <TTGlyph name="dagger" xMin="16" yMin="-142" xMax="466" yMax="714">
      <contour>
        <pt x="187" y="714" on="1"/>
        <pt x="295" y="714" on="1"/>
        <pt x="295" y="512" on="1"/>
        <pt x="466" y="512" on="1"/>
        <pt x="466" y="421" on="1"/>
        <pt x="295" y="421" on="1"/>
        <pt x="295" y="-142" on="1"/>
        <pt x="187" y="-142" on="1"/>
        <pt x="187" y="421" on="1"/>
        <pt x="16" y="421" on="1"/>
        <pt x="16" y="512" on="1"/>
        <pt x="187" y="512" on="1"/>
      </contour>
    </TTGlyph>
    <TTGlyph name="daggerdbl" xMin="15" yMin="-142" xMax="467" yMax="714">
      <contour>
        <pt x="187" y="714" on="1"/>
        <pt x="295" y="714" on="1"/>
        <pt x="295" y="519" on="1"/>
        <pt x="467" y="519" on="1"/>
        <pt x="467" y="433" on="1"/>
        <pt x="295" y="433" on="1"/>
        <pt x="295" y="143" on="1"/>
        <pt x="467" y="143" on="1"/>
        <pt x="467" y="57" on="1"/>
        <pt x="295" y="57" on="1"/>
        <pt x="295" y="-142" on="1"/>
        <pt x="187" y="-142" on="1"/>
        <pt x="187" y="57" on="1"/>
        <pt x="15" y="57" on="1"/>
        <pt x="15" y="143" on="1"/>
        <pt x="187" y="143" on="1"/>
        <pt x="187" y="433" on="1"/>
        <pt x="15" y="433" on="1"/>
        <pt x="15" y="519" on="1"/>
        <pt x="187" y="519" on="1"/>
      </contour>
    </TTGlyph>
    <TTGlyph name="dcaron" xMin="31" yMin="-14" xMax="605" yMax="714">
      <component glyphName="d" x="0" y="0" flags="0x4"/>
      <component glyphName="caron.alt" x="416" y="0" flags="0x4"/>
    </TTGlyph>
    <TTGlyph name="dcroat" xMin="31" yMin="-14" xMax="513" yMax="714">
      <contour>
        <pt x="327" y="66" on="1"/>
        <pt x="325" y="66" on="1"/>
        <pt x="320" y="53" on="0"/>
        <pt x="303" y="25" on="0"/>
        <pt x="276" y="1" on="0"/>
        <pt x="235" y="-14" on="0"/>
        <pt x="207" y="-14" on="1"/>
        <pt x="113" y="-14" on="0"/>
        <pt x="31" y="138" on="0"/>
        <pt x="31" y="276" on="1"/>
        <pt x="31" y="366" on="0"/>
        <pt x="60" y="474" on="0"/>
        <pt x="107" y="533" on="0"/>
        <pt x="166" y="552" on="0"/>
        <pt x="197" y="552" on="1"/>
        <pt x="242" y="552" on="0"/>
        <pt x="304" y="511" on="0"/>
        <pt x="319" y="475" on="1"/>
        <pt x="321" y="475" on="1"/>
        <pt x="321" y="589" on="1"/>
        <pt x="221" y="589" on="1"/>
        <pt x="221" y="641" on="1"/>
        <pt x="321" y="641" on="1"/>
        <pt x="321" y="714" on="1"/>
        <pt x="429" y="714" on="1"/>
        <pt x="429" y="641" on="1"/>
        <pt x="513" y="641" on="1"/>
        <pt x="513" y="589" on="1"/>
        <pt x="429" y="589" on="1"/>
        <pt x="429" y="0" on="1"/>
        <pt x="327" y="0" on="1"/>
      </contour>
      <contour>
        <pt x="327" y="263" on="1"/>
        <pt x="327" y="311" on="0"/>
        <pt x="320" y="387" on="0"/>
        <pt x="299" y="439" on="0"/>
        <pt x="260" y="466" on="0"/>
        <pt x="229" y="466" on="1"/>
        <pt x="206" y="466" on="0"/>
        <pt x="174" y="446" on="0"/>
        <pt x="154" y="400" on="0"/>
        <pt x="145" y="325" on="0"/>
        <pt x="145" y="271" on="1"/>
        <pt x="145" y="225" on="0"/>
        <pt x="152" y="152" on="0"/>
        <pt x="172" y="100" on="0"/>
        <pt x="207" y="72" on="0"/>
        <pt x="236" y="72" on="1"/>
        <pt x="264" y="72" on="0"/>
        <pt x="299" y="99" on="0"/>
        <pt x="319" y="149" on="0"/>
        <pt x="327" y="219" on="0"/>
      </contour>
    </TTGlyph>
    <TTGlyph name="degree" xMin="51" yMin="410" xMax="349" yMax="708">
      <contour>
        <pt x="119" y="559" on="1"/>
        <pt x="119" y="525" on="0"/>
        <pt x="166" y="478" on="0"/>
        <pt x="200" y="478" on="1"/>
        <pt x="234" y="478" on="0"/>
        <pt x="281" y="525" on="0"/>
        <pt x="281" y="559" on="1"/>
        <pt x="281" y="593" on="0"/>
        <pt x="234" y="640" on="0"/>
        <pt x="200" y="640" on="1"/>
        <pt x="166" y="640" on="0"/>
        <pt x="119" y="593" on="0"/>
      </contour>
      <contour>
        <pt x="51" y="559" on="1"/>
        <pt x="51" y="590" on="0"/>
        <pt x="74" y="644" on="0"/>
        <pt x="115" y="684" on="0"/>
        <pt x="169" y="708" on="0"/>
        <pt x="200" y="708" on="1"/>
        <pt x="231" y="708" on="0"/>
        <pt x="285" y="684" on="0"/>
        <pt x="325" y="644" on="0"/>
        <pt x="349" y="590" on="0"/>
        <pt x="349" y="559" on="1"/>
        <pt x="349" y="528" on="0"/>
        <pt x="325" y="474" on="0"/>
        <pt x="285" y="433" on="0"/>
        <pt x="231" y="410" on="0"/>
        <pt x="200" y="410" on="1"/>
        <pt x="169" y="410" on="0"/>
        <pt x="115" y="433" on="0"/>
        <pt x="74" y="474" on="0"/>
        <pt x="51" y="528" on="0"/>
      </contour>
    </TTGlyph>
    <TTGlyph name="dieresis" xMin="-20" yMin="626" xMax="242" yMax="734">
      <contour>
        <pt x="-20" y="734" on="1"/>
        <pt x="76" y="734" on="1"/>
        <pt x="76" y="626" on="1"/>
        <pt x="-20" y="626" on="1"/>
      </contour>
      <contour>
        <pt x="146" y="734" on="1"/>
        <pt x="242" y="734" on="1"/>
        <pt x="242" y="626" on="1"/>
        <pt x="146" y="626" on="1"/>
      </contour>
    </TTGlyph>
    <TTGlyph name="dieresis.cap" xMin="-20" yMin="626" xMax="242" yMax="734">
      <contour>
        <pt x="-20" y="734" on="1"/>
        <pt x="76" y="734" on="1"/>
        <pt x="76" y="626" on="1"/>
        <pt x="-20" y="626" on="1"/>
      </contour>
      <contour>
        <pt x="146" y="734" on="1"/>
        <pt x="242" y="734" on="1"/>
        <pt x="242" y="626" on="1"/>
        <pt x="146" y="626" on="1"/>
      </contour>
    </TTGlyph>
    <TTGlyph name="divide" xMin="47" yMin="-24" xMax="553" yMax="530">
      <contour>
        <pt x="228" y="458" on="1"/>
        <pt x="228" y="488" on="0"/>
        <pt x="270" y="530" on="0"/>
        <pt x="300" y="530" on="1"/>
        <pt x="330" y="530" on="0"/>
        <pt x="372" y="488" on="0"/>
        <pt x="372" y="458" on="1"/>
        <pt x="372" y="428" on="0"/>
        <pt x="330" y="386" on="0"/>
        <pt x="300" y="386" on="1"/>
        <pt x="270" y="386" on="0"/>
        <pt x="228" y="428" on="0"/>
      </contour>
      <contour>
        <pt x="47" y="296" on="1"/>
        <pt x="553" y="296" on="1"/>
        <pt x="553" y="210" on="1"/>
        <pt x="47" y="210" on="1"/>
      </contour>
      <contour>
        <pt x="228" y="48" on="1"/>
        <pt x="228" y="78" on="0"/>
        <pt x="270" y="120" on="0"/>
        <pt x="300" y="120" on="1"/>
        <pt x="330" y="120" on="0"/>
        <pt x="372" y="78" on="0"/>
        <pt x="372" y="48" on="1"/>
        <pt x="372" y="18" on="0"/>
        <pt x="330" y="-24" on="0"/>
        <pt x="300" y="-24" on="1"/>
        <pt x="270" y="-24" on="0"/>
        <pt x="228" y="18" on="0"/>
      </contour>
    </TTGlyph>
    <TTGlyph name="dollar" xMin="16" yMin="-100" xMax="464" yMax="778">
      <contour>
        <pt x="216" y="-14" on="1"/>
        <pt x="152" y="-11" on="0"/>
        <pt x="74" y="30" on="0"/>
        <pt x="31" y="90" on="0"/>
        <pt x="16" y="163" on="0"/>
        <pt x="16" y="198" on="1"/>
        <pt x="16" y="214" on="1"/>
        <pt x="130" y="214" on="1"/>
        <pt x="130" y="198" on="1"/>
        <pt x="130" y="141" on="0"/>
        <pt x="168" y="80" on="0"/>
        <pt x="216" y="72" on="1"/>
        <pt x="216" y="304" on="1"/>
        <pt x="175" y="319" on="1"/>
        <pt x="96" y="347" on="0"/>
        <pt x="26" y="436" on="0"/>
        <pt x="26" y="512" on="1"/>
        <pt x="26" y="555" on="0"/>
        <pt x="55" y="627" on="0"/>
        <pt x="106" y="679" on="0"/>
        <pt x="175" y="708" on="0"/>
        <pt x="216" y="708" on="1"/>
        <pt x="216" y="778" on="1"/>
        <pt x="260" y="778" on="1"/>
        <pt x="260" y="708" on="1"/>
        <pt x="317" y="708" on="0"/>
        <pt x="391" y="670" on="0"/>
        <pt x="433" y="615" on="0"/>
        <pt x="450" y="551" on="0"/>
        <pt x="450" y="524" on="1"/>
        <pt x="450" y="510" on="1"/>
        <pt x="336" y="510" on="1"/>
        <pt x="336" y="524" on="1"/>
        <pt x="336" y="564" on="0"/>
        <pt x="304" y="617" on="0"/>
        <pt x="260" y="622" on="1"/>
        <pt x="260" y="401" on="1"/>
        <pt x="323" y="379" on="1"/>
        <pt x="396" y="353" on="0"/>
        <pt x="464" y="267" on="0"/>
        <pt x="464" y="195" on="1"/>
        <pt x="464" y="91" on="0"/>
        <pt x="353" y="-8" on="0"/>
        <pt x="260" y="-14" on="1"/>
        <pt x="260" y="-100" on="1"/>
        <pt x="216" y="-100" on="1"/>
      </contour>
      <contour>
        <pt x="216" y="622" on="1"/>
        <pt x="184" y="619" on="0"/>
        <pt x="140" y="570" on="0"/>
        <pt x="140" y="522" on="1"/>
        <pt x="140" y="487" on="0"/>
        <pt x="174" y="436" on="0"/>
        <pt x="216" y="418" on="1"/>
      </contour>
      <contour>
        <pt x="260" y="72" on="1"/>
        <pt x="305" y="79" on="0"/>
        <pt x="350" y="138" on="0"/>
        <pt x="350" y="172" on="1"/>
        <pt x="350" y="222" on="0"/>
        <pt x="306" y="273" on="0"/>
        <pt x="260" y="287" on="1"/>
      </contour>
    </TTGlyph>
    <TTGlyph name="dotaccent" xMin="63" yMin="626" xMax="159" yMax="734">
      <contour>
        <pt x="63" y="734" on="1"/>
        <pt x="159" y="734" on="1"/>
        <pt x="159" y="626" on="1"/>
        <pt x="63" y="626" on="1"/>
      </contour>
    </TTGlyph>
    <TTGlyph name="dotaccent.cap" xMin="63" yMin="626" xMax="159" yMax="734">
      <contour>
        <pt x="63" y="734" on="1"/>
        <pt x="159" y="734" on="1"/>
        <pt x="159" y="626" on="1"/>
        <pt x="63" y="626" on="1"/>
      </contour>
    </TTGlyph>
    <TTGlyph name="dotlessi" xMin="57" yMin="0" xMax="165" yMax="538">
      <contour>
        <pt x="57" y="538" on="1"/>
        <pt x="165" y="538" on="1"/>
        <pt x="165" y="0" on="1"/>
        <pt x="57" y="0" on="1"/>
      </contour>
    </TTGlyph>
    <TTGlyph name="dotlessj" xMin="-24" yMin="-184" xMax="165" yMax="538">
      <contour>
        <pt x="165" y="538" on="1"/>
        <pt x="165" y="-35" on="1"/>
        <pt x="165" y="-119" on="0"/>
        <pt x="94" y="-184" on="0"/>
        <pt x="23" y="-184" on="1"/>
        <pt x="0" y="-184" on="0"/>
        <pt x="-24" y="-181" on="1"/>
        <pt x="-24" y="-98" on="1"/>
        <pt x="1" y="-98" on="1"/>
        <pt x="32" y="-98" on="0"/>
        <pt x="57" y="-68" on="0"/>
        <pt x="57" y="-25" on="1"/>
        <pt x="57" y="538" on="1"/>
      </contour>
    </TTGlyph>
    <TTGlyph name="e" xMin="37" yMin="-14" xMax="426" yMax="552">
      <contour>
        <pt x="318" y="329" on="1"/>
        <pt x="318" y="358" on="1"/>
        <pt x="318" y="409" on="0"/>
        <pt x="281" y="478" on="0"/>
        <pt x="235" y="478" on="1"/>
        <pt x="209" y="478" on="0"/>
        <pt x="175" y="455" on="0"/>
        <pt x="154" y="416" on="0"/>
        <pt x="145" y="366" on="0"/>
        <pt x="145" y="340" on="1"/>
        <pt x="145" y="329" on="1"/>
      </contour>
      <contour>
        <pt x="145" y="255" on="1"/>
        <pt x="145" y="224" on="1"/>
        <pt x="145" y="197" on="0"/>
        <pt x="150" y="139" on="0"/>
        <pt x="169" y="91" on="0"/>
        <pt x="205" y="60" on="0"/>
        <pt x="235" y="60" on="1"/>
        <pt x="264" y="60" on="0"/>
        <pt x="298" y="88" on="0"/>
        <pt x="316" y="127" on="0"/>
        <pt x="321" y="168" on="0"/>
        <pt x="321" y="180" on="1"/>
        <pt x="423" y="180" on="1"/>
        <pt x="423" y="89" on="0"/>
        <pt x="322" y="-14" on="0"/>
        <pt x="234" y="-14" on="1"/>
        <pt x="201" y="-14" on="0"/>
        <pt x="131" y="2" on="0"/>
        <pt x="74" y="58" on="0"/>
        <pt x="37" y="168" on="0"/>
        <pt x="37" y="261" on="1"/>
        <pt x="37" y="314" on="0"/>
        <pt x="52" y="418" on="0"/>
        <pt x="95" y="501" on="0"/>
        <pt x="173" y="552" on="0"/>
        <pt x="236" y="552" on="1"/>
        <pt x="292" y="552" on="0"/>
        <pt x="366" y="519" on="0"/>
        <pt x="409" y="457" on="0"/>
        <pt x="426" y="368" on="0"/>
        <pt x="426" y="312" on="1"/>
        <pt x="426" y="255" on="1"/>
      </contour>
    </TTGlyph>
    <TTGlyph name="eacute" xMin="37" yMin="-14" xMax="426" yMax="752">
      <component glyphName="e" x="0" y="0" flags="0x204"/>
      <component glyphName="acute" x="145" y="0" flags="0x4"/>
    </TTGlyph>
    <TTGlyph name="ebreve" xMin="37" yMin="-14" xMax="426" yMax="748">
      <component glyphName="e" x="0" y="0" flags="0x204"/>
      <component glyphName="breve" x="129" y="0" flags="0x4"/>
    </TTGlyph>
    <TTGlyph name="ecaron" xMin="37" yMin="-14" xMax="426" yMax="752">
      <component glyphName="e" x="0" y="0" flags="0x204"/>
      <component glyphName="caron" x="127" y="0" flags="0x4"/>
    </TTGlyph>
    <TTGlyph name="ecircumflex" xMin="37" yMin="-14" xMax="426" yMax="752">
      <component glyphName="e" x="0" y="0" flags="0x204"/>
      <component glyphName="circumflex" x="129" y="0" flags="0x4"/>
    </TTGlyph>
    <TTGlyph name="edieresis" xMin="37" yMin="-14" xMax="426" yMax="734">
      <component glyphName="e" x="0" y="0" flags="0x204"/>
      <component glyphName="dieresis" x="129" y="0" flags="0x4"/>
    </TTGlyph>
    <TTGlyph name="edotaccent" xMin="37" yMin="-14" xMax="426" yMax="734">
      <component glyphName="e" x="0" y="0" flags="0x204"/>
      <component glyphName="dotaccent" x="129" y="0" flags="0x4"/>
    </TTGlyph>
    <TTGlyph name="egrave" xMin="37" yMin="-14" xMax="426" yMax="752">
      <component glyphName="e" x="0" y="0" flags="0x204"/>
      <component glyphName="grave" x="128" y="0" flags="0x4"/>
    </TTGlyph>
    <TTGlyph name="eight" xMin="26" yMin="-14" xMax="454" yMax="708">
      <contour>
        <pt x="240" y="-14" on="1"/>
        <pt x="131" y="-14" on="0"/>
        <pt x="26" y="92" on="0"/>
        <pt x="26" y="198" on="1"/>
        <pt x="26" y="277" on="0"/>
        <pt x="93" y="364" on="0"/>
        <pt x="147" y="375" on="1"/>
        <pt x="147" y="377" on="1"/>
        <pt x="101" y="393" on="0"/>
        <pt x="49" y="466" on="0"/>
        <pt x="49" y="530" on="1"/>
        <pt x="49" y="615" on="0"/>
        <pt x="149" y="708" on="0"/>
        <pt x="240" y="708" on="1"/>
        <pt x="331" y="708" on="0"/>
        <pt x="431" y="615" on="0"/>
        <pt x="431" y="530" on="1"/>
        <pt x="431" y="466" on="0"/>
        <pt x="379" y="393" on="0"/>
        <pt x="333" y="377" on="1"/>
        <pt x="333" y="375" on="1"/>
        <pt x="387" y="364" on="0"/>
        <pt x="454" y="277" on="0"/>
        <pt x="454" y="198" on="1"/>
        <pt x="454" y="92" on="0"/>
        <pt x="349" y="-14" on="0"/>
      </contour>
      <contour>
        <pt x="140" y="200" on="1"/>
        <pt x="140" y="172" on="0"/>
        <pt x="149" y="123" on="0"/>
        <pt x="171" y="87" on="0"/>
        <pt x="210" y="66" on="0"/>
        <pt x="240" y="66" on="1"/>
        <pt x="270" y="66" on="0"/>
        <pt x="309" y="87" on="0"/>
        <pt x="331" y="123" on="0"/>
        <pt x="340" y="172" on="0"/>
        <pt x="340" y="200" on="1"/>
        <pt x="340" y="228" on="0"/>
        <pt x="331" y="277" on="0"/>
        <pt x="309" y="313" on="0"/>
        <pt x="270" y="334" on="0"/>
        <pt x="240" y="334" on="1"/>
        <pt x="210" y="334" on="0"/>
        <pt x="171" y="313" on="0"/>
        <pt x="149" y="277" on="0"/>
        <pt x="140" y="228" on="0"/>
      </contour>
      <contour>
        <pt x="151" y="522" on="1"/>
        <pt x="151" y="501" on="0"/>
        <pt x="159" y="462" on="0"/>
        <pt x="179" y="432" on="0"/>
        <pt x="213" y="414" on="0"/>
        <pt x="240" y="414" on="1"/>
        <pt x="267" y="414" on="0"/>
        <pt x="301" y="432" on="0"/>
        <pt x="321" y="462" on="0"/>
        <pt x="329" y="501" on="0"/>
        <pt x="329" y="522" on="1"/>
        <pt x="329" y="543" on="0"/>
        <pt x="321" y="581" on="0"/>
        <pt x="301" y="611" on="0"/>
        <pt x="267" y="628" on="0"/>
        <pt x="240" y="628" on="1"/>
        <pt x="213" y="628" on="0"/>
        <pt x="179" y="611" on="0"/>
        <pt x="159" y="581" on="0"/>
        <pt x="151" y="543" on="0"/>
      </contour>
    </TTGlyph>
    <TTGlyph name="ellipsis" xMin="110" yMin="0" xMax="890" yMax="132">
      <contour>
        <pt x="776" y="132" on="1"/>
        <pt x="890" y="132" on="1"/>
        <pt x="890" y="0" on="1"/>
        <pt x="776" y="0" on="1"/>
      </contour>
      <contour>
        <pt x="443" y="132" on="1"/>
        <pt x="557" y="132" on="1"/>
        <pt x="557" y="0" on="1"/>
        <pt x="443" y="0" on="1"/>
      </contour>
      <contour>
        <pt x="110" y="132" on="1"/>
        <pt x="224" y="132" on="1"/>
        <pt x="224" y="0" on="1"/>
        <pt x="110" y="0" on="1"/>
      </contour>
    </TTGlyph>
    <TTGlyph name="emacron" xMin="37" yMin="-14" xMax="426" yMax="711">
      <component glyphName="e" x="0" y="0" flags="0x204"/>
      <component glyphName="macron" x="129" y="0" flags="0x4"/>
    </TTGlyph>
    <TTGlyph name="emdash" xMin="0" yMin="241" xMax="1000" yMax="337">
      <contour>
        <pt x="0" y="337" on="1"/>
        <pt x="1000" y="337" on="1"/>
        <pt x="1000" y="241" on="1"/>
        <pt x="0" y="241" on="1"/>
      </contour>
    </TTGlyph>
    <TTGlyph name="endash" xMin="0" yMin="241" xMax="500" yMax="337">
      <contour>
        <pt x="0" y="337" on="1"/>
        <pt x="500" y="337" on="1"/>
        <pt x="500" y="241" on="1"/>
        <pt x="0" y="241" on="1"/>
      </contour>
    </TTGlyph>
    <TTGlyph name="eogonek" xMin="37" yMin="-223" xMax="426" yMax="552">
      <contour>
        <pt x="145" y="255" on="1"/>
        <pt x="145" y="224" on="1"/>
        <pt x="145" y="197" on="0"/>
        <pt x="150" y="139" on="0"/>
        <pt x="169" y="91" on="0"/>
        <pt x="205" y="60" on="0"/>
        <pt x="235" y="60" on="1"/>
        <pt x="264" y="60" on="0"/>
        <pt x="298" y="88" on="0"/>
        <pt x="316" y="127" on="0"/>
        <pt x="321" y="168" on="0"/>
        <pt x="321" y="180" on="1"/>
        <pt x="423" y="180" on="1"/>
        <pt x="423" y="89" on="0"/>
        <pt x="372" y="37" on="1"/>
        <pt x="332" y="-3" on="0"/>
        <pt x="269" y="-12" on="1"/>
        <pt x="237" y="-44" on="0"/>
        <pt x="227" y="-64" on="1"/>
        <pt x="213" y="-94" on="0"/>
        <pt x="213" y="-120" on="1"/>
        <pt x="213" y="-148" on="0"/>
        <pt x="244" y="-177" on="0"/>
        <pt x="270" y="-177" on="1"/>
        <pt x="279" y="-177" on="0"/>
        <pt x="304" y="-173" on="0"/>
        <pt x="314" y="-170" on="1"/>
        <pt x="320" y="-212" on="1"/>
        <pt x="303" y="-217" on="0"/>
        <pt x="261" y="-223" on="0"/>
        <pt x="242" y="-223" on="1"/>
        <pt x="194" y="-223" on="0"/>
        <pt x="133" y="-180" on="0"/>
        <pt x="133" y="-132" on="1"/>
        <pt x="133" y="-93" on="0"/>
        <pt x="161" y="-59" on="1"/>
        <pt x="181" y="-33" on="0"/>
        <pt x="210" y="-13" on="1"/>
        <pt x="199" y="-12" on="0"/>
        <pt x="177" y="-8" on="0"/>
        <pt x="166" y="-6" on="1"/>
        <pt x="140" y="0" on="0"/>
        <pt x="94" y="33" on="0"/>
        <pt x="58" y="96" on="0"/>
        <pt x="37" y="192" on="0"/>
        <pt x="37" y="261" on="1"/>
        <pt x="37" y="314" on="0"/>
        <pt x="52" y="418" on="0"/>
        <pt x="95" y="501" on="0"/>
        <pt x="173" y="552" on="0"/>
        <pt x="236" y="552" on="1"/>
        <pt x="292" y="552" on="0"/>
        <pt x="366" y="519" on="0"/>
        <pt x="409" y="457" on="0"/>
        <pt x="426" y="368" on="0"/>
        <pt x="426" y="312" on="1"/>
        <pt x="426" y="255" on="1"/>
      </contour>
      <contour>
        <pt x="318" y="329" on="1"/>
        <pt x="318" y="358" on="1"/>
        <pt x="318" y="409" on="0"/>
        <pt x="281" y="478" on="0"/>
        <pt x="235" y="478" on="1"/>
        <pt x="209" y="478" on="0"/>
        <pt x="175" y="455" on="0"/>
        <pt x="154" y="416" on="0"/>
        <pt x="145" y="366" on="0"/>
        <pt x="145" y="340" on="1"/>
        <pt x="145" y="329" on="1"/>
      </contour>
    </TTGlyph>
    <TTGlyph name="equal" xMin="47" yMin="106" xMax="553" yMax="400">
      <contour>
        <pt x="47" y="192" on="1"/>
        <pt x="553" y="192" on="1"/>
        <pt x="553" y="106" on="1"/>
        <pt x="47" y="106" on="1"/>
      </contour>
      <contour>
        <pt x="47" y="400" on="1"/>
        <pt x="553" y="400" on="1"/>
        <pt x="553" y="314" on="1"/>
        <pt x="47" y="314" on="1"/>
      </contour>
    </TTGlyph>
    <TTGlyph name="estimated" xMin="44" yMin="-17" xMax="561" yMax="535">
      <contour>
        <pt x="157" y="259" on="1"/>
        <pt x="157" y="78" on="1"/>
        <pt x="216" y="19" on="0"/>
        <pt x="302" y="19" on="1"/>
        <pt x="365" y="19" on="0"/>
        <pt x="457" y="76" on="0"/>
        <pt x="495" y="139" on="1"/>
        <pt x="530" y="118" on="1"/>
        <pt x="507" y="82" on="0"/>
        <pt x="460" y="31" on="0"/>
        <pt x="405" y="-2" on="0"/>
        <pt x="341" y="-17" on="0"/>
        <pt x="302" y="-17" on="1"/>
        <pt x="243" y="-17" on="0"/>
        <pt x="148" y="26" on="0"/>
        <pt x="80" y="101" on="0"/>
        <pt x="44" y="201" on="0"/>
        <pt x="44" y="259" on="1"/>
        <pt x="44" y="317" on="0"/>
        <pt x="80" y="418" on="0"/>
        <pt x="148" y="492" on="0"/>
        <pt x="243" y="535" on="0"/>
        <pt x="302" y="535" on="1"/>
        <pt x="360" y="535" on="0"/>
        <pt x="455" y="494" on="0"/>
        <pt x="523" y="421" on="0"/>
        <pt x="561" y="320" on="0"/>
        <pt x="561" y="259" on="1"/>
      </contour>
      <contour>
        <pt x="448" y="295" on="1"/>
        <pt x="448" y="440" on="1"/>
        <pt x="385" y="500" on="0"/>
        <pt x="301" y="500" on="1"/>
        <pt x="217" y="500" on="0"/>
        <pt x="157" y="440" on="1"/>
        <pt x="157" y="295" on="1"/>
      </contour>
    </TTGlyph>
    <TTGlyph name="eth" xMin="31" yMin="-14" xMax="432" yMax="776">
      <contour>
        <pt x="58" y="634" on="1"/>
        <pt x="144" y="681" on="1"/>
        <pt x="127" y="697" on="0"/>
        <pt x="95" y="723" on="0"/>
        <pt x="80" y="733" on="1"/>
        <pt x="159" y="776" on="1"/>
        <pt x="175" y="766" on="0"/>
        <pt x="208" y="739" on="0"/>
        <pt x="225" y="725" on="1"/>
        <pt x="316" y="774" on="1"/>
        <pt x="348" y="738" on="1"/>
        <pt x="262" y="691" on="1"/>
        <pt x="311" y="644" on="0"/>
        <pt x="377" y="554" on="0"/>
        <pt x="416" y="455" on="0"/>
        <pt x="432" y="341" on="0"/>
        <pt x="432" y="269" on="1"/>
        <pt x="432" y="206" on="0"/>
        <pt x="411" y="102" on="0"/>
        <pt x="364" y="27" on="0"/>
        <pt x="287" y="-14" on="0"/>
        <pt x="231" y="-14" on="1"/>
        <pt x="175" y="-14" on="0"/>
        <pt x="99" y="27" on="0"/>
        <pt x="52" y="102" on="0"/>
        <pt x="31" y="206" on="0"/>
        <pt x="31" y="269" on="1"/>
        <pt x="31" y="329" on="0"/>
        <pt x="51" y="428" on="0"/>
        <pt x="96" y="499" on="0"/>
        <pt x="165" y="538" on="0"/>
        <pt x="215" y="538" on="1"/>
        <pt x="267" y="538" on="0"/>
        <pt x="297" y="505" on="1"/>
        <pt x="299" y="507" on="1"/>
        <pt x="279" y="536" on="0"/>
        <pt x="216" y="611" on="0"/>
        <pt x="181" y="646" on="1"/>
        <pt x="94" y="598" on="1"/>
      </contour>
      <contour>
        <pt x="139" y="269" on="1"/>
        <pt x="139" y="218" on="0"/>
        <pt x="146" y="141" on="0"/>
        <pt x="166" y="91" on="0"/>
        <pt x="202" y="66" on="0"/>
        <pt x="231" y="66" on="1"/>
        <pt x="261" y="66" on="0"/>
        <pt x="297" y="91" on="0"/>
        <pt x="317" y="141" on="0"/>
        <pt x="324" y="218" on="0"/>
        <pt x="324" y="269" on="1"/>
        <pt x="324" y="308" on="0"/>
        <pt x="317" y="377" on="0"/>
        <pt x="297" y="428" on="0"/>
        <pt x="261" y="458" on="0"/>
        <pt x="231" y="458" on="1"/>
        <pt x="202" y="458" on="0"/>
        <pt x="166" y="428" on="0"/>
        <pt x="146" y="377" on="0"/>
        <pt x="139" y="308" on="0"/>
      </contour>
    </TTGlyph>
    <TTGlyph name="exclam" xMin="82" yMin="0" xMax="196" yMax="714">
      <contour>
        <pt x="82" y="114" on="1"/>
        <pt x="196" y="114" on="1"/>
        <pt x="196" y="0" on="1"/>
        <pt x="82" y="0" on="1"/>
      </contour>
      <contour>
        <pt x="82" y="488" on="1"/>
        <pt x="82" y="714" on="1"/>
        <pt x="196" y="714" on="1"/>
        <pt x="196" y="488" on="1"/>
        <pt x="179" y="192" on="1"/>
        <pt x="99" y="192" on="1"/>
      </contour>
    </TTGlyph>
    <TTGlyph name="exclamdown" xMin="82" yMin="-176" xMax="196" yMax="538">
      <contour>
        <pt x="196" y="424" on="1"/>
        <pt x="82" y="424" on="1"/>
        <pt x="82" y="538" on="1"/>
        <pt x="196" y="538" on="1"/>
      </contour>
      <contour>
        <pt x="196" y="50" on="1"/>
        <pt x="196" y="-176" on="1"/>
        <pt x="82" y="-176" on="1"/>
        <pt x="82" y="50" on="1"/>
        <pt x="99" y="346" on="1"/>
        <pt x="179" y="346" on="1"/>
      </contour>
    </TTGlyph>
    <TTGlyph name="f" xMin="10" yMin="0" xMax="281" yMax="722">
      <contour>
        <pt x="85" y="458" on="1"/>
        <pt x="10" y="458" on="1"/>
        <pt x="10" y="538" on="1"/>
        <pt x="85" y="538" on="1"/>
        <pt x="85" y="588" on="1"/>
        <pt x="85" y="664" on="0"/>
        <pt x="156" y="722" on="0"/>
        <pt x="222" y="722" on="1"/>
        <pt x="257" y="722" on="0"/>
        <pt x="281" y="719" on="1"/>
        <pt x="281" y="636" on="1"/>
        <pt x="251" y="636" on="1"/>
        <pt x="221" y="636" on="0"/>
        <pt x="193" y="612" on="0"/>
        <pt x="193" y="585" on="1"/>
        <pt x="193" y="538" on="1"/>
        <pt x="281" y="538" on="1"/>
        <pt x="281" y="458" on="1"/>
        <pt x="193" y="458" on="1"/>
        <pt x="193" y="0" on="1"/>
        <pt x="85" y="0" on="1"/>
      </contour>
    </TTGlyph>
    <TTGlyph name="fi" xMin="10" yMin="0" xMax="443" yMax="722">
      <component glyphName="f" x="0" y="0" flags="0x4"/>
      <component glyphName="i" x="278" y="0" flags="0x4"/>
    </TTGlyph>
    <TTGlyph name="five" xMin="32" yMin="-14" xMax="448" yMax="694">
      <contour>
        <pt x="32" y="191" on="1"/>
        <pt x="140" y="191" on="1"/>
        <pt x="140" y="172" on="1"/>
        <pt x="140" y="132" on="0"/>
        <pt x="185" y="72" on="0"/>
        <pt x="233" y="72" on="1"/>
        <pt x="263" y="72" on="0"/>
        <pt x="302" y="99" on="0"/>
        <pt x="325" y="144" on="0"/>
        <pt x="334" y="202" on="0"/>
        <pt x="334" y="233" on="1"/>
        <pt x="334" y="264" on="0"/>
        <pt x="325" y="319" on="0"/>
        <pt x="303" y="360" on="0"/>
        <pt x="266" y="384" on="0"/>
        <pt x="239" y="384" on="1"/>
        <pt x="203" y="384" on="0"/>
        <pt x="154" y="348" on="0"/>
        <pt x="146" y="319" on="1"/>
        <pt x="45" y="323" on="1"/>
        <pt x="80" y="694" on="1"/>
        <pt x="421" y="694" on="1"/>
        <pt x="421" y="603" on="1"/>
        <pt x="165" y="603" on="1"/>
        <pt x="142" y="417" on="1"/>
        <pt x="144" y="415" on="1"/>
        <pt x="167" y="441" on="0"/>
        <pt x="228" y="470" on="0"/>
        <pt x="263" y="470" on="1"/>
        <pt x="318" y="470" on="0"/>
        <pt x="390" y="428" on="0"/>
        <pt x="432" y="360" on="0"/>
        <pt x="448" y="277" on="0"/>
        <pt x="448" y="236" on="1"/>
        <pt x="448" y="183" on="0"/>
        <pt x="423" y="91" on="0"/>
        <pt x="370" y="24" on="0"/>
        <pt x="287" y="-14" on="0"/>
        <pt x="230" y="-14" on="1"/>
        <pt x="133" y="-14" on="0"/>
        <pt x="32" y="82" on="0"/>
        <pt x="32" y="176" on="1"/>
      </contour>
    </TTGlyph>
    <TTGlyph name="fl" xMin="10" yMin="0" xMax="443" yMax="722">
      <component glyphName="f" x="0" y="0" flags="0x4"/>
      <component glyphName="l" x="278" y="0" flags="0x4"/>
    </TTGlyph>
    <TTGlyph name="florin" xMin="-26" yMin="-176" xMax="468" yMax="714">
      <contour>
        <pt x="201" y="434" on="1"/>
        <pt x="229" y="563" on="1"/>
        <pt x="236" y="596" on="0"/>
        <pt x="258" y="652" on="0"/>
        <pt x="295" y="692" on="0"/>
        <pt x="350" y="714" on="0"/>
        <pt x="391" y="714" on="1"/>
        <pt x="413" y="714" on="0"/>
        <pt x="451" y="711" on="0"/>
        <pt x="468" y="706" on="1"/>
        <pt x="453" y="630" on="1"/>
        <pt x="445" y="631" on="0"/>
        <pt x="426" y="634" on="0"/>
        <pt x="415" y="634" on="1"/>
        <pt x="381" y="634" on="0"/>
        <pt x="338" y="595" on="0"/>
        <pt x="327" y="541" on="1"/>
        <pt x="303" y="434" on="1"/>
        <pt x="415" y="434" on="1"/>
        <pt x="404" y="366" on="1"/>
        <pt x="290" y="366" on="1"/>
        <pt x="214" y="-5" on="1"/>
        <pt x="205" y="-47" on="0"/>
        <pt x="180" y="-111" on="0"/>
        <pt x="140" y="-154" on="0"/>
        <pt x="82" y="-176" on="0"/>
        <pt x="40" y="-176" on="1"/>
        <pt x="15" y="-176" on="0"/>
        <pt x="-15" y="-173" on="0"/>
        <pt x="-26" y="-170" on="1"/>
        <pt x="-9" y="-92" on="1"/>
        <pt x="4" y="-96" on="0"/>
        <pt x="33" y="-96" on="1"/>
        <pt x="72" y="-96" on="0"/>
        <pt x="102" y="-56" on="0"/>
        <pt x="111" y="-13" on="1"/>
        <pt x="188" y="366" on="1"/>
        <pt x="84" y="366" on="1"/>
        <pt x="95" y="434" on="1"/>
      </contour>
    </TTGlyph>
    <TTGlyph name="four" xMin="21" yMin="0" xMax="459" yMax="708">
      <contour>
        <pt x="274" y="542" on="1"/>
        <pt x="272" y="542" on="1"/>
        <pt x="113" y="250" on="1"/>
        <pt x="274" y="250" on="1"/>
      </contour>
      <contour>
        <pt x="21" y="257" on="1"/>
        <pt x="266" y="708" on="1"/>
        <pt x="382" y="708" on="1"/>
        <pt x="382" y="250" on="1"/>
        <pt x="459" y="250" on="1"/>
        <pt x="459" y="159" on="1"/>
        <pt x="382" y="159" on="1"/>
        <pt x="382" y="0" on="1"/>
        <pt x="274" y="0" on="1"/>
        <pt x="274" y="159" on="1"/>
        <pt x="21" y="159" on="1"/>
      </contour>
    </TTGlyph>
    <TTGlyph name="fraction" xMin="-164" yMin="-31" xMax="331" yMax="725">
      <contour>
        <pt x="257" y="725" on="1"/>
        <pt x="331" y="725" on="1"/>
        <pt x="-90" y="-31" on="1"/>
        <pt x="-164" y="-31" on="1"/>
      </contour>
    </TTGlyph>
    <TTGlyph name="g" xMin="44" yMin="-184" xMax="437" yMax="552">
      <contour>
        <pt x="152" y="286" on="1"/>
        <pt x="152" y="251" on="0"/>
        <pt x="156" y="182" on="0"/>
        <pt x="172" y="125" on="0"/>
        <pt x="206" y="90" on="0"/>
        <pt x="236" y="90" on="1"/>
        <pt x="267" y="90" on="0"/>
        <pt x="304" y="126" on="0"/>
        <pt x="324" y="181" on="0"/>
        <pt x="329" y="249" on="0"/>
        <pt x="329" y="281" on="1"/>
        <pt x="329" y="314" on="0"/>
        <pt x="323" y="380" on="0"/>
        <pt x="305" y="433" on="0"/>
        <pt x="271" y="466" on="0"/>
        <pt x="243" y="466" on="1"/>
        <pt x="214" y="466" on="0"/>
        <pt x="178" y="438" on="0"/>
        <pt x="158" y="389" on="0"/>
        <pt x="152" y="323" on="0"/>
      </contour>
      <contour>
        <pt x="160" y="-46" on="1"/>
        <pt x="160" y="-71" on="0"/>
        <pt x="202" y="-110" on="0"/>
        <pt x="238" y="-110" on="1"/>
        <pt x="280" y="-110" on="0"/>
        <pt x="329" y="-57" on="0"/>
        <pt x="329" y="-9" on="1"/>
        <pt x="329" y="78" on="1"/>
        <pt x="327" y="78" on="1"/>
        <pt x="312" y="43" on="0"/>
        <pt x="244" y="4" on="0"/>
        <pt x="205" y="4" on="1"/>
        <pt x="158" y="4" on="0"/>
        <pt x="96" y="47" on="0"/>
        <pt x="59" y="121" on="0"/>
        <pt x="44" y="219" on="0"/>
        <pt x="44" y="275" on="1"/>
        <pt x="44" y="319" on="0"/>
        <pt x="54" y="417" on="0"/>
        <pt x="90" y="499" on="0"/>
        <pt x="158" y="552" on="0"/>
        <pt x="215" y="552" on="1"/>
        <pt x="239" y="552" on="0"/>
        <pt x="279" y="538" on="0"/>
        <pt x="309" y="515" on="0"/>
        <pt x="329" y="487" on="0"/>
        <pt x="333" y="472" on="1"/>
        <pt x="335" y="472" on="1"/>
        <pt x="335" y="538" on="1"/>
        <pt x="437" y="538" on="1"/>
        <pt x="437" y="26" on="1"/>
        <pt x="437" y="-23" on="0"/>
        <pt x="415" y="-101" on="0"/>
        <pt x="367" y="-155" on="0"/>
        <pt x="290" y="-184" on="0"/>
        <pt x="236" y="-184" on="1"/>
        <pt x="176" y="-184" on="0"/>
        <pt x="105" y="-153" on="0"/>
        <pt x="69" y="-110" on="0"/>
        <pt x="58" y="-63" on="0"/>
        <pt x="58" y="-46" on="1"/>
      </contour>
    </TTGlyph>
    <TTGlyph name="gbreve" xMin="44" yMin="-184" xMax="437" yMax="748">
      <component glyphName="g" x="0" y="0" flags="0x204"/>
      <component glyphName="breve" x="150" y="0" flags="0x4"/>
    </TTGlyph>
    <TTGlyph name="gcircumflex" xMin="44" yMin="-184" xMax="437" yMax="752">
      <component glyphName="g" x="0" y="0" flags="0x204"/>
      <component glyphName="circumflex" x="149" y="0" flags="0x4"/>
    </TTGlyph>
    <TTGlyph name="gcommaaccent" xMin="44" yMin="-184" xMax="437" yMax="788">
      <component glyphName="g" x="0" y="0" flags="0x204"/>
      <component glyphName="commaaccent.alt" x="127" y="0" flags="0x4"/>
    </TTGlyph>
    <TTGlyph name="gdotaccent" xMin="44" yMin="-184" xMax="437" yMax="734">
      <component glyphName="g" x="0" y="0" flags="0x204"/>
      <component glyphName="dotaccent" x="137" y="0" flags="0x4"/>
    </TTGlyph>
    <TTGlyph name="germandbls" xMin="44" yMin="-6" xMax="450" yMax="722">
      <contour>
        <pt x="209" y="80" on="1"/>
        <pt x="236" y="80" on="1"/>
        <pt x="287" y="80" on="0"/>
        <pt x="336" y="153" on="0"/>
        <pt x="336" y="220" on="1"/>
        <pt x="336" y="363" on="0"/>
        <pt x="237" y="363" on="1"/>
        <pt x="211" y="363" on="1"/>
        <pt x="211" y="443" on="1"/>
        <pt x="230" y="443" on="1"/>
        <pt x="240" y="443" on="0"/>
        <pt x="267" y="452" on="0"/>
        <pt x="293" y="474" on="0"/>
        <pt x="311" y="512" on="0"/>
        <pt x="311" y="541" on="1"/>
        <pt x="311" y="586" on="0"/>
        <pt x="276" y="642" on="0"/>
        <pt x="231" y="642" on="1"/>
        <pt x="188" y="642" on="0"/>
        <pt x="152" y="589" on="0"/>
        <pt x="152" y="541" on="1"/>
        <pt x="152" y="0" on="1"/>
        <pt x="44" y="0" on="1"/>
        <pt x="44" y="533" on="1"/>
        <pt x="44" y="722" on="0"/>
        <pt x="232" y="722" on="1"/>
        <pt x="266" y="722" on="0"/>
        <pt x="333" y="707" on="0"/>
        <pt x="386" y="670" on="0"/>
        <pt x="419" y="606" on="0"/>
        <pt x="419" y="558" on="1"/>
        <pt x="419" y="500" on="0"/>
        <pt x="373" y="424" on="0"/>
        <pt x="319" y="410" on="1"/>
        <pt x="319" y="408" on="1"/>
        <pt x="358" y="404" on="0"/>
        <pt x="408" y="369" on="0"/>
        <pt x="438" y="317" on="0"/>
        <pt x="450" y="254" on="0"/>
        <pt x="450" y="222" on="1"/>
        <pt x="450" y="172" on="0"/>
        <pt x="428" y="89" on="0"/>
        <pt x="382" y="28" on="0"/>
        <pt x="310" y="-6" on="0"/>
        <pt x="260" y="-6" on="1"/>
        <pt x="209" y="-6" on="1"/>
      </contour>
    </TTGlyph>
    <TTGlyph name="grave" xMin="-14" yMin="608" xMax="166" yMax="752">
      <contour>
        <pt x="-14" y="752" on="1"/>
        <pt x="106" y="752" on="1"/>
        <pt x="166" y="608" on="1"/>
        <pt x="92" y="608" on="1"/>
      </contour>
    </TTGlyph>
    <TTGlyph name="grave.cap" xMin="-14" yMin="608" xMax="166" yMax="752">
      <contour>
        <pt x="-14" y="752" on="1"/>
        <pt x="106" y="752" on="1"/>
        <pt x="166" y="608" on="1"/>
        <pt x="92" y="608" on="1"/>
      </contour>
    </TTGlyph>
    <TTGlyph name="greater" xMin="47" yMin="-10" xMax="553" yMax="516">
      <contour>
        <pt x="553" y="216" on="1"/>
        <pt x="47" y="-10" on="1"/>
        <pt x="47" y="76" on="1"/>
        <pt x="451" y="253" on="1"/>
        <pt x="47" y="430" on="1"/>
        <pt x="47" y="516" on="1"/>
        <pt x="553" y="290" on="1"/>
      </contour>
    </TTGlyph>
    <TTGlyph name="greaterequal" xMin="38" yMin="-34" xMax="555" yMax="548">
      <contour>
        <pt x="38" y="-34" on="1"/>
        <pt x="38" y="62" on="1"/>
        <pt x="555" y="62" on="1"/>
        <pt x="555" y="-34" on="1"/>
      </contour>
      <contour>
        <pt x="38" y="96" on="1"/>
        <pt x="38" y="197" on="1"/>
        <pt x="424" y="320" on="1"/>
        <pt x="38" y="447" on="1"/>
        <pt x="38" y="548" on="1"/>
        <pt x="555" y="368" on="1"/>
        <pt x="555" y="271" on="1"/>
      </contour>
    </TTGlyph>
    <TTGlyph name="guillemotleft" xMin="50" yMin="97" xMax="357" yMax="481">
      <contour>
        <pt x="50" y="346" on="1"/>
        <pt x="194" y="481" on="1"/>
        <pt x="194" y="371" on="1"/>
        <pt x="106" y="289" on="1"/>
        <pt x="194" y="207" on="1"/>
        <pt x="194" y="97" on="1"/>
        <pt x="50" y="232" on="1"/>
      </contour>
      <contour>
        <pt x="213" y="346" on="1"/>
        <pt x="357" y="481" on="1"/>
        <pt x="357" y="371" on="1"/>
        <pt x="269" y="289" on="1"/>
        <pt x="357" y="207" on="1"/>
        <pt x="357" y="97" on="1"/>
        <pt x="213" y="232" on="1"/>
      </contour>
    </TTGlyph>
    <TTGlyph name="guillemotright" xMin="50" yMin="97" xMax="357" yMax="481">
      <contour>
        <pt x="357" y="232" on="1"/>
        <pt x="213" y="97" on="1"/>
        <pt x="213" y="207" on="1"/>
        <pt x="301" y="289" on="1"/>
        <pt x="213" y="371" on="1"/>
        <pt x="213" y="481" on="1"/>
        <pt x="357" y="346" on="1"/>
      </contour>
      <contour>
        <pt x="194" y="232" on="1"/>
        <pt x="50" y="97" on="1"/>
        <pt x="50" y="207" on="1"/>
        <pt x="138" y="289" on="1"/>
        <pt x="50" y="371" on="1"/>
        <pt x="50" y="481" on="1"/>
        <pt x="194" y="346" on="1"/>
      </contour>
    </TTGlyph>
    <TTGlyph name="guilsinglleft" xMin="48" yMin="97" xMax="192" yMax="481">
      <contour>
        <pt x="48" y="346" on="1"/>
        <pt x="192" y="481" on="1"/>
        <pt x="192" y="371" on="1"/>
        <pt x="104" y="289" on="1"/>
        <pt x="192" y="207" on="1"/>
        <pt x="192" y="97" on="1"/>
        <pt x="48" y="232" on="1"/>
      </contour>
    </TTGlyph>
    <TTGlyph name="guilsinglright" xMin="48" yMin="97" xMax="192" yMax="481">
      <contour>
        <pt x="192" y="232" on="1"/>
        <pt x="48" y="97" on="1"/>
        <pt x="48" y="207" on="1"/>
        <pt x="136" y="289" on="1"/>
        <pt x="48" y="371" on="1"/>
        <pt x="48" y="481" on="1"/>
        <pt x="192" y="346" on="1"/>
      </contour>
    </TTGlyph>
    <TTGlyph name="h" xMin="52" yMin="0" xMax="429" yMax="714">
      <contour>
        <pt x="52" y="714" on="1"/>
        <pt x="160" y="714" on="1"/>
        <pt x="160" y="480" on="1"/>
        <pt x="163" y="478" on="1"/>
        <pt x="186" y="513" on="0"/>
        <pt x="253" y="552" on="0"/>
        <pt x="295" y="552" on="1"/>
        <pt x="326" y="552" on="0"/>
        <pt x="375" y="537" on="0"/>
        <pt x="410" y="503" on="0"/>
        <pt x="429" y="447" on="0"/>
        <pt x="429" y="406" on="1"/>
        <pt x="429" y="0" on="1"/>
        <pt x="321" y="0" on="1"/>
        <pt x="321" y="369" on="1"/>
        <pt x="321" y="423" on="0"/>
        <pt x="288" y="466" on="0"/>
        <pt x="246" y="466" on="1"/>
        <pt x="213" y="466" on="0"/>
        <pt x="160" y="415" on="0"/>
        <pt x="160" y="361" on="1"/>
        <pt x="160" y="0" on="1"/>
        <pt x="52" y="0" on="1"/>
      </contour>
    </TTGlyph>
    <TTGlyph name="hbar" xMin="0" yMin="0" xMax="455" yMax="714">
      <contour>
        <pt x="78" y="714" on="1"/>
        <pt x="186" y="714" on="1"/>
        <pt x="186" y="641" on="1"/>
        <pt x="282" y="641" on="1"/>
        <pt x="282" y="589" on="1"/>
        <pt x="186" y="589" on="1"/>
        <pt x="186" y="480" on="1"/>
        <pt x="189" y="478" on="1"/>
        <pt x="212" y="513" on="0"/>
        <pt x="279" y="552" on="0"/>
        <pt x="321" y="552" on="1"/>
        <pt x="352" y="552" on="0"/>
        <pt x="401" y="537" on="0"/>
        <pt x="436" y="503" on="0"/>
        <pt x="455" y="447" on="0"/>
        <pt x="455" y="406" on="1"/>
        <pt x="455" y="0" on="1"/>
        <pt x="347" y="0" on="1"/>
        <pt x="347" y="369" on="1"/>
        <pt x="347" y="423" on="0"/>
        <pt x="314" y="466" on="0"/>
        <pt x="272" y="466" on="1"/>
        <pt x="239" y="466" on="0"/>
        <pt x="186" y="415" on="0"/>
        <pt x="186" y="361" on="1"/>
        <pt x="186" y="0" on="1"/>
        <pt x="78" y="0" on="1"/>
        <pt x="78" y="589" on="1"/>
        <pt x="0" y="589" on="1"/>
        <pt x="0" y="641" on="1"/>
        <pt x="78" y="641" on="1"/>
      </contour>
    </TTGlyph>
    <TTGlyph name="hcircumflex" xMin="52" yMin="0" xMax="429" yMax="906">
      <component glyphName="h" x="0" y="0" flags="0x204"/>
      <component glyphName="circumflex" x="127" y="154" flags="0x4"/>
    </TTGlyph>
    <TTGlyph name="hungarumlaut" xMin="-64" yMin="608" xMax="316" yMax="752">
      <contour>
        <pt x="196" y="752" on="1"/>
        <pt x="316" y="752" on="1"/>
        <pt x="210" y="608" on="1"/>
        <pt x="136" y="608" on="1"/>
      </contour>
      <contour>
        <pt x="-4" y="752" on="1"/>
        <pt x="116" y="752" on="1"/>
        <pt x="10" y="608" on="1"/>
        <pt x="-64" y="608" on="1"/>
      </contour>
    </TTGlyph>
    <TTGlyph name="hungarumlaut.cap" xMin="-64" yMin="608" xMax="316" yMax="752">
      <contour>
        <pt x="196" y="752" on="1"/>
        <pt x="316" y="752" on="1"/>
        <pt x="210" y="608" on="1"/>
        <pt x="136" y="608" on="1"/>
      </contour>
      <contour>
        <pt x="-4" y="752" on="1"/>
        <pt x="116" y="752" on="1"/>
        <pt x="10" y="608" on="1"/>
        <pt x="-64" y="608" on="1"/>
      </contour>
    </TTGlyph>
    <TTGlyph name="hyphen" xMin="45" yMin="238" xMax="307" yMax="340">
      <contour>
        <pt x="45" y="340" on="1"/>
        <pt x="307" y="340" on="1"/>
        <pt x="307" y="238" on="1"/>
        <pt x="45" y="238" on="1"/>
      </contour>
    </TTGlyph>
    <TTGlyph name="i" xMin="57" yMin="0" xMax="165" yMax="722">
      <contour>
        <pt x="57" y="722" on="1"/>
        <pt x="165" y="722" on="1"/>
        <pt x="165" y="614" on="1"/>
        <pt x="57" y="614" on="1"/>
      </contour>
      <contour>
        <pt x="57" y="538" on="1"/>
        <pt x="165" y="538" on="1"/>
        <pt x="165" y="0" on="1"/>
        <pt x="57" y="0" on="1"/>
      </contour>
    </TTGlyph>
    <TTGlyph name="iacute" xMin="57" yMin="0" xMax="238" yMax="752">
      <component glyphName="dotlessi" x="0" y="0" flags="0x204"/>
      <component glyphName="acute" x="2" y="0" flags="0x4"/>
    </TTGlyph>
    <TTGlyph name="icircumflex" xMin="-33" yMin="0" xMax="255" yMax="752">
      <component glyphName="dotlessi" x="0" y="0" flags="0x204"/>
      <component glyphName="circumflex" x="0" y="0" flags="0x4"/>
    </TTGlyph>
    <TTGlyph name="idieresis" xMin="-20" yMin="0" xMax="242" yMax="734">
      <component glyphName="dotlessi" x="0" y="0" flags="0x204"/>
      <component glyphName="dieresis" x="0" y="0" flags="0x4"/>
    </TTGlyph>
    <TTGlyph name="igrave" xMin="-18" yMin="0" xMax="165" yMax="752">
      <component glyphName="dotlessi" x="0" y="0" flags="0x204"/>
      <component glyphName="grave" x="-4" y="0" flags="0x4"/>
    </TTGlyph>
    <TTGlyph name="ij" xMin="57" yMin="-184" xMax="389" yMax="722">
      <component glyphName="i" x="0" y="0" flags="0x4"/>
      <component glyphName="j" x="224" y="0" flags="0x4"/>
    </TTGlyph>
    <TTGlyph name="imacron" xMin="-28" yMin="0" xMax="254" yMax="711">
      <component glyphName="dotlessi" x="0" y="0" flags="0x204"/>
      <component glyphName="macron" x="2" y="0" flags="0x4"/>
    </TTGlyph>
    <TTGlyph name="infinity" xMin="44" yMin="86" xMax="752" yMax="431">
      <contour>
        <pt x="346" y="256" on="1"/>
        <pt x="333" y="269" on="0"/>
        <pt x="300" y="300" on="0"/>
        <pt x="263" y="326" on="0"/>
        <pt x="223" y="344" on="0"/>
        <pt x="203" y="344" on="1"/>
        <pt x="167" y="344" on="0"/>
        <pt x="125" y="291" on="0"/>
        <pt x="125" y="257" on="1"/>
        <pt x="125" y="220" on="0"/>
        <pt x="169" y="174" on="0"/>
        <pt x="207" y="174" on="1"/>
        <pt x="226" y="174" on="0"/>
        <pt x="265" y="189" on="0"/>
        <pt x="302" y="213" on="0"/>
        <pt x="334" y="242" on="0"/>
      </contour>
      <contour>
        <pt x="671" y="257" on="1"/>
        <pt x="671" y="294" on="0"/>
        <pt x="629" y="345" on="0"/>
        <pt x="590" y="345" on="1"/>
        <pt x="570" y="345" on="0"/>
        <pt x="532" y="327" on="0"/>
        <pt x="496" y="301" on="0"/>
        <pt x="464" y="269" on="0"/>
        <pt x="451" y="256" on="1"/>
        <pt x="465" y="242" on="0"/>
        <pt x="497" y="212" on="0"/>
        <pt x="532" y="188" on="0"/>
        <pt x="571" y="173" on="0"/>
        <pt x="592" y="173" on="1"/>
        <pt x="630" y="173" on="0"/>
        <pt x="671" y="221" on="0"/>
      </contour>
      <contour>
        <pt x="752" y="260" on="1"/>
        <pt x="752" y="224" on="0"/>
        <pt x="730" y="160" on="0"/>
        <pt x="689" y="113" on="0"/>
        <pt x="629" y="86" on="0"/>
        <pt x="591" y="86" on="1"/>
        <pt x="561" y="86" on="0"/>
        <pt x="508" y="105" on="0"/>
        <pt x="461" y="137" on="0"/>
        <pt x="418" y="177" on="0"/>
        <pt x="399" y="198" on="1"/>
        <pt x="378" y="177" on="0"/>
        <pt x="337" y="138" on="0"/>
        <pt x="291" y="106" on="0"/>
        <pt x="238" y="87" on="0"/>
        <pt x="207" y="87" on="1"/>
        <pt x="169" y="87" on="0"/>
        <pt x="109" y="113" on="0"/>
        <pt x="67" y="159" on="0"/>
        <pt x="44" y="222" on="0"/>
        <pt x="44" y="258" on="1"/>
        <pt x="44" y="294" on="0"/>
        <pt x="66" y="357" on="0"/>
        <pt x="107" y="403" on="0"/>
        <pt x="166" y="430" on="0"/>
        <pt x="204" y="430" on="1"/>
        <pt x="236" y="430" on="0"/>
        <pt x="290" y="410" on="0"/>
        <pt x="337" y="377" on="0"/>
        <pt x="379" y="335" on="0"/>
        <pt x="399" y="313" on="1"/>
        <pt x="418" y="335" on="0"/>
        <pt x="459" y="377" on="0"/>
        <pt x="506" y="410" on="0"/>
        <pt x="560" y="431" on="0"/>
        <pt x="591" y="431" on="1"/>
        <pt x="628" y="431" on="0"/>
        <pt x="688" y="405" on="0"/>
        <pt x="730" y="358" on="0"/>
        <pt x="752" y="296" on="0"/>
      </contour>
    </TTGlyph>
    <TTGlyph name="integral" xMin="94" yMin="-214" xMax="461" yMax="786">
      <contour>
        <pt x="461" y="717" on="1"/>
        <pt x="461" y="697" on="0"/>
        <pt x="433" y="669" on="0"/>
        <pt x="413" y="669" on="1"/>
        <pt x="394" y="669" on="0"/>
        <pt x="373" y="688" on="0"/>
        <pt x="361" y="710" on="0"/>
        <pt x="352" y="729" on="0"/>
        <pt x="345" y="729" on="1"/>
        <pt x="331" y="729" on="0"/>
        <pt x="323" y="705" on="0"/>
        <pt x="323" y="694" on="1"/>
        <pt x="323" y="661" on="0"/>
        <pt x="326" y="596" on="0"/>
        <pt x="326" y="563" on="1"/>
        <pt x="326" y="-2" on="1"/>
        <pt x="326" y="-38" on="0"/>
        <pt x="317" y="-113" on="0"/>
        <pt x="288" y="-174" on="0"/>
        <pt x="234" y="-214" on="0"/>
        <pt x="188" y="-214" on="1"/>
        <pt x="173" y="-214" on="0"/>
        <pt x="140" y="-206" on="0"/>
        <pt x="112" y="-189" on="0"/>
        <pt x="94" y="-163" on="0"/>
        <pt x="94" y="-146" on="1"/>
        <pt x="94" y="-126" on="0"/>
        <pt x="118" y="-100" on="0"/>
        <pt x="138" y="-100" on="1"/>
        <pt x="157" y="-100" on="0"/>
        <pt x="177" y="-119" on="0"/>
        <pt x="189" y="-143" on="0"/>
        <pt x="197" y="-162" on="0"/>
        <pt x="205" y="-162" on="1"/>
        <pt x="212" y="-162" on="0"/>
        <pt x="221" y="-152" on="0"/>
        <pt x="224" y="-138" on="0"/>
        <pt x="225" y="-122" on="0"/>
        <pt x="225" y="-117" on="1"/>
        <pt x="225" y="-93" on="0"/>
        <pt x="223" y="-45" on="0"/>
        <pt x="223" y="-21" on="1"/>
        <pt x="223" y="522" on="1"/>
        <pt x="223" y="561" on="0"/>
        <pt x="224" y="654" on="0"/>
        <pt x="248" y="733" on="0"/>
        <pt x="306" y="786" on="0"/>
        <pt x="362" y="786" on="1"/>
        <pt x="377" y="786" on="0"/>
        <pt x="412" y="778" on="0"/>
        <pt x="442" y="762" on="0"/>
        <pt x="461" y="736" on="0"/>
      </contour>
    </TTGlyph>
    <TTGlyph name="iogonek" xMin="17" yMin="-223" xMax="204" yMax="722">
      <contour>
        <pt x="165" y="0" on="1"/>
        <pt x="126" y="-38" on="0"/>
        <pt x="97" y="-91" on="0"/>
        <pt x="97" y="-120" on="1"/>
        <pt x="97" y="-148" on="0"/>
        <pt x="128" y="-177" on="0"/>
        <pt x="154" y="-177" on="1"/>
        <pt x="163" y="-177" on="0"/>
        <pt x="188" y="-173" on="0"/>
        <pt x="198" y="-170" on="1"/>
        <pt x="204" y="-212" on="1"/>
        <pt x="187" y="-217" on="0"/>
        <pt x="145" y="-223" on="0"/>
        <pt x="126" y="-223" on="1"/>
        <pt x="78" y="-223" on="0"/>
        <pt x="17" y="-180" on="0"/>
        <pt x="17" y="-132" on="1"/>
        <pt x="17" y="-95" on="0"/>
        <pt x="73" y="-24" on="0"/>
        <pt x="115" y="0" on="1"/>
        <pt x="57" y="0" on="1"/>
        <pt x="57" y="538" on="1"/>
        <pt x="165" y="538" on="1"/>
      </contour>
      <contour>
        <pt x="57" y="722" on="1"/>
        <pt x="165" y="722" on="1"/>
        <pt x="165" y="614" on="1"/>
        <pt x="57" y="614" on="1"/>
      </contour>
    </TTGlyph>
    <TTGlyph name="itilde" xMin="-39" yMin="0" xMax="263" yMax="742">
      <component glyphName="dotlessi" x="0" y="0" flags="0x204"/>
      <component glyphName="tilde" x="1" y="0" flags="0x4"/>
    </TTGlyph>
    <TTGlyph name="j" xMin="-24" yMin="-184" xMax="165" yMax="722">
      <contour>
        <pt x="165" y="722" on="1"/>
        <pt x="165" y="614" on="1"/>
        <pt x="57" y="614" on="1"/>
        <pt x="57" y="722" on="1"/>
      </contour>
      <contour>
        <pt x="165" y="538" on="1"/>
        <pt x="165" y="-35" on="1"/>
        <pt x="165" y="-119" on="0"/>
        <pt x="94" y="-184" on="0"/>
        <pt x="23" y="-184" on="1"/>
        <pt x="0" y="-184" on="0"/>
        <pt x="-24" y="-181" on="1"/>
        <pt x="-24" y="-98" on="1"/>
        <pt x="1" y="-98" on="1"/>
        <pt x="32" y="-98" on="0"/>
        <pt x="57" y="-68" on="0"/>
        <pt x="57" y="-25" on="1"/>
        <pt x="57" y="538" on="1"/>
      </contour>
    </TTGlyph>
    <TTGlyph name="jcircumflex" xMin="-33" yMin="-184" xMax="255" yMax="752">
      <component glyphName="dotlessj" x="0" y="0" flags="0x204"/>
      <component glyphName="circumflex" x="0" y="0" flags="0x4"/>
    </TTGlyph>
    <TTGlyph name="k" xMin="52" yMin="0" xMax="471" yMax="714">
      <contour>
        <pt x="52" y="714" on="1"/>
        <pt x="160" y="714" on="1"/>
        <pt x="160" y="313" on="1"/>
        <pt x="162" y="313" on="1"/>
        <pt x="325" y="538" on="1"/>
        <pt x="450" y="539" on="1"/>
        <pt x="288" y="331" on="1"/>
        <pt x="471" y="0" on="1"/>
        <pt x="353" y="0" on="1"/>
        <pt x="221" y="245" on="1"/>
        <pt x="160" y="171" on="1"/>
        <pt x="160" y="0" on="1"/>
        <pt x="52" y="0" on="1"/>
      </contour>
    </TTGlyph>
    <TTGlyph name="kcommaaccent" xMin="52" yMin="-223" xMax="471" yMax="714">
      <component glyphName="k" x="0" y="0" flags="0x204"/>
      <component glyphName="commaaccent" x="128" y="0" flags="0x4"/>
    </TTGlyph>
    <TTGlyph name="l" xMin="57" yMin="0" xMax="165" yMax="714">
      <contour>
        <pt x="57" y="714" on="1"/>
        <pt x="165" y="714" on="1"/>
        <pt x="165" y="0" on="1"/>
        <pt x="57" y="0" on="1"/>
      </contour>
    </TTGlyph>
    <TTGlyph name="lacute" xMin="57" yMin="0" xMax="238" yMax="906">
      <component glyphName="l" x="0" y="0" flags="0x204"/>
      <component glyphName="acute" x="2" y="154" flags="0x4"/>
    </TTGlyph>
    <TTGlyph name="lcaron" xMin="57" yMin="0" xMax="340" yMax="714">
      <component glyphName="l" x="0" y="0" flags="0x4"/>
      <component glyphName="caron.alt" x="151" y="0" flags="0x4"/>
    </TTGlyph>
    <TTGlyph name="lcommaaccent" xMin="57" yMin="-223" xMax="165" yMax="714">
      <component glyphName="l" x="0" y="0" flags="0x204"/>
      <component glyphName="commaaccent" x="-8" y="0" flags="0x4"/>
    </TTGlyph>
    <TTGlyph name="ldot" xMin="57" yMin="0" xMax="317" yMax="714">
      <component glyphName="l" x="0" y="0" flags="0x4"/>
      <component glyphName="dotaccent" x="158" y="-195" flags="0x4"/>
    </TTGlyph>
    <TTGlyph name="less" xMin="47" yMin="-10" xMax="553" yMax="516">
      <contour>
        <pt x="47" y="290" on="1"/>
        <pt x="553" y="516" on="1"/>
        <pt x="553" y="430" on="1"/>
        <pt x="149" y="253" on="1"/>
        <pt x="553" y="76" on="1"/>
        <pt x="553" y="-10" on="1"/>
        <pt x="47" y="216" on="1"/>
      </contour>
    </TTGlyph>
    <TTGlyph name="lessequal" xMin="38" yMin="-34" xMax="555" yMax="548">
      <contour>
        <pt x="38" y="-34" on="1"/>
        <pt x="38" y="62" on="1"/>
        <pt x="555" y="62" on="1"/>
        <pt x="555" y="-34" on="1"/>
      </contour>
      <contour>
        <pt x="38" y="271" on="1"/>
        <pt x="38" y="368" on="1"/>
        <pt x="555" y="548" on="1"/>
        <pt x="555" y="447" on="1"/>
        <pt x="168" y="320" on="1"/>
        <pt x="555" y="197" on="1"/>
        <pt x="555" y="96" on="1"/>
      </contour>
    </TTGlyph>
    <TTGlyph name="logicalnot" xMin="47" yMin="106" xMax="553" yMax="400">
      <contour>
        <pt x="467" y="314" on="1"/>
        <pt x="47" y="314" on="1"/>
        <pt x="47" y="400" on="1"/>
        <pt x="553" y="400" on="1"/>
        <pt x="553" y="106" on="1"/>
        <pt x="467" y="106" on="1"/>
      </contour>
    </TTGlyph>
    <TTGlyph name="lozenge" xMin="76" yMin="-35" xMax="517" yMax="747">
      <contour>
        <pt x="296" y="650" on="1"/>
        <pt x="174" y="356" on="1"/>
        <pt x="296" y="60" on="1"/>
        <pt x="419" y="356" on="1"/>
      </contour>
      <contour>
        <pt x="341" y="-35" on="1"/>
        <pt x="250" y="-35" on="1"/>
        <pt x="76" y="356" on="1"/>
        <pt x="250" y="747" on="1"/>
        <pt x="341" y="747" on="1"/>
        <pt x="517" y="356" on="1"/>
      </contour>
    </TTGlyph>
    <TTGlyph name="lslash" xMin="0" yMin="0" xMax="222" yMax="714">
      <contour>
        <pt x="57" y="286" on="1"/>
        <pt x="0" y="246" on="1"/>
        <pt x="0" y="342" on="1"/>
        <pt x="57" y="382" on="1"/>
        <pt x="57" y="714" on="1"/>
        <pt x="165" y="714" on="1"/>
        <pt x="165" y="456" on="1"/>
        <pt x="222" y="496" on="1"/>
        <pt x="222" y="400" on="1"/>
        <pt x="165" y="360" on="1"/>
        <pt x="165" y="0" on="1"/>
        <pt x="57" y="0" on="1"/>
      </contour>
    </TTGlyph>
    <TTGlyph name="m" xMin="57" yMin="0" xMax="683" yMax="552">
      <contour>
        <pt x="57" y="538" on="1"/>
        <pt x="159" y="538" on="1"/>
        <pt x="159" y="475" on="1"/>
        <pt x="162" y="475" on="1"/>
        <pt x="182" y="511" on="0"/>
        <pt x="253" y="552" on="0"/>
        <pt x="291" y="552" on="1"/>
        <pt x="320" y="552" on="0"/>
        <pt x="362" y="539" on="0"/>
        <pt x="391" y="517" on="0"/>
        <pt x="410" y="487" on="0"/>
        <pt x="416" y="470" on="1"/>
        <pt x="439" y="509" on="0"/>
        <pt x="503" y="552" on="0"/>
        <pt x="552" y="552" on="1"/>
        <pt x="609" y="552" on="0"/>
        <pt x="683" y="487" on="0"/>
        <pt x="683" y="409" on="1"/>
        <pt x="683" y="0" on="1"/>
        <pt x="575" y="0" on="1"/>
        <pt x="575" y="369" on="1"/>
        <pt x="575" y="423" on="0"/>
        <pt x="543" y="466" on="0"/>
        <pt x="510" y="466" on="1"/>
        <pt x="477" y="466" on="0"/>
        <pt x="424" y="415" on="0"/>
        <pt x="424" y="361" on="1"/>
        <pt x="424" y="0" on="1"/>
        <pt x="316" y="0" on="1"/>
        <pt x="316" y="369" on="1"/>
        <pt x="316" y="423" on="0"/>
        <pt x="284" y="466" on="0"/>
        <pt x="250" y="466" on="1"/>
        <pt x="217" y="466" on="0"/>
        <pt x="165" y="415" on="0"/>
        <pt x="165" y="361" on="1"/>
        <pt x="165" y="0" on="1"/>
        <pt x="57" y="0" on="1"/>
      </contour>
    </TTGlyph>
    <TTGlyph name="macron" xMin="-30" yMin="649" xMax="252" yMax="711">
      <contour>
        <pt x="252" y="711" on="1"/>
        <pt x="252" y="649" on="1"/>
        <pt x="-30" y="649" on="1"/>
        <pt x="-30" y="711" on="1"/>
      </contour>
    </TTGlyph>
    <TTGlyph name="macron.cap" xMin="-30" yMin="649" xMax="252" yMax="711">
      <contour>
        <pt x="252" y="711" on="1"/>
        <pt x="252" y="649" on="1"/>
        <pt x="-30" y="649" on="1"/>
        <pt x="-30" y="711" on="1"/>
      </contour>
    </TTGlyph>
    <TTGlyph name="minus" xMin="47" yMin="210" xMax="553" yMax="296">
      <contour>
        <pt x="47" y="296" on="1"/>
        <pt x="553" y="296" on="1"/>
        <pt x="553" y="210" on="1"/>
        <pt x="47" y="210" on="1"/>
      </contour>
    </TTGlyph>
    <TTGlyph name="mu" xMin="52" yMin="-176" xMax="429" yMax="538">
      <contour>
        <pt x="52" y="538" on="1"/>
        <pt x="160" y="538" on="1"/>
        <pt x="160" y="169" on="1"/>
        <pt x="160" y="115" on="0"/>
        <pt x="193" y="72" on="0"/>
        <pt x="235" y="72" on="1"/>
        <pt x="268" y="72" on="0"/>
        <pt x="321" y="123" on="0"/>
        <pt x="321" y="177" on="1"/>
        <pt x="321" y="538" on="1"/>
        <pt x="429" y="538" on="1"/>
        <pt x="429" y="0" on="1"/>
        <pt x="327" y="0" on="1"/>
        <pt x="327" y="63" on="1"/>
        <pt x="324" y="63" on="1"/>
        <pt x="304" y="27" on="0"/>
        <pt x="242" y="-14" on="0"/>
        <pt x="210" y="-14" on="1"/>
        <pt x="192" y="-14" on="0"/>
        <pt x="167" y="-3" on="0"/>
        <pt x="160" y="4" on="1"/>
        <pt x="160" y="-176" on="1"/>
        <pt x="52" y="-176" on="1"/>
      </contour>
    </TTGlyph>
    <TTGlyph name="multiply" xMin="70" yMin="23" xMax="530" yMax="483">
      <contour>
        <pt x="70" y="427" on="1"/>
        <pt x="126" y="483" on="1"/>
        <pt x="299" y="309" on="1"/>
        <pt x="474" y="483" on="1"/>
        <pt x="530" y="427" on="1"/>
        <pt x="355" y="253" on="1"/>
        <pt x="530" y="79" on="1"/>
        <pt x="474" y="23" on="1"/>
        <pt x="299" y="198" on="1"/>
        <pt x="126" y="23" on="1"/>
        <pt x="70" y="79" on="1"/>
        <pt x="244" y="253" on="1"/>
      </contour>
    </TTGlyph>
    <TTGlyph name="n" xMin="52" yMin="0" xMax="429" yMax="552">
      <contour>
        <pt x="52" y="538" on="1"/>
        <pt x="154" y="538" on="1"/>
        <pt x="154" y="475" on="1"/>
        <pt x="157" y="475" on="1"/>
        <pt x="177" y="511" on="0"/>
        <pt x="250" y="552" on="0"/>
        <pt x="295" y="552" on="1"/>
        <pt x="326" y="552" on="0"/>
        <pt x="375" y="537" on="0"/>
        <pt x="410" y="503" on="0"/>
        <pt x="429" y="447" on="0"/>
        <pt x="429" y="406" on="1"/>
        <pt x="429" y="0" on="1"/>
        <pt x="321" y="0" on="1"/>
        <pt x="321" y="369" on="1"/>
        <pt x="321" y="423" on="0"/>
        <pt x="288" y="466" on="0"/>
        <pt x="246" y="466" on="1"/>
        <pt x="213" y="466" on="0"/>
        <pt x="160" y="415" on="0"/>
        <pt x="160" y="361" on="1"/>
        <pt x="160" y="0" on="1"/>
        <pt x="52" y="0" on="1"/>
      </contour>
    </TTGlyph>
    <TTGlyph name="nacute" xMin="52" yMin="0" xMax="429" yMax="752">
      <component glyphName="n" x="0" y="0" flags="0x204"/>
      <component glyphName="acute" x="141" y="0" flags="0x4"/>
    </TTGlyph>
    <TTGlyph name="napostrophe" xMin="28" yMin="0" xMax="449" yMax="813">
      <component glyphName="n" x="20" y="0" flags="0x4"/>
      <component glyphName="commaaccent" x="-44" y="863" flags="0x4"/>
    </TTGlyph>
    <TTGlyph name="ncaron" xMin="52" yMin="0" xMax="429" yMax="752">
      <component glyphName="n" x="0" y="0" flags="0x204"/>
      <component glyphName="caron" x="129" y="0" flags="0x4"/>
    </TTGlyph>
    <TTGlyph name="ncommaaccent" xMin="52" yMin="-223" xMax="429" yMax="552">
      <component glyphName="n" x="0" y="0" flags="0x204"/>
      <component glyphName="commaaccent" x="118" y="0" flags="0x4"/>
    </TTGlyph>
    <TTGlyph name="nine" xMin="25" yMin="-14" xMax="455" yMax="708">
      <contour>
        <pt x="331" y="481" on="1"/>
        <pt x="331" y="512" on="0"/>
        <pt x="319" y="565" on="0"/>
        <pt x="295" y="605" on="0"/>
        <pt x="258" y="628" on="0"/>
        <pt x="233" y="628" on="1"/>
        <pt x="207" y="628" on="0"/>
        <pt x="171" y="604" on="0"/>
        <pt x="149" y="562" on="0"/>
        <pt x="139" y="507" on="0"/>
        <pt x="139" y="476" on="1"/>
        <pt x="139" y="401" on="0"/>
        <pt x="184" y="323" on="0"/>
        <pt x="233" y="323" on="1"/>
        <pt x="264" y="323" on="0"/>
        <pt x="303" y="348" on="0"/>
        <pt x="324" y="392" on="0"/>
        <pt x="331" y="449" on="0"/>
      </contour>
      <contour>
        <pt x="152" y="158" on="1"/>
        <pt x="152" y="143" on="0"/>
        <pt x="160" y="110" on="0"/>
        <pt x="178" y="83" on="0"/>
        <pt x="207" y="66" on="0"/>
        <pt x="228" y="66" on="1"/>
        <pt x="268" y="66" on="0"/>
        <pt x="313" y="113" on="0"/>
        <pt x="336" y="185" on="0"/>
        <pt x="341" y="271" on="0"/>
        <pt x="341" y="310" on="1"/>
        <pt x="338" y="312" on="1"/>
        <pt x="297" y="237" on="0"/>
        <pt x="200" y="237" on="1"/>
        <pt x="164" y="237" on="0"/>
        <pt x="100" y="263" on="0"/>
        <pt x="52" y="316" on="0"/>
        <pt x="25" y="395" on="0"/>
        <pt x="25" y="448" on="1"/>
        <pt x="25" y="570" on="0"/>
        <pt x="129" y="708" on="0"/>
        <pt x="242" y="708" on="1"/>
        <pt x="309" y="708" on="0"/>
        <pt x="392" y="659" on="0"/>
        <pt x="439" y="570" on="0"/>
        <pt x="455" y="445" on="0"/>
        <pt x="455" y="369" on="1"/>
        <pt x="455" y="289" on="0"/>
        <pt x="437" y="150" on="0"/>
        <pt x="387" y="46" on="0"/>
        <pt x="299" y="-14" on="0"/>
        <pt x="229" y="-14" on="1"/>
        <pt x="135" y="-14" on="0"/>
        <pt x="38" y="70" on="0"/>
        <pt x="38" y="158" on="1"/>
      </contour>
    </TTGlyph>
    <TTGlyph name="notequal" xMin="38" yMin="-48" xMax="555" yMax="563">
      <contour>
        <pt x="269" y="102" on="1"/>
        <pt x="191" y="-48" on="1"/>
        <pt x="108" y="-6" on="1"/>
        <pt x="164" y="102" on="1"/>
        <pt x="38" y="102" on="1"/>
        <pt x="38" y="198" on="1"/>
        <pt x="212" y="198" on="1"/>
        <pt x="273" y="317" on="1"/>
        <pt x="38" y="317" on="1"/>
        <pt x="38" y="413" on="1"/>
        <pt x="322" y="413" on="1"/>
        <pt x="400" y="563" on="1"/>
        <pt x="483" y="521" on="1"/>
        <pt x="428" y="413" on="1"/>
        <pt x="555" y="413" on="1"/>
        <pt x="555" y="317" on="1"/>
        <pt x="379" y="317" on="1"/>
        <pt x="317" y="198" on="1"/>
        <pt x="555" y="198" on="1"/>
        <pt x="555" y="102" on="1"/>
      </contour>
    </TTGlyph>
    <TTGlyph name="ntilde" xMin="52" yMin="0" xMax="429" yMax="742">
      <component glyphName="n" x="0" y="0" flags="0x204"/>
      <component glyphName="tilde" x="129" y="0" flags="0x4"/>
    </TTGlyph>
    <TTGlyph name="numbersign" xMin="-3" yMin="0" xMax="483" yMax="694">
      <contour>
        <pt x="-3" y="274" on="1"/>
        <pt x="94" y="274" on="1"/>
        <pt x="114" y="420" on="1"/>
        <pt x="26" y="420" on="1"/>
        <pt x="26" y="494" on="1"/>
        <pt x="124" y="494" on="1"/>
        <pt x="152" y="694" on="1"/>
        <pt x="235" y="694" on="1"/>
        <pt x="207" y="494" on="1"/>
        <pt x="313" y="494" on="1"/>
        <pt x="341" y="694" on="1"/>
        <pt x="424" y="694" on="1"/>
        <pt x="396" y="494" on="1"/>
        <pt x="483" y="494" on="1"/>
        <pt x="483" y="420" on="1"/>
        <pt x="386" y="420" on="1"/>
        <pt x="366" y="274" on="1"/>
        <pt x="454" y="274" on="1"/>
        <pt x="454" y="200" on="1"/>
        <pt x="356" y="200" on="1"/>
        <pt x="328" y="0" on="1"/>
        <pt x="245" y="0" on="1"/>
        <pt x="273" y="200" on="1"/>
        <pt x="167" y="200" on="1"/>
        <pt x="139" y="0" on="1"/>
        <pt x="56" y="0" on="1"/>
        <pt x="84" y="200" on="1"/>
        <pt x="-3" y="200" on="1"/>
      </contour>
      <contour>
        <pt x="283" y="274" on="1"/>
        <pt x="303" y="420" on="1"/>
        <pt x="197" y="420" on="1"/>
        <pt x="177" y="274" on="1"/>
      </contour>
    </TTGlyph>
    <TTGlyph name="o" xMin="31" yMin="-14" xMax="432" yMax="552">
      <contour>
        <pt x="139" y="269" on="1"/>
        <pt x="139" y="218" on="0"/>
        <pt x="146" y="141" on="0"/>
        <pt x="166" y="91" on="0"/>
        <pt x="202" y="66" on="0"/>
        <pt x="231" y="66" on="1"/>
        <pt x="261" y="66" on="0"/>
        <pt x="297" y="91" on="0"/>
        <pt x="317" y="141" on="0"/>
        <pt x="324" y="218" on="0"/>
        <pt x="324" y="269" on="1"/>
        <pt x="324" y="314" on="0"/>
        <pt x="317" y="388" on="0"/>
        <pt x="297" y="442" on="0"/>
        <pt x="261" y="472" on="0"/>
        <pt x="231" y="472" on="1"/>
        <pt x="202" y="472" on="0"/>
        <pt x="166" y="442" on="0"/>
        <pt x="146" y="388" on="0"/>
        <pt x="139" y="314" on="0"/>
      </contour>
      <contour>
        <pt x="231" y="-14" on="1"/>
        <pt x="175" y="-14" on="0"/>
        <pt x="99" y="27" on="0"/>
        <pt x="52" y="102" on="0"/>
        <pt x="31" y="206" on="0"/>
        <pt x="31" y="269" on="1"/>
        <pt x="31" y="332" on="0"/>
        <pt x="50" y="436" on="0"/>
        <pt x="95" y="511" on="0"/>
        <pt x="172" y="552" on="0"/>
        <pt x="231" y="552" on="1"/>
        <pt x="289" y="552" on="0"/>
        <pt x="367" y="511" on="0"/>
        <pt x="413" y="436" on="0"/>
        <pt x="432" y="332" on="0"/>
        <pt x="432" y="269" on="1"/>
        <pt x="432" y="206" on="0"/>
        <pt x="411" y="102" on="0"/>
        <pt x="364" y="27" on="0"/>
        <pt x="287" y="-14" on="0"/>
      </contour>
    </TTGlyph>
    <TTGlyph name="oacute" xMin="31" yMin="-14" xMax="432" yMax="752">
      <component glyphName="o" x="0" y="0" flags="0x204"/>
      <component glyphName="acute" x="134" y="0" flags="0x4"/>
    </TTGlyph>
    <TTGlyph name="obreve" xMin="31" yMin="-14" xMax="432" yMax="748">
      <component glyphName="o" x="0" y="0" flags="0x204"/>
      <component glyphName="breve" x="120" y="0" flags="0x4"/>
    </TTGlyph>
    <TTGlyph name="ocircumflex" xMin="31" yMin="-14" xMax="432" yMax="752">
      <component glyphName="o" x="0" y="0" flags="0x204"/>
      <component glyphName="circumflex" x="120" y="0" flags="0x4"/>
    </TTGlyph>
    <TTGlyph name="odieresis" xMin="31" yMin="-14" xMax="432" yMax="734">
      <component glyphName="o" x="0" y="0" flags="0x204"/>
      <component glyphName="dieresis" x="120" y="0" flags="0x4"/>
    </TTGlyph>
    <TTGlyph name="oe" xMin="31" yMin="-14" xMax="691" yMax="552">
      <contour>
        <pt x="139" y="269" on="1"/>
        <pt x="139" y="224" on="0"/>
        <pt x="146" y="150" on="0"/>
        <pt x="165" y="96" on="0"/>
        <pt x="199" y="66" on="0"/>
        <pt x="227" y="66" on="1"/>
        <pt x="257" y="66" on="0"/>
        <pt x="293" y="96" on="0"/>
        <pt x="313" y="150" on="0"/>
        <pt x="320" y="224" on="0"/>
        <pt x="320" y="269" on="1"/>
        <pt x="320" y="314" on="0"/>
        <pt x="313" y="388" on="0"/>
        <pt x="293" y="442" on="0"/>
        <pt x="257" y="472" on="0"/>
        <pt x="227" y="472" on="1"/>
        <pt x="199" y="472" on="0"/>
        <pt x="165" y="442" on="0"/>
        <pt x="146" y="388" on="0"/>
        <pt x="139" y="314" on="0"/>
      </contour>
      <contour>
        <pt x="689" y="180" on="1"/>
        <pt x="689" y="89" on="0"/>
        <pt x="588" y="-14" on="0"/>
        <pt x="500" y="-14" on="1"/>
        <pt x="463" y="-14" on="0"/>
        <pt x="414" y="8" on="0"/>
        <pt x="384" y="38" on="0"/>
        <pt x="370" y="66" on="0"/>
        <pt x="368" y="72" on="1"/>
        <pt x="345" y="26" on="0"/>
        <pt x="271" y="-14" on="0"/>
        <pt x="220" y="-14" on="1"/>
        <pt x="166" y="-14" on="0"/>
        <pt x="93" y="27" on="0"/>
        <pt x="49" y="102" on="0"/>
        <pt x="31" y="206" on="0"/>
        <pt x="31" y="269" on="1"/>
        <pt x="31" y="332" on="0"/>
        <pt x="49" y="436" on="0"/>
        <pt x="94" y="511" on="0"/>
        <pt x="170" y="552" on="0"/>
        <pt x="227" y="552" on="1"/>
        <pt x="264" y="552" on="0"/>
        <pt x="314" y="536" on="0"/>
        <pt x="348" y="511" on="0"/>
        <pt x="368" y="482" on="0"/>
        <pt x="375" y="470" on="1"/>
        <pt x="400" y="512" on="0"/>
        <pt x="465" y="552" on="0"/>
        <pt x="516" y="552" on="1"/>
        <pt x="567" y="552" on="0"/>
        <pt x="634" y="519" on="0"/>
        <pt x="674" y="457" on="0"/>
        <pt x="691" y="368" on="0"/>
        <pt x="691" y="312" on="1"/>
        <pt x="691" y="255" on="1"/>
        <pt x="422" y="255" on="1"/>
        <pt x="422" y="217" on="1"/>
        <pt x="422" y="187" on="0"/>
        <pt x="429" y="132" on="0"/>
        <pt x="446" y="88" on="0"/>
        <pt x="477" y="61" on="0"/>
        <pt x="501" y="60" on="1"/>
        <pt x="530" y="60" on="0"/>
        <pt x="564" y="88" on="0"/>
        <pt x="582" y="127" on="0"/>
        <pt x="587" y="168" on="0"/>
        <pt x="587" y="180" on="1"/>
      </contour>
      <contour>
        <pt x="583" y="329" on="1"/>
        <pt x="583" y="358" on="1"/>
        <pt x="583" y="409" on="0"/>
        <pt x="548" y="478" on="0"/>
        <pt x="505" y="478" on="1"/>
        <pt x="481" y="478" on="0"/>
        <pt x="449" y="451" on="0"/>
        <pt x="430" y="412" on="0"/>
        <pt x="423" y="368" on="0"/>
        <pt x="423" y="352" on="1"/>
        <pt x="423" y="329" on="1"/>
      </contour>
    </TTGlyph>
    <TTGlyph name="ogonek" xMin="23" yMin="-223" xMax="210" yMax="0">
      <contour>
        <pt x="171" y="0" on="1"/>
        <pt x="132" y="-38" on="0"/>
        <pt x="103" y="-91" on="0"/>
        <pt x="103" y="-120" on="1"/>
        <pt x="103" y="-148" on="0"/>
        <pt x="134" y="-177" on="0"/>
        <pt x="160" y="-177" on="1"/>
        <pt x="169" y="-177" on="0"/>
        <pt x="194" y="-173" on="0"/>
        <pt x="204" y="-170" on="1"/>
        <pt x="210" y="-212" on="1"/>
        <pt x="193" y="-217" on="0"/>
        <pt x="151" y="-223" on="0"/>
        <pt x="132" y="-223" on="1"/>
        <pt x="84" y="-223" on="0"/>
        <pt x="23" y="-180" on="0"/>
        <pt x="23" y="-132" on="1"/>
        <pt x="23" y="-95" on="0"/>
        <pt x="79" y="-24" on="0"/>
        <pt x="121" y="0" on="1"/>
      </contour>
    </TTGlyph>
    <TTGlyph name="ograve" xMin="31" yMin="-14" xMax="432" yMax="752">
      <component glyphName="o" x="0" y="0" flags="0x204"/>
      <component glyphName="grave" x="111" y="0" flags="0x4"/>
    </TTGlyph>
    <TTGlyph name="ohungarumlaut" xMin="31" yMin="-14" xMax="474" yMax="752">
      <component glyphName="o" x="0" y="0" flags="0x204"/>
      <component glyphName="hungarumlaut" x="158" y="0" flags="0x4"/>
    </TTGlyph>
    <TTGlyph name="omacron" xMin="31" yMin="-14" xMax="432" yMax="711">
      <component glyphName="o" x="0" y="0" flags="0x204"/>
      <component glyphName="macron" x="120" y="0" flags="0x4"/>
    </TTGlyph>
    <TTGlyph name="one" xMin="60" yMin="0" xMax="321" yMax="708">
      <contour>
        <pt x="207" y="0" on="1"/>
        <pt x="207" y="514" on="1"/>
        <pt x="60" y="514" on="1"/>
        <pt x="60" y="588" on="1"/>
        <pt x="71" y="588" on="1"/>
        <pt x="96" y="588" on="0"/>
        <pt x="149" y="596" on="0"/>
        <pt x="195" y="619" on="0"/>
        <pt x="230" y="661" on="0"/>
        <pt x="238" y="694" on="1"/>
        <pt x="238" y="708" on="1"/>
        <pt x="321" y="708" on="1"/>
        <pt x="321" y="0" on="1"/>
      </contour>
    </TTGlyph>
    <TTGlyph name="onehalf" xMin="10" yMin="-31" xMax="691" yMax="725">
      <contour>
        <pt x="411" y="0" on="1"/>
        <pt x="411" y="50" on="0"/>
        <pt x="440" y="117" on="0"/>
        <pt x="483" y="166" on="0"/>
        <pt x="533" y="201" on="0"/>
        <pt x="576" y="237" on="0"/>
        <pt x="605" y="278" on="0"/>
        <pt x="605" y="308" on="1"/>
        <pt x="605" y="334" on="0"/>
        <pt x="580" y="366" on="0"/>
        <pt x="554" y="366" on="1"/>
        <pt x="536" y="366" on="0"/>
        <pt x="514" y="351" on="0"/>
        <pt x="502" y="328" on="0"/>
        <pt x="498" y="302" on="0"/>
        <pt x="498" y="290" on="1"/>
        <pt x="412" y="290" on="1"/>
        <pt x="412" y="352" on="0"/>
        <pt x="476" y="428" on="0"/>
        <pt x="555" y="428" on="1"/>
        <pt x="630" y="428" on="0"/>
        <pt x="691" y="365" on="0"/>
        <pt x="691" y="314" on="1"/>
        <pt x="691" y="280" on="0"/>
        <pt x="669" y="231" on="0"/>
        <pt x="633" y="193" on="0"/>
        <pt x="590" y="162" on="0"/>
        <pt x="548" y="130" on="0"/>
        <pt x="512" y="93" on="0"/>
        <pt x="502" y="68" on="1"/>
        <pt x="687" y="68" on="1"/>
        <pt x="687" y="0" on="1"/>
      </contour>
      <contour>
        <pt x="100" y="585" on="1"/>
        <pt x="10" y="585" on="1"/>
        <pt x="10" y="641" on="1"/>
        <pt x="17" y="641" on="1"/>
        <pt x="33" y="641" on="0"/>
        <pt x="68" y="645" on="0"/>
        <pt x="98" y="658" on="0"/>
        <pt x="121" y="681" on="0"/>
        <pt x="126" y="700" on="1"/>
        <pt x="126" y="708" on="1"/>
        <pt x="186" y="708" on="1"/>
        <pt x="186" y="280" on="1"/>
        <pt x="100" y="280" on="1"/>
      </contour>
      <contour>
        <pt x="495" y="725" on="1"/>
        <pt x="569" y="725" on="1"/>
        <pt x="148" y="-31" on="1"/>
        <pt x="74" y="-31" on="1"/>
      </contour>
    </TTGlyph>
</ttFont>
